<?xml version="1.0" encoding="UTF-8"?>
<svg width="16px" height="16px" viewBox="0 0 16 16" version="1.1" xmlns="http://www.w3.org/2000/svg" xmlns:xlink="http://www.w3.org/1999/xlink">
    <title>20CF5BE9-F876-4691-948F-90A217F860F4</title>
    <g id="Style-Guide" stroke="none" stroke-width="1" fill="none" fill-rule="evenodd">
        <g id="Style-Guide---Iconography" transform="translate(-974.000000, -268.000000)" fill="#0676ED">
            <g id="Icons/Information/Add-Copy-4" transform="translate(974.000000, 268.000000)">
                <path d="M8,0 C12.418278,0 16,3.581722 16,8 C16,12.418278 12.418278,16 8,16 C3.581722,16 0,12.418278 0,8 C0,3.581722 3.581722,0 8,0 Z M8,1 C4.13400675,1 1,4.13400675 1,8 C1,11.8659932 4.13400675,15 8,15 C11.8659932,15 15,11.8659932 15,8 C15,4.13400675 11.8659932,1 8,1 Z M8.02148523,4.54151336 C8.41066802,4.54201167 8.72610042,4.85744408 8.72610042,5.24612855 L8.72576358,7.316015 L10.7965927,7.31662087 C11.1852772,7.31662087 11.5007096,7.63205328 11.5012079,8.02123607 C11.5007096,8.41041886 11.1852772,8.72585126 10.7965927,8.72585126 L8.72647069,8.72527882 L8.72610042,10.7963436 C8.72610042,11.1850281 8.41066802,11.5004605 8.02148523,11.5009588 C7.82714299,11.5009588 7.65074003,11.4222253 7.52317179,11.294657 C7.39560355,11.1670888 7.31687003,10.9906858 7.31687003,10.7963436 L7.31649976,8.72527882 L5.24637771,8.72585126 C5.05203547,8.72585126 4.87563252,8.64711774 4.74806428,8.5195495 C4.62049604,8.39198126 4.54226083,8.21607662 4.54176252,8.02123607 C4.54226083,7.63205328 4.85769323,7.31662087 5.24637771,7.31662087 L7.31720687,7.316015 L7.31687003,5.24612855 C7.31687003,4.85744408 7.63230243,4.54201167 8.02148523,4.54151336 Z" id="Combined-Shape"></path>
            </g>
        </g>
    </g>
</svg>