<?xml version="1.0" encoding="UTF-8"?>
<svg width="16px" height="16px" viewBox="0 0 16 16" version="1.1" xmlns="http://www.w3.org/2000/svg" xmlns:xlink="http://www.w3.org/1999/xlink">
    <title>1ECD81B7-E36C-4531-B300-CD58C649670B</title>
    <g id="Style-Guide" stroke="none" stroke-width="1" fill="none" fill-rule="evenodd">
        <g id="Style-Guide---Iconography" transform="translate(-908.000000, -148.000000)" fill="#0676ED">
            <g id="Icons/Information/Add-Copy" transform="translate(908.000000, 148.000000)">
                <path d="M8.00237862,0 C10.1393811,0 12.1493186,0.832377753 13.6605089,2.34288856 C16.7793773,5.46311603 16.7800568,10.5396011 13.6611884,13.6598285 C12.1486391,15.1710188 10.1387016,16.0033966 8.00101964,16.0033966 C5.86333767,16.0033966 3.8540797,15.1716983 2.3428894,13.6611875 C0.831699092,12.1493177 -0.000678661176,10.1400598 4.15180023e-07,8.0016983 C4.15180023e-07,5.86401633 0.833058076,3.85407887 2.34424838,2.34288856 C3.85543868,0.832377753 5.86469666,0 8.00237862,0 Z M8.00237862,1.35898409 C6.22754541,1.35898409 4.55939244,2.05002749 3.30505013,3.30369031 C2.05070782,4.55871212 1.35898492,6.22686508 1.35898492,8.0016983 C1.35898492,9.77721101 2.05002833,11.445364 3.30369114,12.6997063 C4.55803346,13.9540486 6.22618642,14.6444125 8.00101964,14.6444125 C9.77585286,14.6444125 11.4446853,13.9533691 12.7003866,12.6983473 C15.2892513,10.1088031 15.2892513,5.89391398 12.6997071,3.30369031 C11.4446853,2.05002749 9.77653235,1.35898409 8.00237862,1.35898409 Z M10.7965934,7.31662087 C11.1852778,7.31662087 11.5007102,7.63205328 11.5012086,8.02123607 C11.5007102,8.41041886 11.1852778,8.72585126 10.7965934,8.72585126 L5.24637833,8.72585126 C5.05203609,8.72585126 4.87563314,8.64711774 4.7480649,8.5195495 C4.62049666,8.39198126 4.54226145,8.21607662 4.54176314,8.02123607 C4.54226145,7.63205328 4.85769386,7.31662087 5.24637833,7.31662087 L10.7965934,7.31662087 Z" id="Combined-Shape"></path>
            </g>
        </g>
    </g>
</svg>