<?xml version="1.0" encoding="UTF-8"?>
<svg width="18px" height="18px" viewBox="0 0 18 18" version="1.1" xmlns="http://www.w3.org/2000/svg" xmlns:xlink="http://www.w3.org/1999/xlink">
    <title>766BC6BB-300B-4CCB-B1F0-1018E76EF177</title>
    <g id="Consideration---Content" stroke="none" stroke-width="1" fill="none" fill-rule="evenodd">
        <g id="Consideration---Content---Brand-ASIN-Cat-Selected" transform="translate(-471.000000, -726.000000)" fill="#08243F">
            <g id="MainCardComponent" transform="translate(290.000000, 317.000000)">
                <g id="Bottom" transform="translate(35.000000, 405.000000)">
                    <g id="Icons/Information/Add" transform="translate(146.000000, 4.000000)">
                        <path d="M9,0 C13.9705627,0 18,4.02943725 18,9 C18,13.9705627 13.9705627,18 9,18 C4.02943725,18 0,13.9705627 0,9 C0,4.02943725 4.02943725,0 9,0 Z M9,1.125 C4.6507576,1.125 1.125,4.6507576 1.125,9 C1.125,13.3492424 4.6507576,16.875 9,16.875 C13.3492424,16.875 16.875,13.3492424 16.875,9 C16.875,4.6507576 13.3492424,1.125 9,1.125 Z M9.02417088,5.10920253 C9.46200152,5.10976313 9.81686297,5.46462459 9.81686297,5.90189462 L9.81683758,8.23122399 L12.1461668,8.23119848 C12.5834369,8.23119848 12.9382983,8.58605994 12.9388589,9.02389058 C12.9382983,9.46172122 12.5834369,9.81658267 12.1461668,9.81658267 L9.81683758,9.81655739 L9.81686297,12.1458865 C9.81686297,12.5831566 9.46200152,12.938018 9.02417088,12.9385786 C8.80553586,12.9385786 8.60708253,12.8500034 8.46356827,12.7064891 C8.320054,12.5629749 8.23147878,12.3645215 8.23147878,12.1458865 L8.23150418,9.81655739 L5.90217493,9.81658267 C5.68353991,9.81658267 5.48508658,9.72800746 5.34157231,9.58449319 C5.19805804,9.44097892 5.11004343,9.2430862 5.10948283,9.02389058 C5.11004343,8.58605994 5.46490489,8.23119848 5.90217493,8.23119848 L8.23150418,8.23122399 L8.23147878,5.90189462 C8.23147878,5.46462459 8.58634024,5.10976313 9.02417088,5.10920253 Z" id="Combined-Shape"></path>
                    </g>
                </g>
            </g>
        </g>
    </g>
</svg>