<?xml version="1.0" encoding="UTF-8"?>
<svg width="25px" height="24px" viewBox="0 0 25 24" version="1.1" xmlns="http://www.w3.org/2000/svg" xmlns:xlink="http://www.w3.org/1999/xlink">
    <!-- Generator: sketchtool 62 (101010) - https://sketch.com -->
    <title>D699E6F2-997F-4E98-A2C6-07AEFE7719DA</title>
    <desc>Created with sketchtool.</desc>
    <g id="Asset-Artboard-Page" stroke="none" stroke-width="1" fill="none" fill-rule="evenodd">
        <g id="Icons/Notification/None-Copy-5-Icons/Navigation/Asin" transform="translate(0.666667, 0.000000)" fill="#858585" stroke="#858585" stroke-width="0.4">
            <path d="M23.9647945,4.87594982 C23.9368565,4.7049449 23.8251044,4.5624408 23.6854144,4.47693834 L15.5554537,0.0593112525 C15.3319496,-0.0546920272 15.0525695,0.00230961267 14.8849414,0.173314532 L11.9793885,3.36540637 L9.07383548,0.173314532 C8.90620742,0.00230961267 8.62682733,-0.0546920272 8.40332325,0.0593112525 L0.301300527,4.47693834 C0.16161048,4.5624408 0.0498584423,4.7049449 0.0219204329,4.87594982 C-0.00601757648,5.04695474 0.0498584423,5.21795966 0.133672471,5.36046376 L2.87159739,8.60955723 L0.133672471,11.8586507 C0.0219204329,12.0011548 -0.0339555859,12.1721597 0.0219204329,12.3431646 C0.0498584423,12.5141696 0.16161048,12.6566737 0.301300527,12.7421761 L3.06716346,14.2812204 L3.06716346,18.7273483 C3.06716346,18.9268541 3.17891549,19.1263598 3.34654355,19.2403631 L11.7279464,23.9144975 C11.7558844,23.9429984 11.7838224,23.9429984 11.8117604,23.9429984 C11.8396984,23.9429984 11.8396984,23.9429984 11.8676364,23.9714992 C11.9235124,23.9714992 11.9514504,24 12.0073265,24 C12.0632025,24 12.0911405,24 12.1470165,23.9714992 C12.1749545,23.9714992 12.1749545,23.9714992 12.2028925,23.9429984 C12.2308305,23.9429984 12.2587685,23.9144975 12.2867066,23.9144975 L20.6681094,19.2403631 C20.8357374,19.1263598 20.9474895,18.9553549 20.9474895,18.7273483 L20.9474895,14.2812204 L23.7133524,12.7421761 C23.8530425,12.6566737 23.9647945,12.5141696 23.9927325,12.3431646 C24.0206705,12.1721597 23.9647945,12.0011548 23.8809805,11.8586507 L21.1430555,8.60955723 L23.8809805,5.36046376 C23.9368565,5.21795966 23.9927325,5.04695474 23.9647945,4.87594982 Z M1.4188209,5.1324572 L8.5430133,1.25634569 L11.0574341,4.02092522 L3.73767568,7.89703674 L1.4188209,5.1324572 Z M3.73767568,13.3691942 L1.4188209,12.0581564 L3.73767568,9.32207773 L11.0294961,13.397695 L8.34744723,15.934268 L3.98911777,13.4831974 C3.90530374,13.4261958 3.82148971,13.397695 3.73767568,13.3691942 Z M11.4206283,22.4039541 L4.15674582,18.3568377 L4.15674582,14.9082384 L8.15188117,17.1313024 C8.2356952,17.188304 8.31950922,17.188304 8.43126126,17.188304 C8.57095131,17.188304 8.71064136,17.1313024 8.82239339,17.0457999 L11.4485663,14.5662286 L11.4485663,22.4039541 L11.4206283,22.4039541 Z M11.9793885,12.6281728 L4.79932004,8.63805805 L11.9793885,4.847449 L19.1594569,8.63805805 L11.9793885,12.6281728 Z M19.8020311,18.3568377 L12.5381486,22.4039541 L12.5381486,14.5662286 L15.1643215,17.0457999 C15.2760736,17.1598032 15.4157636,17.188304 15.5554537,17.188304 C15.6392677,17.188304 15.7510197,17.1598032 15.8348338,17.1313024 L19.8020311,14.9082384 L19.8020311,18.3568377 Z M22.539956,12.0581564 L15.6113297,15.934268 L12.9292808,13.397695 L20.2211012,9.32207773 L22.539956,12.0581564 Z M20.2211012,7.89703674 L12.9013428,4.04942604 L15.4157636,1.28484651 L22.539956,5.1324572 L20.2211012,7.89703674 Z" id="ASIN"></path>
        </g>
    </g>
</svg>