<?xml version="1.0" encoding="UTF-8"?>
<svg width="18px" height="18px" viewBox="0 0 18 18" version="1.1" xmlns="http://www.w3.org/2000/svg" xmlns:xlink="http://www.w3.org/1999/xlink">
    <title>495AE92D-B8C8-44DF-83F1-C8B0F0F26A29</title>
    <g id="Error" stroke="none" stroke-width="1" fill="none" fill-rule="evenodd">
        <g id="Data-Load-Error" transform="translate(-789.000000, -1017.000000)" fill="#FF647C" fill-rule="nonzero">
            <g id="Group-8" transform="translate(290.000000, 862.000000)">
                <g id="DataLoadError" transform="translate(456.000000, 155.000000)">
                    <g id="Icons/Information/AttentionSmall" transform="translate(43.000000, 0.000000)">
                        <path d="M9,-3.99680289e-15 C9.26722484,-3.99680289e-15 9.76630652,0.106329728 10.1317758,0.827852885 L10.1317758,0.827852885 L17.7869814,15.9456618 C18.0699132,16.3802742 18.0710853,16.9328748 17.7899996,17.3686044 C17.5089139,17.8043339 16.9949617,18.0466277 16.4665763,17.992509 L16.4665763,17.992509 L1.53342367,17.992509 C1.00503834,18.0466277 0.491086079,17.8043339 0.210000374,17.3686044 C-0.0710853319,16.9328748 -0.0699132061,16.3802742 0.213018589,15.9456618 L0.213018589,15.9456618 L7.86822422,0.827852885 C8.2140446,0.106329728 8.73277516,-3.99680289e-15 9,-3.99680289e-15 Z M9.00864639,1.125 C8.98933341,1.125 8.88118072,1.18439009 8.76530284,1.41452667 L8.76530284,1.41452667 L1.24096578,16.1915223 L1.19103522,16.2527782 C1.10492321,16.3824164 1.1017312,16.550766 1.18911451,16.6849739 C1.29106169,16.8415499 1.49040922,16.911903 1.67357654,16.8559489 L1.67357654,16.8559489 L16.3475788,16.8559489 C16.5285479,16.8773622 16.7089466,16.812179 16.8304034,16.6814905 L16.8304034,16.6814905 C16.9028089,16.5226896 16.8840444,16.3382046 16.7840522,16.1915223 L16.7840522,16.1915223 L9.25585254,1.41452667 C9.13611206,1.18439009 9.02795937,1.125 9.00864639,1.125 Z M9,12.1351514 C9.92150482,12.1373121 10.6679946,12.8838018 10.6701552,13.8053067 C10.6701552,14.7277079 9.92240126,15.4754619 9,15.4754619 C8.07759874,15.4754619 7.32984477,14.7277079 7.32984477,13.8053067 C7.32984477,12.8829054 8.07759874,12.1351514 9,12.1351514 Z M9,13.1175957 C8.62018771,13.1175957 8.31228902,13.4254944 8.31228902,13.8053067 C8.31228902,14.1851189 8.62018771,14.4930176 9,14.4930176 C9.37981229,14.4930176 9.68771098,14.1851189 9.68771098,13.8053067 C9.68771098,13.4254944 9.37981229,13.1175957 9,13.1175957 Z M9,5.0615528 C9.27129449,5.0615528 9.49122213,5.28148044 9.49122213,5.55277493 L9.49122213,5.55277493 L9.49122213,11.0544628 C9.49122213,11.3257572 9.27129449,11.5456849 9,11.5456849 C8.72870551,11.5456849 8.50877787,11.3257572 8.50877787,11.0544628 L8.50877787,11.0544628 L8.50877787,5.55277493 C8.50877787,5.28148044 8.72870551,5.0615528 9,5.0615528 Z" id="Combined-Shape"></path>
                    </g>
                </g>
            </g>
        </g>
    </g>
</svg>