<?xml version="1.0" encoding="UTF-8"?>
<svg width="32px" height="33px" viewBox="0 0 32 33" version="1.1" xmlns="http://www.w3.org/2000/svg" xmlns:xlink="http://www.w3.org/1999/xlink">
    <title>19C664FD-A1F4-4BFD-B696-F3304E3EBB94</title>
    <g id="ASIN" stroke="none" stroke-width="1" fill="none" fill-rule="evenodd">
        <g id="Left-Nav--1-Open-Hover" transform="translate(-1320.000000, -2069.000000)">
            <g id="Icons/Information/BackTop" transform="translate(1320.000000, 2069.500000)">
                <circle id="Oval" fill="#004384" cx="16" cy="16" r="16"></circle>
                <path d="M16.4004405,10.8320722 L23.8328893,18.2645209 C24.0557036,18.4850616 24.0557036,18.8465665 23.8328893,19.0671072 C23.7214821,19.1785143 23.5759707,19.2353547 23.4304593,19.2353547 C23.284948,19.2353547 23.1394366,19.1785143 23.030303,19.0671072 L15.999,12.0376667 L8.97026537,19.0671072 C8.85885822,19.1785143 8.71334683,19.2353547 8.56783545,19.2353547 C8.42232406,19.2353547 8.27681268,19.1785143 8.16540552,19.0671072 C7.94486483,18.8465665 7.94486483,18.4850616 8.16540552,18.2645209 L15.5978543,10.8320722 C15.6968829,10.7340541 15.822858,10.6795996 15.9516276,10.6687087 L16.0483514,10.6687087 C16.1770087,10.6795996 16.3024224,10.7340541 16.4004405,10.8320722 Z" id="Up" fill="#FFFFFF" transform="translate(16.000000, 14.951011) rotate(-360.000000) translate(-16.000000, -14.951011) "></path>
            </g>
        </g>
    </g>
</svg>