<?xml version="1.0" encoding="UTF-8"?>
<svg width="24px" height="24px" viewBox="0 0 24 24" version="1.1" xmlns="http://www.w3.org/2000/svg" xmlns:xlink="http://www.w3.org/1999/xlink">
    <title>4556035E-6939-4AC4-8583-0508213ED7EE</title>
    <g id="Style-Guide" stroke="none" stroke-width="1" fill="none" fill-rule="evenodd">
        <g transform="translate(-675.000000, -2626.000000)" fill="#858585" id="Icon_Group" stroke="#858585" stroke-width="0.4">
            <g transform="translate(35.000000, 2626.000000)">
                <g id="Icons/Notification/None" transform="translate(640.000000, 0.000000)">
                    <path d="M8.19230769,19.9285714 L9.88461538,19.9285714 C9.88461538,21.1120387 10.8317054,22.0714286 12,22.0714286 C13.1682946,22.0714286 14.1153846,21.1120387 14.1153846,19.9285714 L15.8076923,19.9285714 C15.8076923,22.0588126 14.1029304,23.7857143 12,23.7857143 C9.89706963,23.7857143 8.19230769,22.0588126 8.19230769,19.9285714 Z M23,16.9278576 L23,17.3579565 C23,18.3073307 22.2423948,19.0714286 21.3071045,19.0714286 L2.69289547,19.0714286 C1.75786497,19.0714286 1,18.3046876 1,17.3579565 L1,16.9278576 C1,15.4180578 2.10340378,14.1688577 3.53846154,13.9594483 L3.53846154,8.7853926 C3.53846154,4.05047006 7.32623936,0.214285714 12,0.214285714 C16.673792,0.214285714 20.4615385,4.05138553 20.4615385,8.7853926 L20.4615385,13.95933 C21.8985596,14.168279 23,15.4165523 23,16.9278576 Z M21.3076923,16.9278576 C21.3076923,16.2171025 20.7402422,15.6428571 20.0345599,15.6428571 C19.3354556,15.6428571 18.7692308,15.0649664 18.7692308,14.3602344 L18.7692308,8.7853926 C18.7692308,4.99814319 15.7391403,1.92857143 12,1.92857143 C8.26079754,1.92857143 5.23076923,4.99732247 5.23076923,8.7853926 L5.23076923,14.3602344 C5.23076923,15.0681155 4.66162707,15.6428571 3.96544008,15.6428571 C3.26211307,15.6428571 2.69230769,16.2189078 2.69230769,16.9278576 L2.69230769,17.3572833 C2.69230769,17.3572833 21.3071045,17.3572833 21.3071045,17.3572833 C21.3073406,17.3572833 21.3076923,16.9278576 21.3076923,16.9278576 Z" id="Shape"></path>
                </g>
            </g>
        </g>
    </g>
</svg>