<?xml version="1.0" encoding="UTF-8"?>
<svg width="18px" height="19px" viewBox="0 0 18 19" version="1.1" xmlns="http://www.w3.org/2000/svg" xmlns:xlink="http://www.w3.org/1999/xlink">
    <title>F1CDC84E-E2C0-4A8D-B395-64DCDB02472A</title>
    <g id="Consideration---Content" stroke="none" stroke-width="1" fill="none" fill-rule="evenodd">
        <g id="Consideration---Content---Main" transform="translate(-379.000000, -103.000000)" fill="#08243F">
            <g id="CompareComponent" transform="translate(290.000000, 86.000000)">
                <g id="Brands" transform="translate(89.000000, 16.000000)">
                    <g id="Icon-Brand" transform="translate(0.000000, 1.000000)">
                        <path d="M8.65684076,0.703295308 L17.3079141,9.33129915 C17.7462352,9.7696202 18,10.3924975 18,11.0153748 C18,11.6382521 17.7462352,12.2380598 17.3079141,12.6763809 L12.6709388,17.3133562 C11.7481576,18.2361373 10.2486383,18.2361373 9.3258571,17.3133562 L0.697853258,8.68535234 C0.19032362,8.1778227 -0.0403716702,7.48573683 0.00576738778,6.79365096 L0.42101891,2.54885763 C0.536366555,1.41845071 1.41300866,0.541808605 2.54341558,0.42646096 L6.76513938,0.0112094378 C7.45722525,-0.0579991492 8.17238065,0.19576567 8.65684076,0.703295308 Z M6.93126557,0.935249099 L2.86631466,1.35840481 C2.04932778,1.44436813 1.40433814,2.08909304 1.31833952,2.90574458 C0.972871162,5.65084554 0.800136985,7.03772324 0.800136985,7.06637768 C0.800136985,7.51768512 1.23619396,8.00297712 1.55868878,8.32533957 L9.59955965,16.3844009 C10.2660489,17.0506166 11.56343,17.251515 12.2299193,16.5852993 L16.5513499,12.2656425 C17.2178392,11.5994267 17.0169405,10.3024959 16.3504512,9.63628021 L8.30958036,1.59870975 C7.94408623,1.23336564 7.44725728,0.892267439 6.93126557,0.935249099 Z M5.8211942,3.68181819 C6.29456698,3.68181819 6.76793976,3.85395374 7.12230524,4.16422277 L7.24938139,4.28698225 C7.6366864,4.67428726 7.85454546,5.20683164 7.85454546,5.73937601 C7.85454546,6.87708446 6.93469608,7.77272728 5.79698763,7.77272728 C4.65927919,7.77272728 3.76363637,6.8528779 3.76363637,5.71516945 C3.76363637,4.57746101 4.68348575,3.68181819 5.8211942,3.68181819 Z M4.84786289,4.80846122 C4.56479837,5.06975154 4.43415321,5.41813863 4.43415321,5.76652573 C4.43415321,6.50684831 5.04383063,7.11652573 5.78415321,7.11652573 C6.52447579,7.11652573 7.13415321,6.50684831 7.13415321,5.76652573 C7.13415321,5.46790822 7.03816901,5.16929071 6.84620061,4.92552131 L6.74221773,4.80846122 C6.21963708,4.28588057 5.37044353,4.28588057 4.84786289,4.80846122 Z" id="Combined-Shape" transform="translate(9.000000, 9.002721) rotate(-360.000000) translate(-9.000000, -9.002721) "></path>
                    </g>
                </g>
            </g>
        </g>
    </g>
</svg>