<?xml version="1.0" encoding="UTF-8"?>
<svg width="16px" height="17px" viewBox="0 0 16 17" version="1.1" xmlns="http://www.w3.org/2000/svg" xmlns:xlink="http://www.w3.org/1999/xlink">
    <title>9FA393E3-FA07-4C24-A28F-AA409701BAE9</title>
    <g id="Consideration---Content" stroke="none" stroke-width="1" fill="none" fill-rule="evenodd">
        <g id="Consideration---Content---Main" transform="translate(-1192.000000, -103.000000)" fill="#FFFFFF">
            <g id="CompareButton" transform="translate(1177.000000, 93.000000)">
                <g id="Icons/Navigation/BrandCompare" transform="translate(15.000000, 10.000000)">
                    <path d="M-4.18776125e-13,7.69729513 C-4.18776125e-13,7.67856566 0.769863793,7.65044085 0.769863793,7.67856566 L0.769863793,7.67856566 L0.769863793,10.8819127 C0.769863793,12.5678044 2.05297012,13.9342641 3.66113004,14.005249 L3.66113004,14.005249 L3.66113004,12.8339979 L5.20085763,14.4311585 L3.66113004,16.0283191 L3.66113004,14.8215755 C1.62526801,14.7505906 -4.18776125e-13,13.0292064 -4.18776125e-13,10.8996589 L-4.18776125e-13,10.8996589 Z M11.5097725,7.66393961 L15.6639966,11.8181637 C15.9083627,12.0625298 16.0194382,12.3957563 15.9972231,12.7289829 L15.7972872,14.7727723 C15.7417494,15.3170423 15.3196625,15.7391292 14.7753925,15.7946669 L12.7427107,15.9946029 C12.4094841,16.0279255 12.0651501,15.9057425 11.8318915,15.6613763 L7.66655986,11.5071523 C7.45551639,11.2961088 7.33333333,10.9962049 7.33333333,10.696301 C7.33333333,10.3963972 7.45551639,10.1076008 7.66655986,9.89655737 L9.89917761,7.66393961 C10.3434796,7.21963757 11.0654705,7.21963757 11.5097725,7.66393961 Z M10.1471346,8.23054531 L8.18630998,10.1905651 C7.88389425,10.4928567 7.97505088,11.0813316 8.27746661,11.3836232 L11.9259661,15.0306252 C12.091807,15.196398 12.3172403,15.3511693 12.5513686,15.3316667 L14.395817,15.1396622 C14.7665201,15.1006568 15.0591805,14.8081165 15.0982019,14.4375655 C15.2549562,13.1919916 15.3333333,12.5627037 15.3333333,12.5497019 C15.3333333,12.3449237 15.135475,12.1247252 14.9891448,11.9784551 L11.3406453,8.32170184 C11.0382296,8.01941024 10.4495503,7.92825371 10.1471346,8.23054531 Z M13.2088578,12.2575758 C13.7566434,12.2575758 14.1878788,12.7004662 14.1878788,13.2482517 C14.1878788,13.7960373 13.7449883,14.2272727 13.1972028,14.2272727 C12.9835276,14.2272727 12.7698524,14.1544289 12.6033907,14.0222309 L12.5095571,13.9358974 C12.3230769,13.7494172 12.2181818,13.493007 12.2181818,13.2365967 C12.2181818,12.6888112 12.6610723,12.2575758 13.2088578,12.2575758 Z M13.2333333,12.6666667 C12.9225806,12.6666667 12.6666667,12.9225806 12.6666667,13.2333333 C12.6666667,13.3503226 12.7017634,13.4673118 12.771957,13.5655828 L12.8311828,13.6354839 C13.0505376,13.8548387 13.4069892,13.8548387 13.6263441,13.6354839 C13.7451613,13.5258065 13.8,13.3795699 13.8,13.2333333 C13.8,12.9225806 13.544086,12.6666667 13.2333333,12.6666667 Z M16,6.28 L16,8.98 L15.1147541,8.98 L15.1147541,6.28 L16,6.28 Z M4.16810852,0.338623667 L8.33344014,4.49284774 C8.54448361,4.70389121 8.66666667,5.00379509 8.66666667,5.30369896 C8.66666667,5.60360284 8.54448361,5.89239917 8.33344014,6.10344263 L6.10082239,8.33606039 C5.65652035,8.78036243 4.93452954,8.78036243 4.4902275,8.33606039 L0.336003423,4.18183631 C0.0916373012,3.93747019 -0.0194382088,3.60424366 0.00277689317,3.27101713 L0.202712811,1.22722775 C0.258250566,0.682957748 0.680337504,0.26087081 1.2246075,0.205333055 L3.25728934,0.00539713674 C3.59051587,-0.0279255163 3.93484995,0.0942575447 4.16810852,0.338623667 Z M3.44863142,0.668333339 L1.60418305,0.860337839 C1.23347989,0.899343207 0.940819506,1.19188347 0.901798121,1.56243447 C0.745043819,2.80800843 0.666666668,3.4372963 0.666666668,3.45029809 C0.666666668,3.65507628 0.864525041,3.87527477 1.01085523,4.0215449 L4.6593547,7.67829816 C4.96177043,7.98058976 5.55044971,8.07174629 5.85286544,7.76945469 L7.81369002,5.80943494 C8.11610575,5.50714334 8.02494912,4.91866836 7.72253339,4.61637676 L4.07403393,0.96937484 C3.90819304,0.803602026 3.68275973,0.648830654 3.44863142,0.668333339 Z M14.8,2.68 L15.0754098,3.04 C15.4196721,3.495 15.688627,4.0265625 15.8427382,4.59449219 L15.9016393,4.84 L16,5.3 L15.1344262,5.48 L15.0360656,5.04 C14.9517564,4.59428571 14.7662763,4.16326531 14.5167901,3.78472303 L14.3868852,3.6 L14.1114754,3.24 L14.8,2.68 Z M2.80279721,1.77272728 C3.01647242,1.77272728 3.23014764,1.8455711 3.39660926,1.97776915 L3.4904429,2.06410257 C3.67692308,2.25058275 3.78181819,2.50699301 3.78181819,2.76340327 C3.78181819,3.31118881 3.33892774,3.74242424 2.7911422,3.74242424 C2.24335665,3.74242424 1.81212122,3.2995338 1.81212122,2.75174825 C1.81212122,2.20396271 2.25501166,1.77272728 2.80279721,1.77272728 Z M11.7901639,2.30926389e-14 L11.7901639,1.36 C12.3128806,1.37714286 12.8355972,1.48244898 13.321149,1.68851312 L13.5606557,1.8 L13.9540984,2.04 L13.5606557,2.84 L13.1672131,2.64 C12.8065574,2.45666667 12.4185792,2.34277778 12.0260474,2.29833333 L11.7901639,2.28 L11.7901639,3.6 L10.0196721,1.8 L11.7901639,2.30926389e-14 Z M2.37365591,2.36451613 C2.25483871,2.47419355 2.2,2.62043011 2.2,2.76666667 C2.2,3.07741935 2.45591398,3.33333333 2.76666667,3.33333333 C3.07741935,3.33333333 3.33333333,3.07741935 3.33333333,2.76666667 C3.33333333,2.64967742 3.29823656,2.53268817 3.22804301,2.4344172 L3.1688172,2.36451613 C2.94946237,2.14516129 2.59301075,2.14516129 2.37365591,2.36451613 Z" id="Combined-Shape"></path>
                </g>
            </g>
        </g>
    </g>
</svg>