<?xml version="1.0" encoding="UTF-8"?>
<svg width="18px" height="19px" viewBox="0 0 18 19" version="1.1" xmlns="http://www.w3.org/2000/svg" xmlns:xlink="http://www.w3.org/1999/xlink">
    <title>AA842AC8-BF9D-4E39-83B2-74DC0A07E745</title>
    <g id="Consideration---Content" stroke="none" stroke-width="1" fill="none" fill-rule="evenodd">
        <g id="Consideration---Content---Main" transform="translate(-551.000000, -103.000000)" fill="#08243F">
            <g id="CompareComponent" transform="translate(290.000000, 86.000000)">
                <g id="Categories" transform="translate(261.000000, 1.000000)">
                    <g id="Icon-Brand" transform="translate(0.000000, 16.000000)">
                        <path d="M15.6110081,0.00616935484 C16.9319758,0.00616935484 18.0061694,1.0803629 18.0061694,2.41584677 C18.0061694,3.73681452 16.9319758,4.81100806 15.6110081,4.81100806 C14.4134428,4.81100806 13.4067683,3.92813864 13.2291358,2.77891896 L8.79383065,2.77816935 L8.79383065,8.64316935 L13.2290983,8.64333991 C13.4066265,7.49400181 14.4133585,6.61100806 15.6110081,6.61100806 C16.9319758,6.61100806 18.0061694,7.68520161 18.0061694,9.00616935 C18.0061694,10.3271371 16.9319758,11.4013306 15.6110081,11.4013306 C14.4133585,11.4013306 13.4066265,10.5183369 13.2290983,9.3689988 L8.79383065,9.36816935 L8.79383065,15.2471694 L13.2286272,15.2475734 C13.404838,14.0858939 14.4122946,13.2013306 15.6110081,13.2013306 C16.9319758,13.2013306 18.0061694,14.2755242 18.0061694,15.6110081 C18.0061694,16.9319758 16.9319758,18.0061694 15.6110081,18.0061694 C14.4133585,18.0061694 13.4066265,17.1231756 13.2290983,15.9738375 L8.43133065,15.9739113 L8.43133065,15.9739113 C8.22810484,15.9739113 8.06842742,15.7997177 8.06842742,15.6110081 L8.06783065,9.36816935 L4.77125758,9.3689988 C4.59595725,10.5183369 3.60115762,11.4013306 2.40350806,11.4013306 C1.08254032,11.4013306 -0.00616935484,10.3271371 -0.00616935484,9.00616935 C-0.00616935484,7.68520161 1.08254032,6.61100806 2.40350806,6.61100806 C3.60115762,6.61100806 4.59595725,7.4940018 4.77125758,8.6433399 L8.06783065,8.64316935 L8.06842742,2.41584677 C8.06842742,2.21262096 8.22810484,2.05294354 8.43133065,2.05294354 L13.2286272,2.05241211 C13.404838,0.890732596 14.4122946,0.00616935484 15.6110081,0.00616935484 Z M15.6110081,13.9271371 C14.6819758,13.9271371 13.9271371,14.6819758 13.9271371,15.6110081 C13.9271371,16.5255242 14.6819758,17.2803629 15.6110081,17.2803629 C16.5255242,17.2803629 17.2803629,16.5255242 17.2803629,15.6110081 C17.2803629,14.6819758 16.5255242,13.9271371 15.6110081,13.9271371 Z M2.40350806,7.33681451 C1.47447581,7.33681451 0.719637097,8.09165322 0.719637097,9.00616935 C0.719637097,9.93520161 1.47447581,10.6900403 2.40350806,10.6900403 C3.31802419,10.6900403 4.0728629,9.93520161 4.0728629,9.00616935 C4.0728629,8.09165322 3.31802419,7.33681451 2.40350806,7.33681451 Z M15.6110081,7.33681452 C14.6819758,7.33681452 13.9271371,8.09165323 13.9271371,9.00616935 C13.9271371,9.93520161 14.6819758,10.6900403 15.6110081,10.6900403 C16.5255242,10.6900403 17.2803629,9.93520161 17.2803629,9.00616935 C17.2803629,8.09165323 16.5255242,7.33681452 15.6110081,7.33681452 Z M15.6110081,0.731975806 C14.6819758,0.731975806 13.9271371,1.48681452 13.9271371,2.41584677 C13.9271371,3.3303629 14.6819758,4.08520161 15.6110081,4.08520161 C16.5255242,4.08520161 17.2803629,3.3303629 17.2803629,2.41584677 C17.2803629,1.48681452 16.5255242,0.731975806 15.6110081,0.731975806 Z" id="Combined-Shape" transform="translate(9.000000, 9.006169) rotate(-270.000000) translate(-9.000000, -9.006169) "></path>
                    </g>
                </g>
            </g>
        </g>
    </g>
</svg>