<?xml version="1.0" encoding="UTF-8"?>
<svg width="12px" height="12px" viewBox="0 0 12 12" version="1.1" xmlns="http://www.w3.org/2000/svg" xmlns:xlink="http://www.w3.org/1999/xlink">
    <title>6514EAA7-22ED-4432-A7BA-745CE0A10A73</title>
    <g id="Style-Guide" stroke="none" stroke-width="1" fill="none" fill-rule="evenodd">
        <g id="Style-Guide---Brand-Categories-ASIN-Dropdowns" transform="translate(-365.000000, -3172.000000)" fill="#0676ED">
            <g id="CompareComponent" transform="translate(177.000000, 3152.000000)">
                <g id="Brands" transform="translate(89.000000, 16.000000)">
                    <g id="Icons/Arrows/Down" transform="translate(99.000000, 4.000000)">
                        <path d="M6.30033038,3.12405414 L11.874667,8.69839071 C12.0417777,8.86379623 12.0417777,9.13492486 11.874667,9.30033038 C11.7911116,9.38388575 11.681978,9.42651604 11.5728445,9.42651604 C11.463711,9.42651604 11.3545774,9.38388575 11.2727273,9.30033038 L5.999,4.028 L0.72769903,9.30033038 C0.644143664,9.38388575 0.535010125,9.42651604 0.425876585,9.42651604 C0.316743046,9.42651604 0.207609507,9.38388575 0.12405414,9.30033038 C-0.0413513802,9.13492486 -0.0413513802,8.86379623 0.12405414,8.69839071 L5.69839071,3.12405414 C5.78194607,3.04135138 5.89107961,3 6,3 C6.10892039,3 6.21762762,3.04135138 6.30033038,3.12405414 Z" id="Down" transform="translate(6.000000, 6.213258) rotate(-180.000000) translate(-6.000000, -6.213258) "></path>
                    </g>
                </g>
            </g>
        </g>
    </g>
</svg>