<?xml version="1.0" encoding="UTF-8"?>
<svg width="17px" height="16px" viewBox="0 0 17 16" version="1.1" xmlns="http://www.w3.org/2000/svg" xmlns:xlink="http://www.w3.org/1999/xlink">
    <title>4E14E472-8A3D-4DC6-85FC-E58541CDC51B</title>
    <g id="Summary" stroke="none" stroke-width="1" fill="none" fill-rule="evenodd">
        <g id="Summary---Brand-Compare" transform="translate(-906.000000, -94.000000)" fill="#08243F">
            <g id="CompareWindowNew" transform="translate(290.000000, 86.000000)">
                <g id="Close" transform="translate(610.000000, 8.000000)">
                    <g id="Icons/General/Cross-Copy" transform="translate(6.000000, 0.000000)">
                        <path d="M6,2 L6,3 L1,3 L1,15 L11,15 L11,11 L12,11 L12,15 C12,15.5522847 11.5522847,16 11,16 L1,16 C0.44771525,16 0,15.5522847 0,15 L0,3 C0,2.44771525 0.44771525,2 1,2 L6,2 Z M12.6825129,1.77484047 L14.2200395,3.32573686 C14.2868885,3.39258584 14.3269979,3.47280462 14.3269979,3.5530234 C14.3269979,3.64661197 14.2868885,3.72683075 14.2200395,3.79367973 L7.4816621,10.5320571 C7.46116175,10.5593909 7.43367609,10.5797394 7.40277539,10.5948878 C7.35464903,10.6233478 7.3045123,10.6390155 7.25437556,10.6390155 L7.243,10.638 L5.39597386,11 L5.32912488,11 C5.2489061,11 5.15531752,10.9732604 5.10183834,10.9064114 C5.02161956,10.8261926 4.98151017,10.7192343 5.00824976,10.6122759 L5.37286737,8.74105435 C5.376088,8.66090389 5.40607316,8.58333735 5.46282284,8.52658766 L12.21457,1.77484047 C12.3348982,1.65451231 12.5488149,1.65451231 12.6825129,1.77484047 Z M5.912,9.44 L5.75695836,10.2512914 L6.572,10.094 L5.912,9.44 Z M12.4418566,2.48343968 L6.177,8.759 L7.247,9.83 L13.5114403,3.5530234 L12.4418566,2.48343968 Z M14.3671073,0.0902461258 L15.9046338,1.64114251 C15.9714828,1.6946217 16.0115922,1.78821027 16.0115922,1.86842905 C16.0115922,1.96201762 15.9714828,2.0422364 15.9046338,2.10908538 L14.9954877,3.01823154 C14.9286387,3.08508052 14.8484199,3.12518991 14.7548313,3.12518991 C14.6746126,3.12518991 14.5943938,3.08508052 14.5275448,3.01823154 L12.9766484,1.48070495 C12.9231692,1.41385597 12.8830599,1.33363719 12.8830599,1.24004862 C12.8830599,1.15982984 12.9231692,1.07961106 12.9766484,1.01276208 L13.8991644,0.0902461258 C14.0328623,-0.0300820419 14.2334093,-0.0300820419 14.3671073,0.0902461258 Z M14.1264509,0.798845336 L13.6852476,1.24004862 L14.7548313,2.32300213 L15.2094044,1.86842905 L14.1264509,0.798845336 Z" id="Combined-Shape"></path>
                    </g>
                </g>
            </g>
        </g>
    </g>
</svg>