<?xml version="1.0" encoding="UTF-8"?>
<svg width="19px" height="18px" viewBox="0 0 19 18" version="1.1" xmlns="http://www.w3.org/2000/svg" xmlns:xlink="http://www.w3.org/1999/xlink">
    <title>5BFAA142-2979-4B1E-9A4A-06FD1E914627</title>
    <g id="Consideration---Content" stroke="none" stroke-width="1" fill="none" fill-rule="evenodd">
        <g id="Consideration---Content---Brand-ASIN-Cat-Selected" transform="translate(-311.000000, -102.000000)">
            <g id="CompareComponent" transform="translate(290.000000, 86.000000)">
                <g id="Filter" transform="translate(1.000000, 1.000000)">
                    <g id="Icon-Brand" transform="translate(20.000000, 15.000000)">
                        <path d="M10.8115184,0.60778761 L0.974339998,0.608346269 L8.2136606,8.919573 C8.25016138,8.97554086 8.28666216,9.04610902 8.28666216,9.11911058 L8.28666216,16.758723 L9.72235935,15.5128299 L9.72235935,9.11911058 C9.72235935,9.04610902 9.7466932,8.97554086 9.7953609,8.919573 L11.0305417,7.50243742 C11.1734602,7.646532 11.3249831,7.78207947 11.4842757,7.90824518 L10.3307056,9.23347968 L10.3369779,15.9255392 C10.3369779,16.0131411 10.3004771,16.0970929 10.2274756,16.1554941 L8.1834321,17.9257818 C8.12259747,17.9744495 8.06176284,18 7.98876129,18 C7.94009359,18 7.90359281,17.9902665 7.85492511,17.9720161 C7.74542278,17.9221317 7.68458816,17.8150627 7.68458816,17.6958269 L7.67831589,9.23347968 L0.0739875199,0.503710711 C0.00098596758,0.413675463 -0.0233478832,0.287139439 0.0253198184,0.178853803 C0.0739875199,0.0705681672 0.183489848,-3.0195681e-14 0.305159102,-3.0195681e-14 L11.445051,-0.00186128335 C11.2166552,0.182736494 11.0046374,0.386793071 10.8115184,0.60778761 Z" id="Combined-Shape" fill="#0676ED"></path>
                        <g id="Group" transform="translate(10.125000, 0.000000)">
                            <circle id="Oval" fill="#0676ED" cx="3.9375" cy="3.9375" r="3.9375"></circle>
                            <path d="M2.13934532,3.78304143 C1.95048105,3.60598119 1.65384062,3.61555023 1.47678038,3.8044145 C1.29972014,3.99327877 1.30928918,4.2899192 1.49815345,4.46697944 L2.99814661,5.87322304 C3.19943233,6.0619284 3.51935811,6.0368266 3.68874971,5.81903738 L6.31373775,2.44405275 C6.47267611,2.23970345 6.43586326,1.94520061 6.23151394,1.78626225 C6.02716464,1.62732389 5.73266179,1.66413674 5.57372344,1.86848606 L3.26432623,4.83771102 L2.13934532,3.78304143 Z" id="Path" fill="#FFFFFF"></path>
                        </g>
                    </g>
                </g>
            </g>
        </g>
    </g>
</svg>