<?xml version="1.0" encoding="UTF-8"?>
<svg width="18px" height="18px" viewBox="0 0 18 18" version="1.1" xmlns="http://www.w3.org/2000/svg" xmlns:xlink="http://www.w3.org/1999/xlink">
    <title>D656EB74-6A78-4D73-8FC4-BF58C2DA8F34</title>
    <g id="Consideration---Content" stroke="none" stroke-width="1" fill="none" fill-rule="evenodd">
        <g id="Consideration---Content---Main" transform="translate(-311.000000, -102.000000)" fill="#08243F">
            <g id="CompareComponent" transform="translate(290.000000, 86.000000)">
                <g id="Filter" transform="translate(1.000000, 1.000000)">
                    <g id="Icon-Brand" transform="translate(20.000000, 15.000000)">
                        <path d="M0.974339998,0.608346269 L8.2136606,8.919573 C8.25016138,8.97554086 8.28666216,9.04610902 8.28666216,9.11911058 L8.28666216,16.758723 L9.72235935,15.5128299 L9.72235935,9.11911058 C9.72235935,9.04610902 9.7466932,8.97554086 9.7953609,8.919573 L17.0346815,0.608346269 L0.974339998,0.608346269 Z M7.85492511,17.9720161 C7.74542278,17.9221317 7.68458816,17.8150627 7.68458816,17.6958269 L7.67831589,9.23347968 L0.0739875199,0.503710711 C0.000985967596,0.413675463 -0.0233478832,0.287139439 0.0253198184,0.178853803 C0.0739875199,0.0705681672 0.183489848,0 0.305159102,0 L17.7038624,0 C17.8133647,0 17.9228671,0.0705681672 17.9715348,0.178853803 C18.0202025,0.287139439 18.0080355,0.413675463 17.9228671,0.503710711 L10.3307056,9.23347968 L10.3369779,15.9255392 C10.3369779,16.0131411 10.3004771,16.0970929 10.2274756,16.1554941 L8.1834321,17.9257818 C8.12259747,17.9744495 8.06176284,18 7.98876129,18 C7.94009359,18 7.90359281,17.9902665 7.85492511,17.9720161 Z" id="Fill-8028"></path>
                    </g>
                </g>
            </g>
        </g>
    </g>
</svg>