<?xml version="1.0" encoding="utf-8"?>
<!-- Generator: Adobe Illustrator 24.0.2, SVG Export Plug-In . SVG Version: 6.00 Build 0)  -->
<svg version="1.1" id="Layer_1" xmlns="http://www.w3.org/2000/svg" xmlns:xlink="http://www.w3.org/1999/xlink" x="0px" y="0px"
	 viewBox="0 0 18 18" style="enable-background:new 0 0 18 18;" xml:space="preserve">
<style type="text/css">
	.st0{fill:#D5D5D5;}
</style>
<path id="Save" class="st0" d="M1.8,18c-0.97,0.02-1.78-0.75-1.8-1.72V1.72C0.02,0.75,0.83-0.02,1.8,0h12.27
	c0.1,0,0.19,0.04,0.27,0.1l3.55,3.4C17.96,3.58,18,3.67,18,3.76v12.51c-0.02,0.97-0.83,1.74-1.8,1.72H1.8z M0.75,1.75v14.44
	c0.02,0.56,0.48,1.01,1.04,0.99h14.4c0.56,0.01,1.03-0.43,1.04-0.99V3.92l-3.33-3.17h-0.96v3.83c-0.02,0.59-0.5,1.05-1.09,1.03H3.48
	C2.9,5.64,2.41,5.17,2.39,4.59V0.75H1.8C1.24,0.74,0.77,1.18,0.75,1.75z M3.15,4.59c0.02,0.17,0.17,0.29,0.34,0.28h8.38
	c0.17,0.01,0.32-0.11,0.33-0.28V0.75H3.15V4.59z M3.63,15.44c-0.68,0-1.23-0.55-1.23-1.24V7.98c0-0.68,0.55-1.23,1.23-1.23h10.86
	c0.68,0,1.23,0.55,1.23,1.23v6.22c0,0.68-0.55,1.23-1.23,1.23L3.63,15.44z M3.15,7.98v6.22c0,0.27,0.22,0.48,0.48,0.48h10.86
	c0.27,0,0.48-0.21,0.48-0.48V7.98c0-0.27-0.22-0.48-0.48-0.48c0,0,0,0,0,0H3.63C3.36,7.5,3.15,7.72,3.15,7.98
	C3.15,7.98,3.15,7.98,3.15,7.98z M5.36,12.7c-0.21,0.01-0.39-0.15-0.4-0.36c-0.01-0.21,0.15-0.39,0.36-0.4c0.01,0,0.03,0,0.04,0h7.4
	c0.21-0.01,0.39,0.15,0.4,0.36c0.01,0.21-0.15,0.39-0.36,0.4c-0.01,0-0.03,0-0.04,0H5.36z M5.36,10.24
	c-0.21,0.01-0.39-0.15-0.4-0.36C4.95,9.67,5.11,9.5,5.32,9.49c0.01,0,0.03,0,0.04,0h7.4c0.21-0.01,0.39,0.15,0.4,0.36
	c0.01,0.21-0.15,0.39-0.36,0.4c-0.01,0-0.03,0-0.04,0H5.36z"/>
</svg>
