<?xml version="1.0" encoding="UTF-8"?>
<svg width="25px" height="24px" viewBox="0 0 25 24" version="1.1" xmlns="http://www.w3.org/2000/svg" xmlns:xlink="http://www.w3.org/1999/xlink">
    <!-- Generator: sketchtool 62 (101010) - https://sketch.com -->
    <title>27CFA5B7-989C-4447-8107-F13F7F65ACF4</title>
    <desc>Created with sketchtool.</desc>
    <g id="Asset-Artboard-Page" stroke="none" stroke-width="1" fill="none" fill-rule="evenodd">
        <g id="Icons/Notification/None-Copy-2-Icons/Arrows/Inbound" transform="translate(0.666667, 0.000000)" fill="#00B0A3">
            <g id="Inbound" transform="translate(2.000000, 5.000000)">
                <path d="M1.80432447,12.9236704 L7.32343461,7.31184876 L10.1537475,10.189706 C10.5782944,10.6213846 11.2151148,10.6213846 11.6396618,10.189706 L17.512561,4.21815224 L18.5739284,5.2973487 C18.8569597,5.58513442 19.4230222,5.44124156 19.4230222,5.00956298 L19.9890848,0.836669989 C20.0598426,0.476937835 19.7768113,0.189152112 19.4230222,0.261098543 L15.3190685,0.836669989 C14.8945216,0.90861642 14.753006,1.41224144 15.0360372,1.70002716 L16.0974046,2.77922362 L11.0028414,7.95936664 L8.17252848,5.08150941 C7.74798155,4.64983082 7.11116115,4.64983082 6.68661421,5.08150941 L0.318410201,11.4127953 C-0.106136734,11.8444739 -0.106136734,12.4919918 0.318410201,12.9236704 C0.742957135,13.355349 1.37977754,13.355349 1.80432447,12.9236704 Z" id="Outbound"></path>
            </g>
        </g>
    </g>
</svg>