<?xml version="1.0" encoding="UTF-8"?>
<svg width="12px" height="16px" viewBox="0 0 12 16" version="1.1" xmlns="http://www.w3.org/2000/svg" xmlns:xlink="http://www.w3.org/1999/xlink">
    <title>DE1E989B-35FC-4467-83C9-A531C4657BFB</title>
    <g id="Style-Guide" stroke="none" stroke-width="1" fill="none" fill-rule="evenodd">
        <g id="Style-Guide---Iconography" transform="translate(-250.000000, -148.000000)" fill="#08243F">
            <g id="Icons/Notification/New" transform="translate(250.000000, 148.000000)">
                <path d="M5.73800355,2.22044605e-16 C6.6280335,2.22044605e-16 7.35375023,0.722978177 7.35375023,1.61026958 C7.35375023,2.0340698 7.18869945,2.42018862 6.91948857,2.7081809 C8.74005446,3.24129837 10.0786112,4.98160208 10.0786112,7.01754386 C10.0786112,8.86606761 10.5167798,10.7282841 11.3520386,12.3851091 C11.5300446,12.7411211 11.5163519,13.1382114 11.3109603,13.4668378 C11.1055688,13.809157 10.7495568,14.0008558 10.3661593,14.0008558 L7.6,14 L7.60022006,14.1240907 C7.60022006,15.1510484 6.76496118,16 5.73800355,16 C4.71104591,16 3.87578703,15.1510484 3.87578703,14.1240907 L3.875,14 L1.10984779,14.0008558 C0.726450272,14.0008558 0.370438291,13.809157 0.165046763,13.4668378 C-0.0403447643,13.1382114 -0.0540375329,12.7411211 0.123968458,12.3851091 C0.959227337,10.7282841 1.39739593,8.86606761 1.39739593,7.01754386 L1.39739593,6.88061617 C1.39739593,5.70577664 1.86295006,4.60487805 2.69820894,3.78194266 C3.22521752,3.26270962 3.86124816,2.89883303 4.55471008,2.70407044 C4.28654704,2.41840702 4.12225686,2.03309218 4.12225686,1.61026958 C4.12225686,0.722978177 4.84797359,2.22044605e-16 5.73800355,2.22044605e-16 Z M6.929,14 L4.56,14 L4.56042545,14.1240907 C4.56042545,14.7813436 5.08075066,15.3153616 5.73800355,15.3153616 C6.39525643,15.3153616 6.92927441,14.7813436 6.92927441,14.1240907 L6.929,14 Z M5.80646739,3.22190843 L5.73800355,3.22190843 L5.73800355,3.22190843 C4.77950975,3.22190843 3.86209426,3.59161318 3.17745583,4.26940522 C2.46543187,4.96362858 2.08203435,5.89062901 2.08203435,6.88061617 L2.08203435,7.01754386 C2.08203435,8.97560976 1.61648022,10.9336757 0.726450272,12.7000428 C0.657986429,12.8232777 0.671679198,12.9875909 0.740143041,13.1108258 C0.822299652,13.2477535 0.959227337,13.3162174 1.10984779,13.3162174 L10.3661593,13.3162174 C10.5167798,13.3162174 10.6537074,13.2477535 10.7358641,13.1108258 C10.8180207,12.9875909 10.8180207,12.8232777 10.7495568,12.7000428 C9.85952687,10.9336757 9.39397274,8.97560976 9.39397274,7.01754386 C9.39397274,4.95815148 7.79191882,3.2588789 5.80646739,3.22190843 Z M5.73800355,0.683269148 C5.23137111,0.683269148 4.80689529,1.09952931 4.80689529,1.61026958 C4.80689529,2.12237912 5.23137111,2.53863928 5.73800355,2.53863928 C6.24463598,2.53863928 6.6691118,2.12237912 6.6691118,1.61026958 C6.6691118,1.09952931 6.24463598,0.683269148 5.73800355,0.683269148 Z" id="Combined-Shape"></path>
            </g>
        </g>
    </g>
</svg>