<?xml version="1.0" encoding="UTF-8"?>
<svg width="16px" height="16px" viewBox="0 0 16 16" version="1.1" xmlns="http://www.w3.org/2000/svg" xmlns:xlink="http://www.w3.org/1999/xlink">
    <title>86EE9A40-5E8E-4325-BCFF-1BF129EE619F</title>
    <g id="Style-Guide" stroke="none" stroke-width="1" fill="none" fill-rule="evenodd">
        <g id="Style-Guide---Iconography" transform="translate(-842.000000, -268.000000)" fill="#C8C8C8">
            <g id="Icons/General/Actions/No" transform="translate(842.000000, 268.000000)">
                <path d="M8.00237842,1.18423789e-15 C10.1393809,1.18423789e-15 12.1493185,0.832377775 13.6605088,2.34288863 C16.7793774,5.46311617 16.7800569,10.5396014 13.6611883,13.6598289 C12.148639,15.1710192 10.1387015,16.003397 8.00101943,16.003397 C5.86333741,16.003397 3.85407938,15.1716987 2.34288904,13.6611879 C0.831698698,12.149318 -0.000679076374,10.14006 5.734672e-13,8.00169851 C5.734672e-13,5.86401649 0.833057682,3.85407897 2.34424803,2.34288863 C3.85543837,0.832377775 5.86469639,1.18423789e-15 8.00237842,1.18423789e-15 Z M8.00237842,1.35898412 C6.22754515,1.35898412 4.55939214,2.05002755 3.3050498,3.3036904 C2.05070746,4.55871224 1.35898454,6.22686525 1.35898454,8.00169851 C1.35898454,9.77721126 2.05002796,11.4453643 3.30369082,12.6997066 C4.55803316,13.954049 6.22618617,14.6444129 8.00101943,14.6444129 C9.77585269,14.6444129 11.4446852,13.9533695 12.7003865,12.6983476 C15.2892513,10.1088034 15.2892513,5.89391414 12.699707,3.3036904 C11.4446852,2.05002755 9.77653219,1.35898412 8.00237842,1.35898412 Z M6.62044271,4.67057292 L9.51432292,9.66080729 L9.54622396,9.66080729 L9.53323568,9.40865234 C9.49632161,8.67501953 9.47786458,8.146875 9.47786458,7.82421875 L9.47786458,7.82421875 L9.47786458,4.67057292 L10.749349,4.67057292 L10.749349,11.3333333 L8.95377604,11.3333333 L6.05533854,6.29296875 L6.01432292,6.29296875 L6.03077474,6.55236979 C6.07753255,7.30760417 6.10091146,7.85611979 6.10091146,8.19791667 L6.10091146,11.3333333 L4.83854167,11.3333333 L4.83854167,4.67057292 L6.62044271,4.67057292 Z" id="Combined-Shape"></path>
            </g>
        </g>
    </g>
</svg>