<?xml version="1.0" encoding="UTF-8"?>
<svg width="13px" height="16px" viewBox="0 0 13 16" version="1.1" xmlns="http://www.w3.org/2000/svg" xmlns:xlink="http://www.w3.org/1999/xlink">
    <title>0A3B6527-B86F-46F4-B8D8-B5267E26C66E</title>
    <g id="Style-Guide" stroke="none" stroke-width="1" fill="none" fill-rule="evenodd">
        <g id="Style-Guide---Iconography" transform="translate(-316.000000, -148.000000)">
            <g id="Icons/Notification/NoNew" transform="translate(316.000000, 148.000000)">
                <path d="M5.73800355,2.22044605e-16 C6.6280335,2.22044605e-16 7.35375023,0.722978177 7.35375023,1.61026958 C7.35375023,2.0340698 7.18869945,2.42018862 6.91948857,2.7081809 C8.74005446,3.24129837 10.0786112,4.98160208 10.0786112,7.01754386 C10.0786112,7.35197195 10.0929527,7.68684821 10.1213926,8.02087533 C9.89091072,8.04488248 9.66503355,8.0925677 9.44825523,8.1607793 C9.41170213,7.78176507 9.39397274,7.39965446 9.39397274,7.01754386 C9.39397274,4.95815148 7.79191882,3.2588789 5.80646739,3.22190843 L5.73800355,3.22190843 C4.77950975,3.22190843 3.86209426,3.59161318 3.17745583,4.26940522 C2.46543187,4.96362858 2.08203435,5.89062901 2.08203435,6.88061617 L2.08203435,7.01754386 C2.08203435,8.97560976 1.61648022,10.9336757 0.726450272,12.7000428 C0.657986429,12.8232777 0.671679198,12.9875909 0.740143041,13.1108258 C0.822299652,13.2477535 0.959227337,13.3162174 1.10984779,13.3162174 L7.50804491,13.3170778 C7.66046018,13.5675043 7.84343113,13.797286 8.05178038,14.0012456 L7.6,14 L7.60022006,14.1240907 C7.60022006,15.1510484 6.76496118,16 5.73800355,16 C4.71104591,16 3.87578703,15.1510484 3.87578703,14.1240907 L3.875,14 L1.10984779,14.0008558 C0.726450272,14.0008558 0.370438291,13.809157 0.165046763,13.4668378 C-0.0403447643,13.1382114 -0.0540375329,12.7411211 0.123968458,12.3851091 C0.959227337,10.7282841 1.39739593,8.86606761 1.39739593,7.01754386 L1.39739593,6.88061617 C1.39739593,5.70577664 1.86295006,4.60487805 2.69820894,3.78194266 C3.22521752,3.26270962 3.86124816,2.89883303 4.55471008,2.70407044 C4.28654704,2.41840702 4.12225686,2.03309218 4.12225686,1.61026958 C4.12225686,0.722978177 4.84797359,2.22044605e-16 5.73800355,2.22044605e-16 Z M6.929,14 L4.56,14 L4.56042545,14.1240907 C4.56042545,14.7813436 5.08075066,15.3153616 5.73800355,15.3153616 C6.39525643,15.3153616 6.92927441,14.7813436 6.92927441,14.1240907 L6.929,14 Z M5.73800355,0.683269148 C5.23137111,0.683269148 4.80689529,1.09952931 4.80689529,1.61026958 C4.80689529,2.12237912 5.23137111,2.53863928 5.73800355,2.53863928 C6.24463598,2.53863928 6.6691118,2.12237912 6.6691118,1.61026958 C6.6691118,1.09952931 6.24463598,0.683269148 5.73800355,0.683269148 Z" id="Combined-Shape" fill="#08243F"></path>
                <circle id="Oval" fill="#FF647C" fill-rule="nonzero" cx="10.5" cy="11.5" r="2.5"></circle>
            </g>
        </g>
    </g>
</svg>