<?xml version="1.0" encoding="UTF-8"?>
<svg width="25px" height="24px" viewBox="0 0 25 24" version="1.1" xmlns="http://www.w3.org/2000/svg" xmlns:xlink="http://www.w3.org/1999/xlink">
    <!-- Generator: sketchtool 62 (101010) - https://sketch.com -->
    <title>9A97D3D0-B859-4686-AC87-1E9560A37ECE</title>
    <desc>Created with sketchtool.</desc>
    <g id="Asset-Artboard-Page" stroke="none" stroke-width="1" fill="none" fill-rule="evenodd">
        <g id="Icons/Notification/None-Copy-3-Icons/Arrows/Outbound" transform="translate(0.666667, 0.000000)" fill="#FF625E">
            <g id="Outbound" transform="translate(2.000000, 5.250000)">
                <path d="M1.80432447,12.676177 L7.32343461,7.06324549 L10.1537475,9.94167192 C10.5782944,10.3734359 11.2151148,10.3734359 11.6396618,9.94167192 L17.512561,3.96893708 L18.5739284,5.04834699 C18.8569597,5.33618963 19.4230222,5.19226831 19.4230222,4.76050435 L19.9890848,0.586786024 C20.0598426,0.22698272 19.7768113,-0.0608599229 19.4230222,0.0111007378 L15.3190685,0.586786024 C14.8945216,0.658746684 14.753006,1.16247131 15.0360372,1.45031395 L16.0974046,2.52972386 L11.0028414,7.71089144 L8.17252848,4.83246501 C7.74798155,4.40070104 7.11116115,4.40070104 6.68661421,4.83246501 L0.318410201,11.1650032 C-0.106136734,11.5967671 -0.106136734,12.2444131 0.318410201,12.676177 C0.742957135,13.107941 1.37977754,13.107941 1.80432447,12.676177 Z" transform="translate(10.000000, 6.500000) scale(-1, -1) translate(-10.000000, -6.500000) "></path>
            </g>
        </g>
    </g>
</svg>