<?xml version="1.0" encoding="UTF-8"?>
<svg width="16px" height="16px" viewBox="0 0 16 16" version="1.1" xmlns="http://www.w3.org/2000/svg" xmlns:xlink="http://www.w3.org/1999/xlink">
    <title>6BF0A443-9BFA-4663-99F5-FCFBB3FF53A6</title>
    <g id="Consideration---Content" stroke="none" stroke-width="1" fill="none" fill-rule="evenodd">
        <g id="Consideration---Content---Main" transform="translate(-913.000000, -103.000000)" fill="#08243F">
            <g id="CompareComponent" transform="translate(290.000000, 86.000000)">
                <g id="Presets" transform="translate(623.000000, 16.000000)">
                    <g id="Icons/Filters/Normal" transform="translate(0.000000, 1.000000)">
                        <path d="M6.02625,11.34 C6.98074878,11.34 7.81243633,11.9904006 8.0425,12.9167584 L8.0425,12.9167584 L15.5,12.9167584 C15.7761424,12.9167584 16,13.140616 16,13.4167584 C16,13.6929007 15.7761424,13.9167584 15.5,13.9167584 L15.5,13.9167584 L8.0325,13.9167584 C7.80243633,14.8431161 6.97074878,15.4935167 6.01625,15.4935167 C5.06175122,15.4935167 4.23006367,14.8431161 4,13.9167584 L4,13.9167584 L0.5,13.9167584 C0.223857625,13.9167584 0,13.6929007 0,13.4167584 C0,13.140616 0.223857625,12.9167584 0.5,12.9167584 L0.5,12.9167584 L4.01,12.9167584 C4.24006367,11.9904006 5.07175122,11.34 6.02625,11.34 Z M6.43771861,12.4187315 C6.03384326,12.2517156 5.5691205,12.3445749 5.26044028,12.6539714 C4.95176006,12.9633678 4.85997795,13.4283045 5.02792942,13.8317917 C5.19588089,14.2352789 5.5904547,14.49777 6.0275,14.4967613 C6.62242067,14.494012 7.10363237,14.0116838 7.105,13.4167584 C7.105,12.9797119 6.84159396,12.5857475 6.43771861,12.4187315 Z M10.36875,5.92 C11.3232488,5.92 12.1549363,6.57040064 12.385,7.49675836 L12.385,7.49675836 L15.5,7.49675836 C15.7761424,7.49675836 16,7.72061599 16,7.99675836 C16,8.27290074 15.7761424,8.49675836 15.5,8.49675836 L15.5,8.49675836 L12.385,8.49675836 C12.1549363,9.42311609 11.3232488,10.0735167 10.36875,10.0735167 C9.41425122,10.0735167 8.58256367,9.42311609 8.3525,8.49675836 L8.3525,8.49675836 L0.5,8.49675836 C0.223857625,8.49675836 0,8.27290074 0,7.99675836 C0,7.72061599 0.223857625,7.49675836 0.5,7.49675836 L0.5,7.49675836 L8.3525,7.49675836 C8.58256367,6.57040064 9.41425122,5.92 10.36875,5.92 Z M10.3675,6.91675836 C9.77103247,6.91675836 9.2875,7.40029083 9.2875,7.99675836 C9.2875,8.59322589 9.77103247,9.07675836 10.3675,9.07675836 C10.9639675,9.07675836 11.4475,8.59322589 11.4475,7.99675836 C11.4475,7.40029083 10.9639675,6.91675836 10.3675,6.91675836 Z M6.02625,0.5 C6.98074878,0.5 7.81243633,1.15040064 8.0425,2.07675836 L8.0425,2.07675836 L15.5,2.07675836 C15.7761424,2.07675836 16,2.30061599 16,2.57675836 C16,2.85290074 15.7761424,3.07675836 15.5,3.07675836 L15.5,3.07675836 L8.0325,3.07675836 C7.80243633,4.00311609 6.97074878,4.65351673 6.01625,4.65351673 C5.06175122,4.65351673 4.23006367,4.00311609 4,3.07675836 L4,3.07675836 L0.5,3.07675836 C0.223857625,3.07675836 0,2.85290074 0,2.57675836 C0,2.30061599 0.223857625,2.07675836 0.5,2.07675836 L0.5,2.07675836 L4.01,2.07675836 C4.24006367,1.15040064 5.07175122,0.5 6.02625,0.5 Z M6.43945423,1.57694982 C6.03565969,1.40914548 5.5705268,1.50138669 5.26132756,1.81058593 C4.95212833,2.11978516 4.85988711,2.58491806 5.02769146,2.9887126 C5.19549581,3.39250714 5.59022742,3.6552694 6.0275,3.65426127 C6.6220165,3.65288375 7.10362539,3.17127487 7.10500291,2.57675836 C7.10601104,2.13948578 6.84324878,1.74475417 6.43945423,1.57694982 Z" id="Combined-Shape"></path>
                    </g>
                </g>
            </g>
        </g>
    </g>
</svg>