<?xml version="1.0" encoding="UTF-8"?>
<svg width="18px" height="19px" viewBox="0 0 18 19" version="1.1" xmlns="http://www.w3.org/2000/svg" xmlns:xlink="http://www.w3.org/1999/xlink">
    <title>1227A982-1252-4AB7-9C82-FA52FB59CBB3</title>
    <g id="ASIN" stroke="none" stroke-width="1" fill="none" fill-rule="evenodd">
        <g id="Left-Nav--1-Open-Hover" transform="translate(-1282.000000, -32.000000)" fill="#08243F">
            <g id="TopNav" transform="translate(875.000000, 26.000000)">
                <g id="Profile" transform="translate(401.000000, 0.000000)">
                    <g id="Icons/Navigation/Profile" transform="translate(6.000000, 6.000000)">
                        <path d="M6.05266598,7.88034954 C6.12662247,7.88539203 6.20057895,7.91060447 6.2610888,7.95430603 L8.99915959,9.87045133 L11.7372304,7.95430603 C11.799421,7.91060447 11.8716967,7.88539203 11.947334,7.88034954 C12.0347371,7.87362623 14.0870296,7.74084072 15.7981137,9.32754349 C17.2587543,10.6839727 18,12.8438382 18,15.7466302 C18,15.8105018 17.9848725,15.8726924 17.9562984,15.9298406 C17.8470445,16.1550717 16.6671024,18.1317269 8.99915959,18.1317269 C1.33289756,18.1317269 0.152955458,16.1550717 0.0420207302,15.9298406 C0.0151274629,15.8726924 7.79376563e-14,15.8105018 7.79376563e-14,15.7466302 C7.79376563e-14,12.8438382 0.741245681,10.6839727 2.20188626,9.32754349 C3.91128957,7.74084072 5.96526286,7.87362623 6.05266598,7.88034954 Z M12.1271827,8.71572166 L12.1170978,8.71572166 L12.1170978,8.71572166 L9.24119899,10.7293551 C9.09664768,10.8302048 8.90335232,10.8302048 8.75880101,10.7293551 L5.88290223,8.71572166 C5.47950322,8.71572166 3.99701186,8.80144395 2.76328322,9.95449279 C1.50938463,11.1260307 0.862265384,13.0304102 0.842095434,15.6172064 C1.09758147,15.9079898 2.647306,17.2913123 8.99915959,17.2913123 C15.3089924,17.2913123 16.8805677,15.926479 17.1579046,15.6121639 C17.1377346,13.0203253 16.4872537,11.1142649 15.2266318,9.94440781 C13.9962648,8.80312478 12.5440284,8.71572166 12.1271827,8.71572166 Z M9.00287022,-7.99360578e-15 C11.0841606,-7.99360578e-15 12.7759278,1.6932045 12.7759278,3.77305757 C12.7759278,5.67180388 11.2207094,9.17607602 9.00287022,9.17607602 C6.7864684,9.17607602 5.23125,5.67180388 5.23125,3.77305757 C5.23125,1.6932045 6.92301715,-7.99360578e-15 9.00287022,-7.99360578e-15 Z M9.00287022,0.718677633 C7.3197272,0.718677633 5.94992763,2.08991456 5.94992763,3.77305757 C5.94992763,5.53812984 7.37722141,8.45739839 9.00287022,8.45739839 C10.6299564,8.45739839 12.0572502,5.53812984 12.0572502,3.77305757 C12.0572502,2.08991456 10.6874506,0.718677633 9.00287022,0.718677633 Z" id="Combined-Shape"></path>
                    </g>
                </g>
            </g>
        </g>
    </g>
</svg>