<?xml version="1.0" encoding="UTF-8"?>
<svg width="16px" height="13px" viewBox="0 0 16 13" version="1.1" xmlns="http://www.w3.org/2000/svg" xmlns:xlink="http://www.w3.org/1999/xlink">
    <title>1EBE4905-039B-4CDC-83B1-AD8F1CA6F065</title>
    <g id="Style-Guide" stroke="none" stroke-width="1" fill="none" fill-rule="evenodd">
        <g id="Style-Guide---Iconography" transform="translate(-248.000000, -270.000000)" fill="#08243F">
            <g id="Icons/General/Refresh" transform="translate(248.000000, 270.000000)">
                <path d="M7.99999391,0 C6.03670119,0 4.27907627,0.914158125 3.13944856,2.33861667 C3.02035208,2.48745811 2.98971454,2.68853297 3.05907808,2.86608985 C3.12844162,3.04364672 3.28726687,3.17070693 3.47571924,3.19940277 C3.6641716,3.22809862 3.85361688,3.15406995 3.97268491,3.00520575 C4.91779196,1.82388512 6.36665425,1.06654252 7.99999391,1.06654252 C10.8533137,1.06654252 13.1549494,3.36817826 13.1549494,6.22149804 C13.1549494,6.45114935 13.147452,6.66176857 13.1327298,6.86586748 L11.9328695,5.66600714 C11.8321597,5.56266989 11.6938753,5.50455037 11.5495807,5.50491478 C11.3320489,5.50439191 11.1360002,5.63603718 11.0541588,5.83758703 C10.9723173,6.03913688 11.0210871,6.2701933 11.1774018,6.42147476 L13.1327298,8.37680272 C13.2327972,8.47719808 13.3687148,8.53362726 13.5104636,8.53362726 C13.6522124,8.53362726 13.78813,8.47719808 13.8881974,8.37680272 L15.8435254,6.42147476 C15.9784767,6.28652347 16.0311811,6.08982768 15.9817855,5.90548078 C15.9323899,5.72113389 15.7883986,5.57714258 15.6040517,5.52774697 C15.4197048,5.47835137 15.223009,5.53105585 15.0880577,5.66600714 L14.215937,6.53812785 C14.2182761,6.43230035 14.2214919,6.32750526 14.2214919,6.22149804 C14.2214919,2.79177602 11.4297159,0 7.99999391,0 Z M2.48396931,3.91061252 C2.34433133,3.91177785 2.21070339,3.96762236 2.1117904,4.06619336 L0.156462449,6.02152132 C-0.0521541567,6.23013794 -0.0521541487,6.5683723 0.156462467,6.77698892 C0.365079083,6.98560553 0.703313443,6.98560554 0.911930068,6.77698894 L1.78405078,5.90486823 C1.78171167,6.01069573 1.77849587,6.11549082 1.77849587,6.22149804 C1.77849587,9.65122007 4.57027188,12.4429961 8,12.4429961 C9.96328662,12.4429961 11.7209115,11.528838 12.8605393,10.1043794 C12.9796357,9.95553797 13.0102733,9.75446311 12.9409097,9.57690623 C12.8715462,9.39934936 12.7127209,9.27228915 12.5242686,9.24359331 C12.3358162,9.21489746 12.1463709,9.28892613 12.0273029,9.43779033 C11.0821959,10.619111 9.63333356,11.3764536 8,11.3764536 C5.14667412,11.3764536 2.84503839,9.07481783 2.84503839,6.22149804 C2.84503839,5.99184673 2.85253583,5.78122751 2.86725802,5.5771286 L4.06711836,6.77698894 C4.27573499,6.98560555 4.61396935,6.98560554 4.82258596,6.77698892 C5.03120258,6.56837231 5.03120259,6.23013794 4.82258598,6.02152132 L2.86725802,4.06619336 C2.76562224,3.96489492 2.62745401,3.90882665 2.48396931,3.91061252 Z" id="Shape"></path>
            </g>
        </g>
    </g>
</svg>