<?xml version="1.0" encoding="UTF-8"?>
<svg width="18px" height="18px" viewBox="0 0 18 18" version="1.1" xmlns="http://www.w3.org/2000/svg" xmlns:xlink="http://www.w3.org/1999/xlink">
    <title>C6E50219-79A8-49B3-8BD4-A5EC10D6CC80</title>
    <g id="ASIN" stroke="none" stroke-width="1" fill="none" fill-rule="evenodd">
        <g id="ASIN---Main" transform="translate(-26.000000, -485.000000)" fill="#858585">
            <g id="Icon-Brand-Copy-4" transform="translate(26.000000, 485.000000)">
                <path d="M9,0 C13.9705627,0 18,4.02943725 18,9 C18,13.9705627 13.9705627,18 9,18 C4.02943725,18 0,13.9705627 0,9 C0,4.02943725 4.02943725,0 9,0 Z M9,1.125 C4.6507576,1.125 1.125,4.6507576 1.125,9 C1.125,13.3492424 4.6507576,16.875 9,16.875 C13.3492424,16.875 16.875,13.3492424 16.875,9 C16.875,4.6507576 13.3492424,1.125 9,1.125 Z M7.35293298,6.2318973 L8.99999961,7.87899984 L10.6470661,6.2318973 C10.9562627,5.92270069 11.4581126,5.92270069 11.768102,6.2318973 C12.0772986,6.54188672 12.0772986,7.0437366 11.768102,7.35293321 L10.1209996,8.99999984 L11.768102,10.6470663 C12.0772986,10.9562629 12.0772986,11.4581128 11.768102,11.7681022 C11.6135037,11.9227005 11.4105439,12.0003961 11.207584,12.0003961 C11.0046242,12.0003961 10.8016644,11.9227005 10.6470661,11.7681022 L8.99999961,10.1209998 L7.35293298,11.7681022 C7.19833467,11.9227005 6.99537485,12.0003961 6.79241502,12.0003961 C6.5894552,12.0003961 6.38728818,11.9227005 6.23189707,11.7681022 C5.92270046,11.4581128 5.92270046,10.9562629 6.23189707,10.6470663 L7.87899961,8.99999984 L6.23189707,7.35293321 C5.92270046,7.0437366 5.92270046,6.54188672 6.23189707,6.2318973 C6.54188649,5.92270069 7.04373637,5.92270069 7.35293298,6.2318973 Z" id="Combined-Shape"></path>
            </g>
        </g>
    </g>
</svg>