<?xml version="1.0" encoding="UTF-8"?>
<svg width="16px" height="16px" viewBox="0 0 16 16" version="1.1" xmlns="http://www.w3.org/2000/svg" xmlns:xlink="http://www.w3.org/1999/xlink">
    <title>5E19382E-0E6F-46FA-B75C-40A1ACA9FB4A</title>
    <g id="Style-Guide" stroke="none" stroke-width="1" fill="none" fill-rule="evenodd">
        <g id="Style-Guide---Iconography" transform="translate(-842.000000, -208.000000)" fill="#08243F">
            <g id="Icons/General/RemoveUse" transform="translate(842.000000, 208.000000)">
                <path d="M8,0 C12.418278,0 16,3.581722 16,8 C16,12.418278 12.418278,16 8,16 C3.581722,16 0,12.418278 0,8 C0,3.581722 3.581722,0 8,0 Z M8,1 C4.13400675,1 1,4.13400675 1,8 C1,11.8659932 4.13400675,15 8,15 C11.8659932,15 15,11.8659932 15,8 C15,4.13400675 11.8659932,1 8,1 Z M10.4605351,5.53946427 C10.7353765,5.81501042 10.7353765,6.2610992 10.4605351,6.53594063 L8.99633299,7.99933319 L10.4605351,9.46405895 C10.7353765,9.73890038 10.7353765,10.1849892 10.4605351,10.4605353 C10.3231144,10.597956 10.1427057,10.6670188 9.96229693,10.6670188 C9.78188819,10.6670188 9.60147946,10.597956 9.46405874,10.4605353 L7.99933299,8.99633319 L6.53594043,10.4605353 C6.39851971,10.597956 6.21811098,10.6670188 6.03770224,10.6670188 C5.85729351,10.6670188 5.6775895,10.597956 5.53946406,10.4605353 C5.26462263,10.1849892 5.26462263,9.73890038 5.53946406,9.46405895 L7.00333299,7.99933319 L5.53946406,6.53594063 C5.26462263,6.2610992 5.26462263,5.81501042 5.53946406,5.53946427 C5.81501021,5.26462284 6.261099,5.26462284 6.53594043,5.53946427 L7.99933299,7.00333319 L9.46405874,5.53946427 C9.73890017,5.26462284 10.184989,5.26462284 10.4605351,5.53946427 Z" id="Combined-Shape"></path>
            </g>
        </g>
    </g>
</svg>