<?xml version="1.0" encoding="UTF-8"?>
<svg width="16px" height="16px" viewBox="0 0 16 16" version="1.1" xmlns="http://www.w3.org/2000/svg" xmlns:xlink="http://www.w3.org/1999/xlink">
    <title>23B15B96-A183-44D5-9E3D-D79DA91DA28F</title>
    <g id="Style-Guide" stroke="none" stroke-width="1" fill="none" fill-rule="evenodd">
        <g id="Style-Guide---Iconography" transform="translate(-182.000000, -268.000000)" fill="#08243F">
            <g id="Icons/Navigation/Asin-Copy-26" transform="translate(182.000000, 268.000000)">
                <path d="M12.5057471,-1.77635684e-15 C12.5943452,-1.77635684e-15 12.6802584,0.0334432028 12.743351,0.0938982233 L15.9020052,3.12050808 C15.9637553,3.1809631 16,3.26199855 16,3.34689284 L16,14.4680441 C16,15.3131281 15.2831613,16 14.4012082,16 L1.59879184,16 C0.716838661,16 -7.37188088e-14,15.3131281 -7.37188088e-14,14.4680441 L-7.37188088e-14,1.53195595 C-7.37188088e-14,0.686871935 0.716838661,-1.77635684e-15 1.59879184,-1.77635684e-15 L12.5057471,-1.77635684e-15 Z M2.127,0.669 L1.59879184,0.669854854 C1.08599715,0.669854854 0.669854854,1.06544964 0.669854854,1.55292452 L0.669854854,14.3867852 C0.669854854,14.872984 1.08599715,15.2698549 1.59879184,15.2698549 L14.4012082,15.2698549 C14.9126605,15.2698549 15.3288028,14.872984 15.3288028,14.3867852 L15.3288028,3.48623454 L12.3661381,0.669854854 L11.511,0.669 L11.5110328,4.0774393 C11.5110328,4.58486442 11.076097,4.99697953 10.5431664,4.99697953 L3.09556171,4.99697953 C2.5612887,4.99697953 2.12769528,4.58486442 2.12769528,4.0774393 L2.127,0.669 Z M12.8749056,6 C13.4789831,6 13.9716419,6.49131639 13.9716419,7.09539391 L13.9716419,12.622032 C13.9716419,13.227452 13.4789831,13.7201107 12.8749056,13.7201107 L3.22443158,13.7201107 C2.62035406,13.7201107 2.12769528,13.227452 2.12769528,12.622032 L2.12769528,7.09539391 C2.12769528,6.49131639 2.62035406,6 3.22443158,6 L12.8749056,6 Z M12.8749056,6.66985485 L3.22443158,6.66985485 C2.98951254,6.66985485 2.79755013,6.86047487 2.79755013,7.09539391 L2.79755013,12.622032 C2.79755013,12.8569511 2.98951254,13.0489135 3.22443158,13.0489135 L12.8749056,13.0489135 C13.1098246,13.0489135 13.3017871,12.8569511 13.3017871,12.622032 L13.3017871,7.09539391 C13.3017871,6.86047487 13.1098246,6.66985485 12.8749056,6.66985485 Z M11.3365215,10.6178371 C11.521772,10.6178371 11.6721201,10.7681853 11.6721201,10.9520933 C11.6721201,11.1386861 11.521772,11.2876919 11.3365215,11.2876919 L4.76281567,11.2876919 C4.57756523,11.2876919 4.42721705,11.1386861 4.42721705,10.9520933 C4.42721705,10.7681853 4.57756523,10.6178371 4.76281567,10.6178371 L11.3365215,10.6178371 Z M11.3365215,8.43107643 C11.521772,8.43107643 11.6721201,8.58008222 11.6721201,8.76533266 C11.6721201,8.9505831 11.521772,9.10093129 11.3365215,9.10093129 L4.76281567,9.10093129 C4.57756523,9.10093129 4.42721705,8.9505831 4.42721705,8.76533266 C4.42721705,8.58008222 4.57756523,8.43107643 4.76281567,8.43107643 L11.3365215,8.43107643 Z M10.839,0.669 L2.797,0.669 L2.79755013,4.0774393 C2.79755013,4.21436353 2.93044719,4.32712467 3.09556171,4.32712467 L10.5431664,4.32712467 C10.7069385,4.32712467 10.8398356,4.21436353 10.8398356,4.0774393 L10.839,0.669 Z" id="Save"></path>
            </g>
        </g>
    </g>
</svg>