<?xml version="1.0" encoding="UTF-8"?>
<svg width="25px" height="24px" viewBox="0 0 25 24" version="1.1" xmlns="http://www.w3.org/2000/svg" xmlns:xlink="http://www.w3.org/1999/xlink">
    <!-- Generator: sketchtool 62 (101010) - https://sketch.com -->
    <title>5E9CF382-E776-46EE-9498-E27753A4B837</title>
    <desc>Created with sketchtool.</desc>
    <g id="Asset-Artboard-Page" stroke="none" stroke-width="1" fill="none" fill-rule="evenodd">
        <g id="Icons/Notification/None-Copy-14-Icons/General/Search" transform="translate(0.666667, 0.000000)" fill="#858585">
            <g id="Search" transform="translate(1.100000, 0.300000)">
                <path d="M9.53556522,0.611217391 C14.7916522,0.611217391 19.0701739,4.88878261 19.072087,10.1467826 C19.072087,12.5262423 18.1956789,14.7047198 16.7486978,16.3768231 L21.5733913,21.2013043 C21.9473913,21.5743478 21.9473913,22.1798261 21.5733913,22.5538261 C21.3868696,22.7403478 21.142,22.834087 20.8971304,22.834087 C20.6522609,22.834087 20.4073913,22.7403478 20.2208696,22.5538261 L15.3584876,17.6923603 C13.7460676,18.9389245 11.7248841,19.6813913 9.53365217,19.6813913 C4.27947826,19.6813913 0.00191304348,15.4047826 -5.32907052e-14,10.1496522 C0.00191304348,4.89069565 4.27947826,0.612173913 9.53556522,0.611217391 Z M9.53556522,2.52426087 C5.33356522,2.52521739 1.91495652,5.94573913 1.91304348,10.1496522 C1.91495652,14.3497391 5.3326087,17.7683478 9.53365217,17.7683478 C13.7385217,17.7683478 17.1590435,14.3497391 17.1590435,10.1477391 C17.1571304,5.94382609 13.7375652,2.52426087 9.53556522,2.52426087 Z M9.53556522,3.82608696 L9.53556522,4.7826087 C6.57895652,4.7826087 4.17330435,7.18826087 4.17330435,10.1448696 L3.21678261,10.1448696 C3.21678261,6.66026087 6.05191304,3.82608696 9.53556522,3.82608696 Z" id="Combined-Shape"></path>
            </g>
        </g>
    </g>
</svg>