<?xml version="1.0" encoding="UTF-8"?>
<svg width="10px" height="10px" viewBox="0 0 10 10" version="1.1" xmlns="http://www.w3.org/2000/svg" xmlns:xlink="http://www.w3.org/1999/xlink">
    <title>0C2E5182-B41A-426B-AE61-E33D5FBED1B8</title>
    <g id="Consideration---Content" stroke="none" stroke-width="1" fill="none" fill-rule="evenodd">
        <g id="CountryDropdown" transform="translate(-137.000000, -27.000000)" fill="#0676ED">
            <g id="DropdownSelected" transform="translate(37.000000, 17.000000)">
                <g id="Dropdown">
                    <g id="Icons/Arrows/Down" transform="translate(100.000000, 10.000000)">
                        <path d="M5.25027532,2.60337845 L9.89555579,7.24865892 C10.0348147,7.38649686 10.0348147,7.61243739 9.89555579,7.75027532 C9.82592632,7.81990479 9.7349817,7.85543003 9.64403709,7.85543003 C9.55309247,7.85543003 9.46214786,7.81990479 9.39393939,7.75027532 L4.999,3.357 L0.606415858,7.75027532 C0.536786387,7.81990479 0.445841771,7.85543003 0.354897154,7.85543003 C0.263952538,7.85543003 0.173007922,7.81990479 0.10337845,7.75027532 C-0.0344594835,7.61243739 -0.0344594835,7.38649686 0.10337845,7.24865892 L4.74865892,2.60337845 C4.80834133,2.54430505 4.88368384,2.51054882 4.96115165,2.50210976 L5.0388266,2.50210976 C5.11620741,2.51054882 5.19120192,2.54430505 5.25027532,2.60337845 Z" id="Up" transform="translate(5.000000, 5.177715) rotate(-360.000000) translate(-5.000000, -5.177715) "></path>
                    </g>
                </g>
            </g>
        </g>
    </g>
</svg>