<?xml version="1.0" encoding="UTF-8"?>
<svg width="16px" height="16px" viewBox="0 0 16 16" version="1.1" xmlns="http://www.w3.org/2000/svg" xmlns:xlink="http://www.w3.org/1999/xlink">
    <title>17CD2F85-00F0-431C-8688-A768FBDA41B7</title>
    <g id="Style-Guide" stroke="none" stroke-width="1" fill="none" fill-rule="evenodd">
        <g id="Style-Guide---Iconography" transform="translate(-446.000000, -148.000000)" fill="#0676ED">
            <g id="Icons/Navigation/Asin-Copy-6" transform="translate(446.000000, 148.000000)">
                <path d="M8.40044051,4.16540552 L15.8328893,11.5978543 C16.0557036,11.818395 16.0557036,12.1798998 15.8328893,12.4004405 C15.7214821,12.5118477 15.5759707,12.5686881 15.4304593,12.5686881 C15.284948,12.5686881 15.1394366,12.5118477 15.030303,12.4004405 L7.999,5.371 L0.970265374,12.4004405 C0.858858219,12.5118477 0.713346833,12.5686881 0.567835447,12.5686881 C0.422324061,12.5686881 0.276812675,12.5118477 0.165405521,12.4004405 C-0.0551351735,12.1798998 -0.0551351735,11.818395 0.165405521,11.5978543 L7.59785428,4.16540552 C7.69688286,4.06738743 7.82285799,4.01293294 7.95162758,4.00204204 L8.04835136,4.00204204 C8.17700868,4.01293294 8.30242243,4.06738743 8.40044051,4.16540552 Z" id="Up" transform="translate(8.000000, 8.284344) rotate(-360.000000) translate(-8.000000, -8.284344) "></path>
            </g>
        </g>
    </g>
</svg>