<?xml version="1.0" encoding="UTF-8"?>
<svg width="16px" height="16px" viewBox="0 0 16 16" version="1.1" xmlns="http://www.w3.org/2000/svg" xmlns:xlink="http://www.w3.org/1999/xlink">
    <title>9DAD88A0-2780-4383-83D3-9A3663C8F039</title>
    <g id="Style-Guide" stroke="none" stroke-width="1" fill="none" fill-rule="evenodd">
        <g id="Style-Guide---Iconography" transform="translate(-908.000000, -268.000000)" fill="#08243F">
            <g id="Icons/General/Actions/Yes" transform="translate(908.000000, 268.000000)">
                <path d="M8.00237842,1.35898412 C6.22754515,1.35898412 4.55939214,2.05002755 3.3050498,3.3036904 C2.05070746,4.55871224 1.35898454,6.22686525 1.35898454,8.00169851 C1.35898454,9.77721126 2.05002796,11.4453643 3.30369082,12.6997066 C4.55803316,13.954049 6.22618617,14.6444129 8.00101943,14.6444129 C9.77585269,14.6444129 11.4446852,13.9533695 12.7003865,12.6983476 C15.2892513,10.1088034 15.2892513,5.89391414 12.699707,3.3036904 C11.4446852,2.05002755 9.77653219,1.35898412 8.00237842,1.35898412 Z M8.00101943,16.003397 C5.86333741,16.003397 3.85407938,15.1716987 2.34288904,13.6611879 C0.831698698,12.149318 -0.000679076374,10.14006 6.80936788e-15,8.00169851 C6.80936788e-15,5.86401649 0.833057682,3.85407897 2.34424803,2.34288863 C3.85543837,0.832377775 5.86469639,1.18423789e-15 8.00237842,1.18423789e-15 C10.1393809,1.18423789e-15 12.1493185,0.832377775 13.6605088,2.34288863 C16.7793774,5.46311617 16.7800569,10.5396014 13.6611883,13.6598289 C12.148639,15.1710192 10.1387015,16.003397 8.00101943,16.003397 L8.00101943,16.003397 Z" id="Fill-1169"></path>
                <path d="M6.18880208,10.6666667 L6.671875,9.08072917 L9.10091146,9.08072917 L9.58398438,10.6666667 L11.1061198,10.6666667 L8.74544271,3.9765625 L7.01822917,3.9765625 L4.66666667,10.6666667 L6.18880208,10.6666667 Z M8.76367188,7.89583333 L7.02734375,7.89583333 C7.50130208,6.36154514 7.78841146,5.3999566 7.88867187,5.01106771 C7.91297743,5.12044271 7.95323351,5.26931424 8.0094401,5.45768229 C8.0656467,5.64605035 8.31705729,6.45876736 8.76367188,7.89583333 L8.76367188,7.89583333 Z" id="A"></path>
            </g>
        </g>
    </g>
</svg>