<?xml version="1.0" encoding="UTF-8"?>
<svg width="12px" height="12px" viewBox="0 0 12 12" version="1.1" xmlns="http://www.w3.org/2000/svg" xmlns:xlink="http://www.w3.org/1999/xlink">
    <title>972532E0-95F9-476D-B8B8-8415CCB85013</title>
    <g id="Consideration" stroke="none" stroke-width="1" fill="none" fill-rule="evenodd">
        <g id="Consideration---Content---Main" transform="translate(-426.000000, -1418.000000)">
            <g id="Group-25" transform="translate(396.000000, 980.000000)">
                <g id="Group-23-Copy" transform="translate(20.000000, 432.000000)">
                    <g id="Icons/General/Actions/Yes" transform="translate(10.000000, 6.000000)">
                        <path d="M6.00178381,1.01923809 C4.67065886,1.01923809 3.41954411,1.53752066 2.47878735,2.4777678 C1.53803059,3.41903418 1.0192384,4.67014893 1.0192384,6.00127388 C1.0192384,7.33290845 1.53752097,8.5840232 2.47776811,9.52477996 C3.41852487,10.4655367 4.66963963,10.9833097 6.00076457,10.9833097 C7.33188952,10.9833097 8.5835139,10.4650271 9.52528989,9.52376072 C11.4669385,7.58160254 11.4669385,4.4204356 9.52478027,2.4777678 C8.5835139,1.53752066 7.33239914,1.01923809 6.00178381,1.01923809 Z M6.00076457,12.0025478 C4.39750306,12.0025478 2.89055954,11.3787741 1.75716678,10.2458909 C0.623774024,9.11198854 -0.000509307281,7.60504502 5.32907052e-15,6.00127388 C5.32907052e-15,4.39801236 0.624793262,2.89055923 1.75818602,1.75716647 C2.89157878,0.624283331 4.39852229,8.8817842e-16 6.00178381,8.8817842e-16 C7.60453571,8.8817842e-16 9.11198885,0.624283331 10.2453816,1.75716647 C12.584533,4.09733713 12.5850426,7.90470102 10.2458912,10.2448717 C9.11147923,11.3782644 7.60402609,12.0025478 6.00076457,12.0025478 L6.00076457,12.0025478 Z" id="Fill-1169" fill="#16ABE0"></path>
                        <path d="M4.641,8 L4.998,6.936 L6.685,6.936 L7.049,8 L8.099,8 L6.342,3.072 L5.376,3.072 L3.619,8 L4.641,8 Z M6.377,6.04 L5.306,6.04 L5.845,4.444 L6.377,6.04 Z" id="A" fill="#212129" fill-rule="nonzero"></path>
                    </g>
                </g>
            </g>
        </g>
    </g>
</svg>