<?xml version="1.0" encoding="UTF-8"?>
<svg width="16px" height="16px" viewBox="0 0 16 16" version="1.1" xmlns="http://www.w3.org/2000/svg" xmlns:xlink="http://www.w3.org/1999/xlink">
    <title>E493205E-5047-4875-855C-D19FC0537BFC</title>
    <g id="Style-Guide" stroke="none" stroke-width="1" fill="none" fill-rule="evenodd">
        <g id="Style-Guide---Iconography" transform="translate(-512.000000, -268.000000)" fill="#858585">
            <g id="Icons/Navigation/Overview-Selected-Copy-6" transform="translate(512.000000, 268.000000)">
                <path d="M8.86927918,1.77635684e-14 C9.36032216,1.77635684e-14 9.87347811,0.102799992 10.3944833,0.305445952 C10.9011404,0.50260587 11.4053499,0.790327686 11.8932701,1.16067774 C12.8956122,1.921634 13.7716065,2.98406938 14.4263024,4.23303019 C14.8396124,5.02150107 15.1415135,5.83909016 15.3237345,6.66300931 C15.5007226,7.46371827 15.5580307,8.23775663 15.4938862,8.96377102 C15.4288133,9.7010107 15.241697,10.3532589 14.9377703,10.9023695 C14.6154442,11.4846496 14.176392,11.924377 13.6328519,12.2093136 C13.1923649,12.4402338 12.7031787,12.5572975 12.1787975,12.5572975 C11.6877545,12.5572975 11.1745985,12.4544975 10.6535933,12.2518515 C10.3554058,12.1358006 10.0579779,11.9883527 9.76426367,11.8111957 C8.20074163,11.772287 6.35734704,12.151246 4.91865356,12.4674108 C5.33854679,13.4347266 5.7814814,13.9685608 6.05586792,14.2990737 C6.16432275,14.4298103 6.24998941,14.5330323 6.31193949,14.6326251 C6.34738776,14.6896799 6.45525179,14.8631232 6.40773422,15.070158 C6.33751288,15.3756884 6.03054772,15.6464457 5.76662689,15.7979448 C5.5341031,15.9314667 5.29938489,16 5.08340363,16 C4.9883685,16 4.89696259,15.9867491 4.81095833,15.9599097 C4.67963092,15.918891 4.50720039,15.8120398 4.13845395,15.3123879 C3.94137843,15.0453442 3.7031154,14.6859663 3.4302481,14.2443821 C3.09568392,13.7029519 2.78863436,13.1659106 2.64371844,12.908995 C1.78772705,12.8970101 1.11260625,12.4301901 0.634814173,11.5187475 C0.364394491,11.0028907 0.231969871,10.487456 0.251972825,10.0280632 C0.262185304,9.7924166 0.312066088,9.57516933 0.400264767,9.38239824 C0.479348176,9.20954571 0.587718611,9.05956576 0.72275965,8.9352436 C0.737445364,8.91110502 0.755844705,8.88857004 0.777957676,8.86873589 L0.777957676,8.86873589 L0.891138947,8.76720191 C2.05890634,7.71987424 4.22167299,5.78000971 5.54195236,3.75582892 C5.54532838,3.7014749 5.54937962,3.64737408 5.55410605,3.59352647 C5.61917895,2.85628679 5.80629519,2.20403857 6.11030633,1.65492794 C6.43263242,1.07264786 6.8716846,0.632920473 7.41514038,0.347983879 C7.85571177,0.117063701 8.34489794,1.77635684e-14 8.86927918,1.77635684e-14 Z M4.33156264,12.5969658 C4.09051438,12.6500538 3.86389864,12.6992594 3.6644599,12.7394341 C3.5338077,12.7658515 3.40323989,12.7933661 3.27368489,12.8218091 C3.42754728,13.0910472 3.65458503,13.4814002 3.89900931,13.8790117 C4.6905186,15.1662904 4.95232942,15.3707088 4.99672416,15.3987298 C5.11437867,15.4301268 5.29524926,15.3873357 5.47249062,15.2855485 C5.66889094,15.1727892 5.78688304,15.0336126 5.82190931,14.9636444 C5.78848666,14.9021163 5.68577107,14.7782162 5.60120161,14.676429 C5.29609327,14.3087798 4.79703222,13.7073407 4.33156264,12.5969658 Z M5.55309324,4.77091554 C4.196606,6.59607959 2.34139531,8.2601228 1.28562758,9.20701369 L1.28562758,9.20701369 L1.23253958,9.25470006 C1.21481544,9.28491549 1.19152086,9.31243011 1.16257144,9.33572469 C0.91493993,9.53448822 0.851639443,9.83588294 0.84218657,10.053721 C0.826741251,10.4090477 0.935955692,10.8207541 1.1580982,11.2444454 C1.56347452,12.0178085 2.08380453,12.3578588 2.79530201,12.3148988 L2.79530201,12.3148988 L2.83180529,12.3147828 L2.83180529,12.3147828 C3.07036373,12.2604604 3.30887996,12.2084696 3.5477338,12.1602768 C3.80785661,12.107864 4.118873,12.0390775 4.44811994,11.9661553 C5.72543937,11.6836664 7.39598143,11.3140759 8.94785618,11.2335577 C8.03185593,10.487034 7.23097816,9.48646425 6.62168987,8.3242673 C6.20837989,7.53579643 5.90647877,6.71820733 5.72425776,5.89420379 C5.64002591,5.51296605 5.58297107,5.13780516 5.55309324,4.77091554 Z M8.86927918,0.590804549 C8.44145228,0.590804549 8.04451603,0.685164476 7.68944249,0.871267909 C6.80914372,1.33277066 6.25986429,2.31797945 6.14263178,3.64551727 C6.13647054,3.71540101 6.1315753,3.78587555 6.12786167,3.8567721 L6.12786167,3.8567721 L6.12701766,3.87466503 C6.06177596,5.19317199 6.41946592,6.66596333 7.1449739,8.04996518 C7.75974824,9.22262781 8.57818134,10.2172051 9.51199013,10.9260017 C10.3958337,11.5969869 11.3429778,11.9664929 12.1787975,11.9664929 C12.6066244,11.9664929 13.0035606,11.872133 13.3585497,11.6860296 C14.2388485,11.2246112 14.7882124,10.239318 14.9053605,8.91178022 C15.026813,7.53630283 14.6708111,5.97210559 13.9030183,4.50733231 C13.2883284,3.33466968 12.4698109,2.34017682 11.5360021,1.63129576 C10.6521585,0.960310594 9.70509881,0.590804549 8.86927918,0.590804549 Z M4.8848933,7.08450615 C4.98203845,6.95334754 5.16704467,6.92583293 5.29811888,7.02289368 C5.42919309,7.12003882 5.4567921,7.30504505 5.35964695,7.43611926 C4.49631271,8.60169223 2.73436474,9.73426455 2.65975457,9.78186652 C2.61046459,9.81334796 2.55543536,9.82837128 2.50099694,9.82837128 C2.40351419,9.82837128 2.30814146,9.78017851 2.25176182,9.69197983 C2.16398515,9.55449117 2.20424426,9.37184816 2.34173292,9.28398709 C2.36156707,9.27132699 4.08747596,8.16103644 4.8848933,7.08450615 Z M8.74765784,5.12860549 C9.0272772,5.12860549 9.32841871,5.25605047 9.61850375,5.49701433 C9.88892343,5.72168886 10.1308157,6.02924483 10.3181007,6.38659718 C10.5445477,6.8185597 10.6658314,7.27778364 10.6596702,7.67978393 C10.6564629,7.89255797 10.6178918,8.08161543 10.5450541,8.24172346 C10.4660551,8.41542 10.3459529,8.55231785 10.196395,8.63967253 L10.196395,8.63967253 L9.12653236,9.53828624 C9.07116553,9.584791 9.00381381,9.60757918 8.9367153,9.60757918 C8.85248345,9.60757918 8.76884241,9.5717089 8.71035275,9.50216277 C8.60544275,9.3772498 8.62164767,9.19089317 8.74656063,9.08598316 L8.74656063,9.08598316 L9.29060722,8.62895364 C9.16349984,8.56826958 9.03580166,8.48530374 8.91012909,8.38090013 C8.63979381,8.1562256 8.39790155,7.84866963 8.21053211,7.49140168 C7.98416956,7.05943916 7.86280143,6.60013082 7.86896268,6.19813053 C7.87014429,6.11870951 7.87630553,6.04258013 7.88736202,5.97007997 L7.88736202,5.97007997 L7.15493318,6.18462642 C7.12724977,6.19272888 7.09922875,6.19661131 7.07179854,6.19661131 C6.94393155,6.19661131 6.82619265,6.11305467 6.78838116,5.98417488 C6.7425516,5.82761167 6.83226949,5.66353681 6.9888327,5.61762286 L6.9888327,5.61762286 L8.39342831,5.20608529 C8.50222075,5.15476969 8.62114127,5.12860549 8.74765784,5.12860549 Z M8.74765784,5.71941004 C8.70613272,5.71941004 8.67068445,5.7273437 8.63759939,5.74430823 C8.52973536,5.80119427 8.46322765,5.9741312 8.45968282,6.2071614 C8.45512519,6.50788091 8.55497116,6.87595214 8.73381614,7.21709957 C9.0543698,7.82858228 9.51266533,8.15850442 9.7810594,8.15850442 C9.82317532,8.15850442 9.8590456,8.15040196 9.89069584,8.13385943 C9.99872868,8.07714219 10.0654052,7.90403646 10.06895,7.67075306 C10.0735921,7.37011795 9.97366168,7.00196232 9.79481671,6.66089929 C9.47434744,6.04941658 9.01605191,5.71941004 8.74765784,5.71941004 Z" id="Combined-Shape"></path>
            </g>
        </g>
    </g>
</svg>