<?xml version="1.0" encoding="UTF-8"?>
<svg width="20px" height="20px" viewBox="0 0 20 20" version="1.1" xmlns="http://www.w3.org/2000/svg" xmlns:xlink="http://www.w3.org/1999/xlink">
    <!-- Generator: sketchtool 64 (101010) - https://sketch.com -->
    <title>C07B3B77-95D9-4BE9-9B4A-B98CFB7F6AB4</title>
    <desc>Created with sketchtool.</desc>
    <g id="Style-Guide" stroke="none" stroke-width="1" fill="none" fill-rule="evenodd">
        <g transform="translate(-1189.000000, -2756.000000)" fill="#16ABE0" id="Icon_Group">
            <g transform="translate(35.000000, 2626.000000)">
                <g id="Icons/Notification/None-Copy-30" transform="translate(1152.000000, 128.000000)">
                    <path d="M21.9063158,12.4509276 C21.8536842,12.5940265 21.7757895,12.7304695 21.6663158,12.845836 L13.2957895,21.668044 C12.8747368,22.110652 12.1936842,22.110652 11.7736842,21.668044 C11.3536842,21.2243268 11.3536842,20.5077235 11.7736842,20.0640062 L18.3715789,13.110957 L3.05263158,13.110957 C2.47157895,13.110957 2,12.6139937 2,12.0016639 C2,11.3893341 2.47157895,10.8923708 3.05263158,10.8923708 L18.3736842,10.8923708 L11.7736842,3.93710308 C11.3536842,3.49338584 11.3536842,2.7756732 11.7736842,2.33195596 C12.1936842,1.88934801 12.8747368,1.88934801 13.2957895,2.33195596 L21.6663158,11.154164 C21.7768421,11.2717491 21.8547368,11.4081921 21.9073684,11.5535095 C21.9652632,11.6910619 22,11.8419257 22,12.0016639 C22,12.1625114 21.9642105,12.312266 21.9063158,12.4509276 L21.9063158,12.4509276 Z" id="Right"></path>
                </g>
            </g>
        </g>
    </g>
</svg>