<?xml version="1.0" encoding="UTF-8"?>
<svg width="16px" height="16px" viewBox="0 0 16 16" version="1.1" xmlns="http://www.w3.org/2000/svg" xmlns:xlink="http://www.w3.org/1999/xlink">
    <title>FBAED286-4F97-4ECC-98BD-90CE68385AC1</title>
    <g id="Style-Guide" stroke="none" stroke-width="1" fill="none" fill-rule="evenodd">
        <g id="Style-Guide---Iconography" transform="translate(-314.000000, -268.000000)" fill="#FFFFFF">
            <g id="Icons/Navigation/Overview-Selected-Copy-3" transform="translate(314.000000, 268.000000)">
                <path d="M7.94835814,0 C9.11493534,0 11.331737,3.27816895 11.8962465,7.44522901 C12.1998698,7.64605982 14.2872695,9.13224962 15.5775102,12.7876503 C15.6326555,12.9439847 15.5730486,13.11763 15.4334899,13.2070404 C15.3744183,13.2448747 15.3074944,13.263435 15.2411058,13.263435 C15.1506246,13.263435 15.0608573,13.2291699 14.9923272,13.1626029 C14.981727,13.1523447 13.8928834,12.1232995 11.8729826,11.6468137 C11.713227,12.5837012 11.4260738,13.2280677 10.9950934,13.6514154 C10.7461082,13.8959694 10.4677857,14.0500913 10.1681907,14.1463898 L10.1675564,15.6430723 C10.1675564,15.8400964 10.0078312,16 9.81062864,16 L6.08644456,16 C5.88924198,16 5.72951681,15.8400964 5.72951681,15.6430723 L5.72897307,14.1465852 C5.42919898,14.0502726 5.15072814,13.8960874 4.90162291,13.6514154 C4.47435911,13.2317186 4.18845265,12.5947985 4.02744587,11.6729625 C2.06963094,12.1565967 1.01596429,13.1525428 1.00486426,13.1631383 C0.936334133,13.2289915 0.846923733,13.2628996 0.756977941,13.2628996 C0.690053989,13.2628996 0.623130037,13.2443393 0.563880031,13.2063265 C0.424856675,13.1167377 0.365249741,12.9436277 0.420395078,12.7876503 C1.60384989,9.43434774 3.45814708,7.90666029 3.99138064,7.52171197 C4.53772449,3.31853785 6.77462002,0 7.94835814,0 Z M8.87280099,14.3004885 C8.72414059,14.3004885 8.57369554,14.2979901 8.42182279,14.2951346 C8.26691615,14.2924577 8.10879716,14.2896022 7.94835814,14.2896022 C7.78791911,14.2896022 7.62997859,14.2924577 7.47507195,14.2951346 C7.32319919,14.2979901 7.17257568,14.3004888 7.02409374,14.3004888 C6.82639914,14.3005329 6.63222117,14.2957935 6.44311329,14.2799866 L6.4433723,15.2861445 L9.4537009,15.2861445 L9.45367906,14.2799114 C9.26459619,14.2957269 9.07045145,14.3004885 8.87280099,14.3004885 Z M7.94835814,0.713855489 C7.26698307,0.713855489 4.58092333,4.51085283 4.58092333,9.39790751 C4.58092333,11.3747518 4.84951146,12.5995494 5.40185714,13.1420796 C5.6733741,13.4088134 6.01714163,13.5193816 6.42673975,13.5622078 L9.46920504,13.5622078 C9.87890684,13.5193816 10.2232404,13.4088134 10.4948591,13.1420796 C11.0472048,12.5995494 11.3157929,11.3747518 11.3157929,9.39790751 C11.3157929,4.61483272 8.7429886,0.875923306 7.99453842,0.718986045 L7.94835814,0.713855489 Z M3.89338918,8.53551717 L3.8072194,8.61564536 C3.19738042,9.20122307 2.29864926,10.254021 1.54525286,11.9040757 C2.11403798,11.5717718 2.91286746,11.2017389 3.93308661,10.9584163 C3.88858136,10.4980591 3.86706784,9.97923082 3.86706784,9.39790751 C3.86706784,9.10791019 3.87610272,8.82021591 3.89338918,8.53551717 Z M11.9966073,8.43595289 L12.0009762,8.49761946 C12.0197936,8.79467749 12.0296484,9.09503647 12.0296484,9.39790751 C12.0296484,9.96999681 12.0088129,10.4815607 11.9658527,10.9379023 L11.7435708,10.8877239 C12.918577,11.1254378 13.8255304,11.5378678 14.452474,11.9042541 C13.6146354,10.0688821 12.5967734,8.9724388 11.9966073,8.43595289 Z M7.86694653,5 C8.89612702,5 9.732582,5.83658608 9.732582,6.86550437 C9.732582,7.89442265 8.89612702,8.73245089 7.86694653,8.73245089 C6.83776603,8.73245089 6,7.89442265 6,6.86550437 C6,5.83658608 6.83776603,5 7.86694653,5 Z M7.88505303,5.80787987 C7.29014672,5.80787987 6.80787987,6.29014672 6.80787987,6.88505303 C6.80787987,7.47995934 7.29014672,7.9622262 7.88505303,7.9622262 C8.47995934,7.9622262 8.9622262,7.47995934 8.9622262,6.88505303 C8.9622262,6.29014672 8.47995934,5.80787987 7.88505303,5.80787987 Z" id="Combined-Shape"></path>
            </g>
        </g>
    </g>
</svg>