<?xml version="1.0" encoding="UTF-8"?>
<svg width="26px" height="26px" viewBox="0 0 26 26" version="1.1" xmlns="http://www.w3.org/2000/svg" xmlns:xlink="http://www.w3.org/1999/xlink">
    <!-- Generator: sketchtool 64 (101010) - https://sketch.com -->
    <title>A8B881A4-8435-4B66-A602-E5C4ED2571D0</title>
    <desc>Created with sketchtool.</desc>
    <g id="Style-Guide" stroke="none" stroke-width="1" fill="none" fill-rule="evenodd">
        <g transform="translate(-802.000000, -2753.000000)" fill="#858585" id="Icon_Group" stroke="#858585">
            <g transform="translate(35.000000, 2626.000000)">
                <g id="Icon-BrandCompare" transform="translate(768.000000, 128.000000)">
                    <g id="Icon-Brand-Copy" stroke-width="0.6">
                        <path d="M11.2669216,0.11375 C12.1390941,0.11375 12.8483333,0.822989216 12.8483333,1.69516176 L12.8483333,1.69516176 L12.8483333,5.28927941 C12.8483333,5.91561431 12.5013812,6.75424176 12.0585859,7.19655784 L12.0585859,7.19655784 L6.87395137,12.3807131 C6.5754,12.6792645 6.1781302,12.8445939 5.75594118,12.8445939 C5.33375216,12.8445939 4.93648235,12.6797437 4.63793098,12.3811924 L4.63793098,12.3811924 L0.581370196,8.32463157 C-0.0349011765,7.70788098 -0.0349011765,6.70488255 0.581370196,6.08813196 L0.581370196,6.08813196 L5.76552549,0.903497451 C6.20832078,0.460702157 7.04646902,0.11375 7.67280392,0.11375 L7.67280392,0.11375 Z M11.2669216,0.880495098 L7.67280392,0.880495098 C7.24678118,0.880495098 6.6089451,1.14454294 6.30799765,1.44596961 L6.30799765,1.44596961 L1.12336314,6.6301249 C0.805643137,6.9478449 0.805643137,7.46443941 1.12336314,7.7816802 L1.12336314,7.7816802 L5.17992392,11.838241 C5.48758039,12.1463767 6.02430196,12.1463767 6.33147922,11.838241 L6.33147922,11.838241 L11.5156345,6.65408569 C11.8170612,6.35313824 12.0815882,5.71530216 12.0815882,5.28927941 L12.0815882,5.28927941 L12.0815882,1.69516176 C12.0815882,1.24565745 11.7164259,0.880495098 11.2669216,0.880495098 L11.2669216,0.880495098 Z M9.58966667,1.7910049 C10.4618392,1.7910049 11.1710784,2.50024412 11.1710784,3.37241667 C11.1710784,4.24458922 10.4623184,4.95382843 9.58966667,4.95382843 C8.7170149,4.95382843 8.0082549,4.24458922 8.0082549,3.37241667 C8.0082549,2.50024412 8.71749412,1.7910049 9.58966667,1.7910049 Z M9.58966667,2.55775 C9.14064157,2.55775 8.775,2.92339157 8.775,3.37241667 C8.775,3.82144176 9.14016235,4.18708333 9.58966667,4.18708333 C10.039171,4.18708333 10.4043333,3.82144176 10.4043333,3.37241667 C10.4043333,2.92339157 10.0386918,2.55775 9.58966667,2.55775 Z" id="BrandTag"></path>
                    </g>
                    <g id="Icon-Brand-Copy-2" transform="translate(17.500000, 17.500000) scale(-1, -1) translate(-17.500000, -17.500000) translate(11.000000, 11.000000)" stroke-width="0.6">
                        <path d="M11.2669216,0.11375 C12.1390941,0.11375 12.8483333,0.822989216 12.8483333,1.69516176 L12.8483333,1.69516176 L12.8483333,5.28927941 C12.8483333,5.91561431 12.5013812,6.75424176 12.0585859,7.19655784 L12.0585859,7.19655784 L6.87395137,12.3807131 C6.5754,12.6792645 6.1781302,12.8445939 5.75594118,12.8445939 C5.33375216,12.8445939 4.93648235,12.6797437 4.63793098,12.3811924 L4.63793098,12.3811924 L0.581370196,8.32463157 C-0.0349011765,7.70788098 -0.0349011765,6.70488255 0.581370196,6.08813196 L0.581370196,6.08813196 L5.76552549,0.903497451 C6.20832078,0.460702157 7.04646902,0.11375 7.67280392,0.11375 L7.67280392,0.11375 Z M11.2669216,0.880495098 L7.67280392,0.880495098 C7.24678118,0.880495098 6.6089451,1.14454294 6.30799765,1.44596961 L6.30799765,1.44596961 L1.12336314,6.6301249 C0.805643137,6.9478449 0.805643137,7.46443941 1.12336314,7.7816802 L1.12336314,7.7816802 L5.17992392,11.838241 C5.48758039,12.1463767 6.02430196,12.1463767 6.33147922,11.838241 L6.33147922,11.838241 L11.5156345,6.65408569 C11.8170612,6.35313824 12.0815882,5.71530216 12.0815882,5.28927941 L12.0815882,5.28927941 L12.0815882,1.69516176 C12.0815882,1.24565745 11.7164259,0.880495098 11.2669216,0.880495098 L11.2669216,0.880495098 Z M9.58966667,1.7910049 C10.4618392,1.7910049 11.1710784,2.50024412 11.1710784,3.37241667 C11.1710784,4.24458922 10.4623184,4.95382843 9.58966667,4.95382843 C8.7170149,4.95382843 8.0082549,4.24458922 8.0082549,3.37241667 C8.0082549,2.50024412 8.71749412,1.7910049 9.58966667,1.7910049 Z M9.58966667,2.55775 C9.14064157,2.55775 8.775,2.92339157 8.775,3.37241667 C8.775,3.82144176 9.14016235,4.18708333 9.58966667,4.18708333 C10.039171,4.18708333 10.4043333,3.82144176 10.4043333,3.37241667 C10.4043333,2.92339157 10.0386918,2.55775 9.58966667,2.55775 Z" id="BrandTag"></path>
                    </g>
                    <path d="M7.80128644,21.6467377 L5.49169506,19.2509968 L5.49169506,21.0078735 C3.07945517,20.9013961 1.15479569,18.8517067 1.15479569,16.322869 C1.15479569,14.1842317 1.15479569,12.5825582 1.15479569,11.5178485 C1.15479569,11.4756613 -5.46229728e-14,11.5178485 -5.46229728e-14,11.5459427 C-5.46229728e-14,12.6060346 -5.46229728e-14,14.2072165 -5.46229728e-14,16.3494884 C-5.46229728e-14,19.5438096 2.43790201,22.1258859 5.49169506,22.2323633 L5.49169506,24.0424786 L7.80128644,21.6467377 Z" id="Arrow" stroke-width="0.2"></path>
                    <path d="M24,9.42 L24,13.47 L22.6721311,13.47 L22.6721311,9.42 L24,9.42 Z M22.2,4.02 L22.6131148,4.56 C23.2032787,5.34 23.6459016,6.27 23.852459,7.26 L23.852459,7.26 L24,7.95 L22.7016393,8.22 L22.5540984,7.56 C22.4065574,6.78 22.052459,6.03 21.5803279,5.4 L21.5803279,5.4 L21.1672131,4.86 L22.2,4.02 Z M17.6852459,2.22044605e-15 L17.6852459,2.04 C18.6,2.07 19.5147541,2.28 20.3409836,2.7 L20.3409836,2.7 L20.9311475,3.06 L20.3409836,4.26 L19.7508197,3.96 C19.1016393,3.63 18.3934426,3.45 17.6852459,3.42 L17.6852459,3.42 L17.6852459,5.4 L15.0295082,2.7 L17.6852459,2.22044605e-15 Z" id="Arrow" stroke-width="0.2"></path>
                </g>
            </g>
        </g>
    </g>
</svg>