<?xml version="1.0" encoding="UTF-8"?>
<svg width="25px" height="24px" viewBox="0 0 25 24" version="1.1" xmlns="http://www.w3.org/2000/svg" xmlns:xlink="http://www.w3.org/1999/xlink">
    <!-- Generator: sketchtool 62 (101010) - https://sketch.com -->
    <title>70E04BF4-4830-4E96-A76E-A2F9BED0F2D3</title>
    <desc>Created with sketchtool.</desc>
    <g id="Asset-Artboard-Page" stroke="none" stroke-width="1" fill="none" fill-rule="evenodd">
        <g id="Icons/Notification/None-Copy-4-Icons/Navigation/Brand" transform="translate(0.666667, 0.000000)" fill="#858585" stroke="#858585" stroke-width="0.4">
            <path d="M20.8004706,0.21 C22.4106353,0.21 23.72,1.51936471 23.72,3.12952941 L23.72,3.12952941 L23.72,9.76482353 C23.72,10.9211341 23.0794729,12.4693694 22.2620047,13.2859529 L22.2620047,13.2859529 L12.6903718,22.8567012 C12.1392,23.4078729 11.4057788,23.7130965 10.6263529,23.7130965 C9.84692706,23.7130965 9.11350588,23.4087576 8.56233412,22.8575859 L8.56233412,22.8575859 L1.07329882,15.3685506 C-0.0644329412,14.2299341 -0.0644329412,12.3782447 1.07329882,11.2396282 L1.07329882,11.2396282 L10.6440471,1.66799529 C11.4615153,0.850527059 13.0088659,0.21 14.1651765,0.21 L14.1651765,0.21 Z M20.8004706,1.62552941 L14.1651765,1.62552941 C13.3786729,1.62552941 12.2011294,2.11300235 11.6455341,2.66948235 L11.6455341,2.66948235 L2.07390118,12.2402306 C1.48734118,12.8267906 1.48734118,13.7805035 2.07390118,14.3661788 L2.07390118,14.3661788 L9.56293647,21.8552141 C10.1309176,22.42408 11.1217882,22.42408 11.6888847,21.8552141 L11.6888847,21.8552141 L21.2596329,12.2844659 C21.8161129,11.7288706 22.3044706,10.5513271 22.3044706,9.76482353 L22.3044706,9.76482353 L22.3044706,3.12952941 C22.3044706,2.29967529 21.6303247,1.62552941 20.8004706,1.62552941 L20.8004706,1.62552941 Z M17.704,3.30647059 C19.3141647,3.30647059 20.6235294,4.61583529 20.6235294,6.226 C20.6235294,7.83616471 19.3150494,9.14552941 17.704,9.14552941 C16.0929506,9.14552941 14.7844706,7.83616471 14.7844706,6.226 C14.7844706,4.61583529 16.0938353,3.30647059 17.704,3.30647059 Z M17.704,4.722 C16.8750306,4.722 16.2,5.39703059 16.2,6.226 C16.2,7.05496941 16.8741459,7.73 17.704,7.73 C18.5338541,7.73 19.208,7.05496941 19.208,6.226 C19.208,5.39703059 18.5329694,4.722 17.704,4.722 Z" id="BrandTag"></path>
        </g>
    </g>
</svg>