<?xml version="1.0" encoding="UTF-8"?>
<svg width="25px" height="24px" viewBox="0 0 25 24" version="1.1" xmlns="http://www.w3.org/2000/svg" xmlns:xlink="http://www.w3.org/1999/xlink">
    <!-- Generator: sketchtool 62 (101010) - https://sketch.com -->
    <title>A36CA65D-39E1-42FA-8AC4-2FA6DEAC852F</title>
    <desc>Created with sketchtool.</desc>
    <g id="Asset-Artboard-Page" stroke="none" stroke-width="1" fill="none" fill-rule="evenodd">
        <g id="Brand-Icons/Navigation/Brand" transform="translate(0.333333, 0.000000)" fill="#16ABE0">
            <g id="BrandTag" transform="translate(1.000000, 1.000000)">
                <path d="M19.1481481,0.162962963 C20.6311111,0.162962963 21.837037,1.36888889 21.837037,2.85185185 L21.837037,2.85185185 L21.837037,8.96296296 C21.837037,10.0279259 21.2471111,11.4538519 20.4942222,12.2059259 L20.4942222,12.2059259 L11.6787407,21.0205926 C11.1711111,21.5282222 10.4956296,21.8093333 9.77777778,21.8093333 C9.05992593,21.8093333 8.38444444,21.529037 7.87681481,21.0214074 L7.87681481,21.0214074 L0.979407407,14.124 C-0.0684444444,13.0753333 -0.0684444444,11.3699259 0.979407407,10.3212593 L0.979407407,10.3212593 L9.79407407,1.50577778 C10.546963,0.752888889 11.9720741,0.162962963 13.037037,0.162962963 L13.037037,0.162962963 Z M19.1481481,1.46666667 L13.037037,1.46666667 C12.3126667,1.46666667 11.2281481,1.91562963 10.7164444,2.42814815 L10.7164444,2.42814815 L1.90096296,11.2428148 C1.36074074,11.783037 1.36074074,12.6614074 1.90096296,13.2008148 L1.90096296,13.2008148 L8.79837037,20.0982222 C9.32148148,20.6221481 10.2340741,20.6221481 10.7563704,20.0982222 L10.7563704,20.0982222 L19.571037,11.2835556 C20.0835556,10.7718519 20.5333333,9.68733333 20.5333333,8.96296296 L20.5333333,8.96296296 L20.5333333,2.85185185 C20.5333333,2.08755556 19.9124444,1.46666667 19.1481481,1.46666667 L19.1481481,1.46666667 Z M16.2962963,3.01481481 C17.7792593,3.01481481 18.9851852,4.22074074 18.9851852,5.7037037 C18.9851852,7.18666667 17.7800741,8.39259259 16.2962963,8.39259259 C14.8125185,8.39259259 13.6074074,7.18666667 13.6074074,5.7037037 C13.6074074,4.22074074 14.8133333,3.01481481 16.2962963,3.01481481 Z M16.2962963,4.31851852 C15.5328148,4.31851852 14.9111111,4.94022222 14.9111111,5.7037037 C14.9111111,6.46718519 15.532,7.08888889 16.2962963,7.08888889 C17.0605926,7.08888889 17.6814815,6.46718519 17.6814815,5.7037037 C17.6814815,4.94022222 17.0597778,4.31851852 16.2962963,4.31851852 Z" id="Combined-Shape"></path>
            </g>
        </g>
    </g>
</svg>