<?xml version="1.0" encoding="UTF-8"?>
<svg width="16px" height="16px" viewBox="0 0 16 16" version="1.1" xmlns="http://www.w3.org/2000/svg" xmlns:xlink="http://www.w3.org/1999/xlink">
    <!-- Generator: sketchtool 62 (101010) - https://sketch.com -->
    <title>1960ECCE-3E8C-4288-A574-B8055442F5C3</title>
    <desc>Created with sketchtool.</desc>
    <g id="Asset-Artboard-Page" stroke="none" stroke-width="1" fill="none" fill-rule="evenodd">
        <g id="Icons/General/Calender-Copy-Icons/General/Calender" fill="#FFBF7A">
            <path d="M1.79999999,13.3326666 L14.1519999,13.3326666 L14.1519999,3.77800004 L1.79999999,3.77800004 L1.79999999,13.3326666 Z M14.8186666,14.6660005 L1.13333332,14.6660005 C0.764666657,14.6660005 0.466666659,14.3673338 0.466666659,13.9993338 L0.466666659,3.1113334 C0.466666659,2.74333338 0.764666657,2.4446667 1.13333332,2.4446667 L14.8186666,2.4446667 C15.1873332,2.4446667 15.4853332,2.74333338 15.4853332,3.1113334 L15.4853332,13.9993338 C15.4853332,14.3673338 15.1873332,14.6660005 14.8186666,14.6660005 L14.8186666,14.6660005 Z" id="Fill-2686"></path>
            <path d="M12.2266668,4.88866679 C11.8580001,4.88866679 11.5600001,4.59000011 11.5600001,4.2220001 L11.5600001,2.00000002 C11.5600001,1.63200001 11.8580001,1.33333333 12.2266668,1.33333333 C12.5946668,1.33333333 12.8933334,1.63200001 12.8933334,2.00000002 L12.8933334,4.2220001 C12.8933334,4.59000011 12.5946668,4.88866679 12.2266668,4.88866679" id="Fill-2687"></path>
            <path d="M3.72666677,4.88866679 C3.3580001,4.88866679 3.0600001,4.59000011 3.0600001,4.2220001 L3.0600001,2.00000002 C3.0600001,1.63200001 3.3580001,1.33333333 3.72666677,1.33333333 C4.09466677,1.33333333 4.39333344,1.63200001 4.39333344,2.00000002 L4.39333344,4.2220001 C4.39333344,4.59000011 4.09466677,4.88866679 3.72666677,4.88866679" id="Fill-2688"></path>
            <path d="M14.7540001,7.33333333 L1.19866665,7.33333333 C1.01399999,7.33333333 0.865333319,7.036 0.865333319,6.66666667 C0.865333319,6.29866667 1.01399999,6 1.19866665,6 L14.7540001,6 C14.9380001,6 15.0873334,6.29866667 15.0873334,6.66666667 C15.0873334,7.036 14.9380001,7.33333333 14.7540001,7.33333333" id="Fill-2689"></path>
        </g>
    </g>
</svg>