<?xml version="1.0" encoding="UTF-8"?>
<svg width="25px" height="24px" viewBox="0 0 25 24" version="1.1" xmlns="http://www.w3.org/2000/svg" xmlns:xlink="http://www.w3.org/1999/xlink">
    <!-- Generator: sketchtool 62 (101010) - https://sketch.com -->
    <title>705AB0E8-073B-4B0C-9DF9-AFEBB4F77CB9</title>
    <desc>Created with sketchtool.</desc>
    <g id="Asset-Artboard-Page" stroke="none" stroke-width="1" fill="none" fill-rule="evenodd">
         <g id="Icons/General/Calender-Blue" transform="translate(0.666667, 0.000000)" fill="#16ABE0">
                    <path d="M2.7,19.999 L21.228,19.999 L21.228,5.667 L2.7,5.667 L2.7,19.999 Z M22.228,21.999 L1.7,21.999 C1.147,21.999 0.7,21.551 0.7,20.999 L0.7,4.667 C0.7,4.115 1.147,3.667 1.7,3.667 L22.228,3.667 C22.781,3.667 23.228,4.115 23.228,4.667 L23.228,20.999 C23.228,21.551 22.781,21.999 22.228,21.999 L22.228,21.999 Z" id="Fill-2686"></path>
                    <path d="M18.34,7.333 C17.787,7.333 17.34,6.885 17.34,6.333 L17.34,3 C17.34,2.448 17.787,2 18.34,2 C18.892,2 19.34,2.448 19.34,3 L19.34,6.333 C19.34,6.885 18.892,7.333 18.34,7.333" id="Fill-2687"></path>
                    <path d="M5.59,7.333 C5.037,7.333 4.59,6.885 4.59,6.333 L4.59,3 C4.59,2.448 5.037,2 5.59,2 C6.142,2 6.59,2.448 6.59,3 L6.59,6.333 C6.59,6.885 6.142,7.333 5.59,7.333" id="Fill-2688"></path>
                    <path d="M22.131,11 L1.798,11 C1.521,11 1.298,10.554 1.298,10 C1.298,9.448 1.521,9 1.798,9 L22.131,9 C22.407,9 22.631,9.448 22.631,10 C22.631,10.554 22.407,11 22.131,11" id="Fill-2689"></path>
        </g>
    </g>
</svg>