<?xml version="1.0" encoding="UTF-8"?>
<svg width="18px" height="18px" viewBox="0 0 18 18" version="1.1" xmlns="http://www.w3.org/2000/svg" xmlns:xlink="http://www.w3.org/1999/xlink">
    <title>C7771730-5FFA-4534-AB7B-F6FC09BB931E</title>
    <g id="Consideration---Content" stroke="none" stroke-width="1" fill="none" fill-rule="evenodd">
        <g id="Consideration---Content---Catalogue-Health-Good" transform="translate(-1079.000000, -111.000000)" fill="#858585">
            <g id="Group-2" transform="translate(290.000000, 96.000000)">
                <g id="DatePicker/Default" transform="translate(789.000000, 14.000000)">
                    <g id="Icons/General/Calender" transform="translate(0.000000, 1.000000)">
                        <path d="M12.4324036,4.4408921e-16 C12.6631306,4.4408921e-16 12.8444161,0.182933529 12.8444161,0.410364402 L12.84425,1.479 L15.2505688,1.47994873 C16.3547622,1.47994873 17.2611896,2.38143197 17.2611896,3.49221754 L17.2611896,15.9877312 C17.2611896,17.0968687 16.3547622,18 15.2505688,18 L2.75835126,18 C1.63767739,18 0.73125,17.0968687 0.73125,15.9877312 L0.73125,3.49221754 C0.73125,2.38143197 1.63767739,1.47994873 2.75835126,1.47994873 L5.09825,1.479 L5.09858199,0.410364402 C5.09858199,0.182933529 5.27986747,4.4408921e-16 5.51059444,4.4408921e-16 C5.72484092,4.4408921e-16 5.92260689,0.182933529 5.92260689,0.410364402 L5.92225,1.479 L12.02025,1.479 L12.0203912,0.410364402 C12.0203912,0.182933529 12.2016767,4.4408921e-16 12.4324036,4.4408921e-16 Z M16.43625,6.124 L1.55525,6.124 L1.5552749,15.9877312 C1.5552749,16.643655 2.09913134,17.1776231 2.75835126,17.1776231 L15.2505688,17.1776231 C15.9097887,17.1776231 16.4371647,16.643655 16.4371647,15.9877312 L16.43625,6.124 Z M5.09825,2.302 L2.75835126,2.30232558 C2.09913134,2.30232558 1.5552749,2.83464567 1.5552749,3.49221754 L1.55525,5.303 L16.43625,5.303 L16.4371647,3.49221754 C16.4371647,2.83464567 15.9097887,2.30232558 15.2505688,2.30232558 L12.84425,2.302 L12.8444161,3.20545688 C12.8444161,3.43288775 12.6631306,3.61582128 12.4324036,3.61582128 C12.2016767,3.61582128 12.0203912,3.43288775 12.0203912,3.20545688 L12.02025,2.302 L5.92225,2.302 L5.92260689,3.20545688 C5.92260689,3.43288775 5.72484092,3.61582128 5.51059444,3.61582128 C5.27986747,3.61582128 5.09858199,3.43288775 5.09858199,3.20545688 L5.09825,2.302 Z" id="Combined-Shape"></path>
                    </g>
                </g>
            </g>
        </g>
    </g>
</svg>