<?xml version="1.0" encoding="UTF-8"?>
<svg width="24px" height="18px" viewBox="0 0 24 18" version="1.1" xmlns="http://www.w3.org/2000/svg" xmlns:xlink="http://www.w3.org/1999/xlink">
    <!-- Generator: sketchtool 62 (101010) - https://sketch.com -->
    <title>05B66270-240C-4E3A-960D-73A347FE3380</title>
    <desc>Created with sketchtool.</desc>
    <g id="Filters" stroke="none" stroke-width="1" fill="none" fill-rule="evenodd">
        <g id="Filters---Brand" transform="translate(-1376.000000, -332.000000)" fill="#16ABE0">
            <g id="Component/Navigation/Left-Bar" transform="translate(1342.000000, 80.000000)">
                <g id="Category" transform="translate(34.000000, 249.000000)">
                    <path d="M0,10.4573527 L7.11583208,10.4573527 L7.11583208,7.58563468 L11.1227737,7.55463164 L11.1227737,13.5426473 L8.04307592,13.5426473 L8.04307592,20.5 L15.158908,20.5 L15.158908,13.5426473 L12.3810772,13.5426473 L12.3810772,7.54491243 L19.8156376,7.48733536 L19.8155117,13.5427703 L16.8842938,13.5427703 L16.8842938,20.5 L24,20.5 L24,13.5427703 L21.068782,13.5427703 L21.0689078,6.25225792 L7.11583208,6.36027645 L7.11583208,3.5 L0,3.5 L0,10.4573527 Z M18.1425972,19.2697207 L18.1425972,14.7730496 L22.7416965,14.7730496 L22.7416965,19.2697207 L18.1425972,19.2697207 Z M9.30137942,19.2697207 L9.30137942,14.7729266 L13.9006045,14.7729266 L13.9006045,19.2697207 L9.30137942,19.2697207 Z M1.25830349,9.22707338 L1.25830349,4.73027935 L5.85752859,4.73027935 L5.85752859,9.22707338 L1.25830349,9.22707338 Z"></path>
                </g>
            </g>
        </g>
    </g>
</svg>