<?xml version="1.0" encoding="UTF-8"?>
<svg width="246px" height="221px" viewBox="0 0 246 221" version="1.1" xmlns="http://www.w3.org/2000/svg" xmlns:xlink="http://www.w3.org/1999/xlink">
    <!-- Generator: sketchtool 61.2 (101010) - https://sketch.com -->
    <title>203EEAD6-1984-4801-8EA3-30B648B54F70</title>
    <desc>Created with sketchtool.</desc>
    <defs>
        <polygon id="path-1" points="0.000179309149 0.763016835 88.676 0.763016835 88.676 88.9997277 0.000179309149 88.9997277"></polygon>
    </defs>
    <g id="Login" stroke="none" stroke-width="1" fill="none" fill-rule="evenodd">
        <g id="Sign-In-New" transform="translate(-854.000000, -152.000000)">
            <g id="Text" transform="translate(854.000000, 151.000000)">
                <g id="CommerceIntelligence-Logo">
                    <g id="Group-2" transform="translate(1.000000, 0.000000)">
                        <g id="Group-10">
                            <g id="Group-3" transform="translate(0.000000, 0.236800)">
                                <mask id="mask-2" fill="white">
                                    <use xlink:href="#path-1"></use>
                                </mask>
                                <g id="Clip-2"></g>
                                <path d="M88.6721,44.9848 C88.5551,53.5628 85.9921,62.1488 81.2001,69.3238 C67.6161,89.6628 39.5791,95.3218 19.4491,81.1538 C5.9081,71.6238 -2.3269,54.1598 0.5841,37.5388 C2.5841,26.1128 9.1281,15.3488 18.5011,8.4878 C38.7891,-6.3602 69.2991,1.2998 82.3781,22.0518 C82.6791,22.5308 82.9711,23.0148 83.2541,23.5048 C87.0161,30.0328 88.7741,37.5058 88.6721,44.9848" id="Fill-1" fill="#222323" mask="url(#mask-2)"></path>
                            </g>
                            <path d="M66.7507,71.3371 C66.5787,70.9711 66.3637,70.6161 66.1047,70.2931 C65.8467,69.9601 65.5777,69.6691 65.3087,69.4431 C65.0077,69.1961 64.8787,69.1961 64.8677,69.1961 C64.8357,69.1961 64.6957,69.2071 64.3517,69.3791 C63.5557,69.8201 62.7377,70.3471 61.9517,70.8631 C61.1347,71.3911 60.2947,71.9391 59.4127,72.4341 C57.8097,73.3271 56.1527,74.0811 54.5067,74.6721 C48.5247,76.8351 41.9727,77.0071 36.1627,75.3611 C33.5587,74.6291 31.0837,73.5861 28.7817,72.2411 C26.4787,70.8961 24.3487,69.2711 22.4547,67.3881 C20.5617,65.5051 18.9047,63.3861 17.5267,61.0831 C16.1607,58.7921 15.0847,56.2851 14.3317,53.6601 C13.5787,51.0241 13.2017,48.2261 13.2017,45.3641 C13.2017,42.5451 13.5677,39.7911 14.3107,37.1551 C15.0417,34.5291 16.0967,32.0231 17.4517,29.7091 C18.8177,27.3961 20.4647,25.2441 22.3577,23.3401 C24.2517,21.4251 26.4037,19.7571 28.7597,18.3801 C31.1047,17.0141 33.6557,15.9381 36.3447,15.1841 C39.0457,14.4421 41.8967,14.0551 44.8337,14.0551 C48.4167,14.0551 51.8277,14.6681 54.9697,15.8621 C58.1107,17.0571 61.0917,18.7351 63.8237,20.8331 C64.0397,20.9841 64.1687,21.0271 64.2227,21.0481 C64.3727,21.0911 64.4377,21.1021 64.4487,21.1021 L64.5877,21.1021 C64.6637,21.1021 64.7817,21.0801 64.9857,20.8981 C65.2227,20.6931 65.4487,20.4671 65.6747,20.2201 C65.8897,19.9721 66.0727,19.7351 66.2237,19.5211 C66.4067,19.2411 66.5357,19.0691 66.6107,18.9931 C67.0417,18.4231 66.9877,17.9931 66.3417,17.4121 C66.0407,17.1431 65.6747,16.8841 65.3087,16.6371 L65.0397,16.4541 C64.1147,15.8191 63.1567,15.2171 62.1777,14.6581 C60.2737,13.5601 58.2507,12.6131 56.1747,11.8381 C52.5377,10.4831 48.5887,9.7941 44.4577,9.7941 C41.2187,9.7941 38.0447,10.2241 35.0327,11.0751 C32.0197,11.9251 29.1687,13.1291 26.5547,14.6581 C23.9507,16.1851 21.5407,18.0571 19.3887,20.2201 C17.2477,22.3821 15.3757,24.8031 13.8477,27.4181 C12.3197,30.0211 11.1257,32.8731 10.2867,35.8641 C9.4577,38.8551 9.0277,42.0181 9.0277,45.2671 C9.0277,50.1411 9.9637,54.7891 11.8037,59.0611 C13.6327,63.3431 16.1827,67.1411 19.3667,70.3371 C22.5417,73.5321 26.3287,76.0821 30.6107,77.9211 C34.8817,79.7611 39.5297,80.6871 44.4147,80.6871 C48.6427,80.6871 52.6237,80.0301 56.2497,78.7181 C59.8867,77.4051 63.2757,75.5331 66.3417,73.1441 C66.5357,72.9721 66.7187,72.7891 66.8577,72.6071 C66.9437,72.4991 66.9767,72.3701 66.9767,72.1981 C66.9767,71.9611 66.9007,71.6811 66.7507,71.3371" id="Fill-4" fill="#F8F8F8"></path>
                            <path d="M75.2072,25.8578 C75.2072,26.8578 74.8632,27.6868 74.1532,28.3858 C73.4542,29.0968 72.6252,29.4298 71.6352,29.4298 C70.6352,29.4298 69.8062,29.0968 69.1072,28.3858 C68.3962,27.6868 68.0522,26.8578 68.0522,25.8578 C68.0522,24.8678 68.3962,24.0388 69.1072,23.3288 C69.8062,22.6298 70.6352,22.2858 71.6352,22.2858 C72.6252,22.2858 73.4542,22.6298 74.1532,23.3288 C74.8632,24.0388 75.2072,24.8678 75.2072,25.8578" id="Fill-6" fill="#F8F8F8"></path>
                            <path d="M79.511,40.415 C79.22,38.349 78.812,35.917 77.94,33.604 C77.585,32.658 77.359,32.238 76.735,32.184 C76.1,32.141 75.38,32.432 74.702,32.776 L74.487,32.884 C73.679,33.282 73.518,33.411 73.626,33.927 L73.755,34.476 C73.916,34.885 74.078,35.369 74.228,35.853 C74.336,36.197 74.444,36.509 74.53,36.821 C74.799,37.79 75.025,38.747 75.186,39.683 L75.229,39.716 L75.24,39.985 C75.509,41.566 75.659,43.32 75.659,45.117 C75.659,47.914 75.283,50.679 74.551,53.326 C73.906,55.607 73.034,57.78 71.958,59.771 C71.775,60.104 71.593,60.438 71.399,60.771 C70.742,61.901 70.032,62.945 69.311,63.892 C69.182,64.064 69.042,64.225 68.903,64.397 C68.558,64.806 68.236,65.193 68.063,65.635 C67.967,65.904 68.01,66.108 68.526,66.56 C68.666,66.678 68.806,66.818 68.956,66.947 C69.43,67.399 69.978,67.905 70.506,68.055 C71.054,68.217 71.56,67.851 71.883,67.518 C72.195,67.141 72.518,66.743 72.83,66.345 L72.948,66.194 C73.11,65.99 73.271,65.774 73.41,65.57 C73.97,64.763 74.508,63.935 75.014,63.074 C75.412,62.385 75.724,61.804 76.004,61.245 C77.058,59.179 77.919,56.952 78.564,54.628 C79.404,51.637 79.823,48.474 79.823,45.224 C79.823,43.546 79.716,41.932 79.511,40.415" id="Fill-8" fill="#F8F8F8"></path>
                        </g>
                    </g>
                    <g id="Group-32" transform="translate(0.000000, 127.000000)" fill="#FFFFFF">
                        <path d="M0,17.6943902 L0,17.3544516 C0,7.04884175 6.40203944,0 15.1824248,0 C19.9371673,0 23.0875009,1.70164666 25.8537902,4.22969579 L22.4597736,8.55512141 C20.4693709,6.70890315 18.2372348,5.24951158 15.1824248,5.24951158 C9.84674215,5.24951158 5.81914973,10.1102428 5.81914973,17.3544516 L5.81914973,17.5478649 C5.81914973,24.9366453 9.84674215,29.7504884 15.1824248,29.7504884 C18.4321812,29.7504884 20.5648947,28.2442088 22.7015071,26.2006698 L26,30.1881105 C23.0387643,33.2495116 19.5960111,35 14.8919547,35 C6.20904251,35 0,28.0976835 0,17.6943902" id="Fill-1"></path>
                        <path d="M46.6738038,21.6713348 L46.6738038,21.3778993 C46.6738038,16.5253829 44.0807873,12.8997812 40.4517006,12.8997812 C36.7279091,12.8997812 34.3243021,16.4781182 34.3243021,21.3286652 L34.3243021,21.6221007 C34.3243021,26.4726477 36.9192127,30.149453 40.5464053,30.149453 C44.2683027,30.149453 46.6738038,26.5218818 46.6738038,21.6713348 M29,21.7698031 L29,21.3286652 C29,13.6835886 33.9019188,8 40.5464053,8 C47.1454336,8 52,13.5870897 52,21.2794311 L52,21.7205689 C52,29.3636761 47.0980812,35 40.4517006,35 C33.8526723,35 29,29.4621444 29,21.7698031" id="Fill-3"></path>
                        <path d="M58,8.50037213 L63.5807165,8.50037213 L63.5807165,12.3506252 C65.110305,9.99947901 67.133885,8 70.5878585,8 C73.797812,8 76.1189774,9.64982138 77.3509806,12.2501489 C79.1285569,9.85077404 81.4993198,8 85.0028908,8 C89.839644,8 93,11.2494046 93,17.2498511 L93,35 L87.4212674,35 L87.4212674,18.8996725 C87.4212674,15.0996576 85.8420814,13.1001786 82.9793107,13.1001786 C80.2633488,13.1001786 78.2893663,15.200134 78.2893663,18.9499107 L78.2893663,35 L72.7106337,35 L72.7106337,18.8494344 C72.7106337,15.0996576 71.0818501,13.1001786 68.3162907,13.1001786 C65.5031176,13.1001786 63.5807165,15.3508485 63.5807165,19.0001489 L63.5807165,35 L58,35 L58,8.50037213 Z" id="Fill-5"></path>
                        <path d="M98,8.50037213 L103.579049,8.50037213 L103.579049,12.3506252 C105.108724,9.99947901 107.132419,8 110.588572,8 C113.796724,8 116.118021,9.64982138 117.350094,12.2501489 C119.127771,9.85077404 121.498668,8 125.002438,8 C129.839465,8 133,11.2494046 133,17.2498511 L133,35 L127.420951,35 L127.420951,18.8996725 C127.420951,15.0996576 125.841676,13.1001786 122.978743,13.1001786 C120.264611,13.1001786 118.290516,15.200134 118.290516,18.9499107 L118.290516,35 L112.709484,35 L112.709484,18.8494344 C112.709484,15.0996576 111.082592,13.1001786 108.316875,13.1001786 C105.501559,13.1001786 103.579049,15.3508485 103.579049,19.0001489 L103.579049,35 L98,35 L98,8.50037213 Z" id="Fill-7"></path>
                        <path d="M154.573849,19.7601925 C154.278454,15.644519 152.401009,12.6552403 149.147698,12.6552403 C146.088673,12.6552403 143.919798,15.351105 143.523295,19.7601925 L154.573849,19.7601925 Z M138,21.7687988 L138,21.3769236 C138,13.5866822 142.73227,8 149.147698,8 C156.251059,8 160,13.8800963 160,21.6703377 C160,22.0149515 160,22.7987018 159.950437,23.582452 L143.572858,23.582452 C144.066504,27.9423091 146.778589,30.2955291 150.182572,30.2955291 C152.648824,30.2955291 154.47274,29.2163956 156.201496,27.5524032 L159.10985,30.9808183 C156.744706,33.4797608 153.83437,35 149.934757,35 C143.225917,35 138,29.903654 138,21.7687988 L138,21.7687988 Z" id="Fill-9"></path>
                        <path d="M164,8.41320796 L169.4013,8.41320796 L169.4013,13.6309692 C170.7401,10.1692629 173.17568,7.81038315 177,8.0119968 L177,14.1813745 L176.76182,14.1813745 C172.36318,14.1813745 169.4013,17.1914663 169.4013,23.2620533 L169.4013,35 L164,35 L164,8.41320796 Z" id="Fill-11"></path>
                        <path d="M180,21.8180293 L180,21.3276931 C180,13.5866822 184.976216,8 191.690127,8 C195.363557,8 197.776915,9.37254759 199.904864,11.5288455 L196.860499,15.5952885 C195.507232,14.1754795 194.01029,12.9978849 191.690127,12.9978849 C188.117658,12.9978849 185.506262,16.4774998 185.506262,21.3769236 L185.506262,21.6230764 C185.506262,26.6682226 188.117658,30.0493764 191.835744,30.0493764 C194.056888,30.0493764 195.555771,28.9229815 197.052713,27.4027423 L200,31.0792794 C197.971071,33.3812997 195.410154,35 191.497913,35 C184.830599,35 180,29.5610094 180,21.8180293" id="Fill-13"></path>
                        <path d="M219.575831,19.7601925 C219.280436,15.644519 217.402992,12.6552403 214.14968,12.6552403 C211.090655,12.6552403 208.917816,15.351105 208.525277,19.7601925 L219.575831,19.7601925 Z M203,21.7687988 L203,21.3769236 C203,13.5866822 207.734253,8 214.14968,8 C221.251059,8 225,13.8800963 225,21.6703377 C225,22.0149515 225,22.7987018 224.95242,23.582452 L208.57484,23.582452 C209.068487,27.9423091 211.778589,30.2955291 215.184554,30.2955291 C217.648824,30.2955291 219.474723,29.2163956 221.201496,27.5524032 L224.111832,30.9808183 C221.744706,33.4797608 218.83437,35 214.93674,35 C208.227899,35 203,29.903654 203,21.7687988 L203,21.7687988 Z" id="Fill-15"></path>
                        <polygon id="Fill-17" points="1 87 7 87 7 53 1 53"></polygon>
                        <path d="M15,60.5003721 L20.3703704,60.5003721 L20.3703704,64.4008634 C21.7945781,62.0497172 23.8373425,60 27.2565865,60 C32.1019473,60 35,63.5990622 35,69.2498511 L35,87 L29.6315388,87 L29.6315388,70.8514439 C29.6315388,67.1498958 27.9686903,65.1001786 25.1183658,65.1001786 C22.3157694,65.1001786 20.3703704,67.3006103 20.3703704,70.9499107 L20.3703704,87 L15,87 L15,60.5003721 Z" id="Fill-19"></path>
                        <path d="M41,81.4097374 L41,66.6303334 L38,66.6303334 L38,61.9310711 L41,61.9310711 L41,55 L46.8461538,55 L46.8461538,61.9310711 L53,61.9310711 L53,66.6303334 L46.8461538,66.6303334 L46.8461538,80.2957805 C46.8461538,82.2822071 47.9313929,83.10599 49.7941788,83.10599 C50.9313929,83.10599 51.964657,82.8625553 52.950104,82.379581 L52.950104,86.8860431 C51.6070686,87.5637651 50.0519751,88 48.0873181,88 C44.0519751,88 41,86.4011213 41,81.4097374" id="Fill-20"></path>
                        <path d="M72.5738488,72.7610503 C72.2784536,68.6450766 70.4010093,65.6555799 67.1476976,65.6555799 C64.0886726,65.6555799 61.9178156,68.3496718 61.5232946,72.7610503 L72.5738488,72.7610503 Z M56,74.7698031 L56,74.3778993 C56,66.5870897 60.73227,61 67.1476976,61 C74.2490763,61 78,66.8805252 78,74.6713348 C78,75.0159737 78,75.7978118 77.9504371,76.5835886 L61.5728575,76.5835886 C62.0665045,80.9437637 64.7766063,83.2971554 68.1825719,83.2971554 C70.648824,83.2971554 72.4727404,82.2179431 74.1995134,80.55186 L77.1098495,83.9824945 C74.7427233,86.4816193 71.8343696,88 67.9347571,88 C61.2259169,88 56,82.9032823 56,74.7698031 L56,74.7698031 Z" id="Fill-21"></path>
                        <polygon id="Fill-22" points="83 87 89 87 89 52 83 52"></polygon>
                        <polygon id="Fill-23" points="95 87 101 87 101 52 95 52"></polygon>
                        <path d="M114,54.7393676 C114,53.2255066 112.656239,52 111.001066,52 C109.343761,52 108,53.2255066 108,54.7393676 C108,56.2512803 109.343761,57.4787352 111.001066,57.4787352 C112.656239,57.4787352 114,56.2512803 114,54.7393676 L114,54.7393676 Z M108,87 L114,87 L114,61.3072256 L108,61.3072256 L108,87 Z" id="Fill-24"></path>
                        <path d="M136.612209,73.3645326 L136.612209,73.2659476 C136.612209,68.7034331 133.74964,65.8582695 130.450276,65.8582695 C127.102162,65.8582695 124.53209,68.6541406 124.53209,73.2659476 L124.53209,73.3152401 C124.53209,77.9270471 127.150911,80.7722106 130.450276,80.7722106 C133.74964,80.7722106 136.612209,77.8777546 136.612209,73.3645326 M120.068588,92.5472048 L121.864519,88.1798887 C124.095295,89.5541638 126.811615,90.388193 129.578635,90.388193 C134.088936,90.388193 136.563459,88.1305961 136.563459,83.5187891 L136.563459,81.0186732 C134.769479,83.5680817 132.536753,85.5811877 128.800593,85.5811877 C123.656549,85.5811877 119,81.4090698 119,73.4138251 L119,73.2166551 C119,65.1721178 123.705299,61 128.800593,61 C132.585502,61 134.865028,63.0623985 136.51471,65.3673162 L136.51471,61.4929251 L142,61.4929251 L142,83.2742983 C142,87.1506611 140.980161,89.9958246 139.086732,91.9083739 C137.049004,94.0180932 133.893938,95 129.820432,95 C126.277321,95 123.026706,94.1659708 120.068588,92.5472048" id="Fill-25"></path>
                        <path d="M163.573849,72.7610503 C163.278454,68.6450766 161.402992,65.6555799 158.147698,65.6555799 C155.088673,65.6555799 152.919798,68.3496718 152.525277,72.7610503 L163.573849,72.7610503 Z M147,74.7698031 L147,74.3778993 C147,66.5870897 151.734253,61 158.147698,61 C165.251059,61 169,66.8805252 169,74.6713348 C169,75.0159737 169,75.7978118 168.950437,76.5835886 L152.572858,76.5835886 C153.066504,80.9437637 155.778589,83.2971554 159.182572,83.2971554 C161.648824,83.2971554 163.474723,82.2179431 165.201496,80.55186 L168.111832,83.9824945 C165.744706,86.4816193 162.83437,88 158.93674,88 C152.227899,88 147,82.9032823 147,74.7698031 L147,74.7698031 Z" id="Fill-26"></path>
                        <path d="M174,60.5003721 L179.368461,60.5003721 L179.368461,64.4008634 C180.792669,62.0497172 182.835433,60 186.254677,60 C191.101947,60 194,63.5990622 194,69.2498511 L194,87 L188.631539,87 L188.631539,70.8514439 C188.631539,67.1498958 186.966781,65.1001786 184.118366,65.1001786 C181.31386,65.1001786 179.368461,67.3006103 179.368461,70.9499107 L179.368461,87 L174,87 L174,60.5003721 Z" id="Fill-27"></path>
                        <path d="M199,74.8190372 L199,74.3286652 C199,66.5870897 203.975733,61 210.688992,61 C214.362066,61 216.775189,62.3726477 218.902931,64.5291028 L215.858862,68.5958425 C214.505727,67.17593 213.00893,65.9982495 210.688992,65.9982495 C207.116871,65.9982495 204.507668,69.4781182 204.507668,74.3778993 L204.507668,74.6221007 C204.507668,79.6695842 207.116871,83.0509847 210.834595,83.0509847 C213.055523,83.0509847 214.554261,81.9245077 216.051058,80.4041575 L219,84.0809628 C216.971268,86.383151 214.408659,88 210.496797,88 C203.83013,88 199,82.5606127 199,74.8190372" id="Fill-28"></path>
                        <path d="M238.573849,72.7610503 C238.278454,68.6450766 236.402992,65.6555799 233.147698,65.6555799 C230.088673,65.6555799 227.917816,68.3496718 227.523295,72.7610503 L238.573849,72.7610503 Z M222,74.7698031 L222,74.3778993 C222,66.5870897 226.73227,61 233.147698,61 C240.251059,61 244,66.8805252 244,74.6713348 C244,75.0159737 244,75.7978118 243.950437,76.5835886 L227.572858,76.5835886 C228.066504,80.9437637 230.778589,83.2971554 234.182572,83.2971554 C236.648824,83.2971554 238.47274,82.2179431 240.201496,80.55186 L243.10985,83.9824945 C240.744706,86.4816193 237.83437,88 233.934757,88 C227.225917,88 222,82.9032823 222,74.7698031 L222,74.7698031 Z" id="Fill-29"></path>
                        <path d="M243.465228,59.0446735 L243.133094,59.0446735 L243.133094,58.1563574 L243.473621,58.1563574 C243.689448,58.1563574 243.822542,58.3333333 243.822542,58.5893471 L243.822542,58.5996564 C243.822542,58.8883162 243.683453,59.0446735 243.465228,59.0446735 L243.465228,59.0446735 Z M243.628297,59.1769759 C243.798561,59.1219931 243.953237,58.9329897 243.953237,58.5996564 L243.953237,58.5893471 C243.953237,58.2113402 243.751799,58 243.482014,58 L243,58 L243,60 L243.133094,60 L243.133094,59.2113402 L243.496403,59.2113402 L243.845324,60 L244,60 L243.628297,59.1769759 Z" id="Fill-30"></path>
                        <path d="M243.5,56.2598797 C242.265034,56.2598797 241.25988,57.2650344 241.25988,58.5 C241.25988,59.7349656 242.265034,60.7379725 243.5,60.7379725 C244.734966,60.7379725 245.74012,59.7349656 245.74012,58.5 C245.74012,57.2650344 244.734966,56.2598797 243.5,56.2598797 M243.5,61 C242.121134,61 241,59.878866 241,58.5 C241,57.121134 242.121134,56 243.5,56 C244.878866,56 246,57.121134 246,58.5 C246,59.878866 244.878866,61 243.5,61" id="Fill-31"></path>
                    </g>
                </g>
            </g>
        </g>
    </g>
</svg>