<?xml version="1.0" encoding="UTF-8"?>
<svg width="25px" height="24px" viewBox="0 0 25 24" version="1.1" xmlns="http://www.w3.org/2000/svg" xmlns:xlink="http://www.w3.org/1999/xlink">
    <!-- Generator: sketchtool 62 (101010) - https://sketch.com -->
    <title>4BE50B2B-1241-45E7-B0B5-72B49F680892</title>
    <desc>Created with sketchtool.</desc>
    <g id="Asset-Artboard-Page" stroke="none" stroke-width="1" fill="none" fill-rule="evenodd">
        <g id="Icons/Notification/None-Copy-28-Icons/General/CloudView" transform="translate(0.666667, 0.000000)" fill="#858585" stroke="#858585" stroke-width="0.8">
            <path d="M18.8962802,9.37213792 C18.7124675,9.37228796 18.528955,9.38339177 18.3464927,9.40529922 C17.8511739,7.79239926 16.3632665,6.69012342 14.6760912,6.68667223 C14.256098,6.68622207 13.8391058,6.75599585 13.4422205,6.89269247 C12.4596854,4.76811802 10.1311914,3.61347433 7.84546205,4.11734612 C5.55943258,4.621368 3.93242779,6.64780897 3.93407836,8.9884571 C3.9342284,9.39299504 3.98464559,9.79588241 4.08352928,10.1878161 C1.90568669,10.5203294 0.349656127,12.472195 0.511561305,14.6693942 C0.6731664,16.8667435 2.49823873,18.5699742 4.70128996,18.5797276 L18.8962802,18.5797276 C21.4388972,18.5797276 23.5,16.5184747 23.5,13.9758577 C23.5,11.4332407 21.4388972,9.37213792 18.8962802,9.37213792 Z M18.8962802,17.8123994 L4.70128996,17.8123994 C2.80989499,17.8206187 1.26436803,16.3045017 1.23615837,14.4132569 C1.20809883,12.522012 2.70756012,10.9607296 4.59850488,10.9125632 C4.72124675,10.909112 4.83483547,10.8471409 4.90415913,10.7458563 C4.97378287,10.6444218 4.99043856,10.516128 4.94917448,10.4004385 C4.18766481,8.22124547 5.32040104,5.83483174 7.49029093,5.0469131 C9.66003082,4.25899442 12.0600992,5.36292083 12.8741267,7.52305741 C12.9113394,7.62329158 12.9884657,7.70326888 13.0871994,7.7440828 C13.1860831,7.78489672 13.2972711,7.78264594 13.3942041,7.73793067 C13.7958911,7.55111698 14.2332902,7.45433399 14.6760912,7.45388383 C16.1357889,7.45658473 17.3927675,8.48473535 17.684317,9.91502302 C17.7260312,10.122994 17.9286003,10.2574398 18.1362711,10.2154255 C18.3864063,10.1653084 18.6408931,10.1397997 18.8962802,10.1394996 C21.0151527,10.1394996 22.7327884,11.8572853 22.7327884,13.9758577 C22.7327884,16.0947302 21.0151527,17.8123994 18.8962802,17.8123994 L18.8962802,17.8123994 Z" id="Cloud"></path>
        </g>
    </g>
</svg>