<?xml version="1.0" encoding="utf-8"?>
<!-- Generator: Adobe Illustrator 24.0.1, SVG Export Plug-In . SVG Version: 6.00 Build 0)  -->
<svg version="1.1" id="Layer_1" xmlns="http://www.w3.org/2000/svg" xmlns:xlink="http://www.w3.org/1999/xlink" x="0px" y="0px"
	 viewBox="0 0 100 100" style="enable-background:new 0 0 100 100;" xml:space="preserve">
<style type="text/css">
	.st0{fill:#D0AF7E;}
	.st1{fill:#F8F8F8;}
</style>
<g>
	<path class="st0" d="M100.18,50.2c-0.13,9.72-3.02,19.45-8.43,27.58c-15.32,23.05-46.94,29.46-69.64,13.41
		C6.85,80.39-2.44,60.6,0.84,41.76C3.1,28.81,10.48,16.61,21.05,8.84C43.93-7.99,78.34,0.69,93.08,24.21
		c0.34,0.54,0.67,1.09,0.99,1.65C98.31,33.25,100.3,41.72,100.18,50.2z"/>
	<g>
		<g>
			<path class="st1" d="M75.46,79.8c-0.19-0.41-0.44-0.82-0.73-1.18c-0.29-0.38-0.59-0.71-0.9-0.96c-0.34-0.28-0.49-0.28-0.5-0.28
				c-0.04,0-0.19,0.01-0.58,0.21c-0.9,0.5-1.82,1.1-2.71,1.68c-0.92,0.6-1.87,1.22-2.86,1.78c-1.81,1.01-3.68,1.87-5.53,2.54
				c-6.75,2.45-14.14,2.65-20.69,0.78c-2.94-0.83-5.73-2.01-8.32-3.54c-2.6-1.52-5-3.37-7.13-5.5s-4-4.54-5.56-7.15
				c-1.54-2.6-2.75-5.44-3.6-8.41c-0.85-2.99-1.27-6.16-1.27-9.4c0-3.19,0.41-6.32,1.25-9.3c0.83-2.98,2.01-5.82,3.54-8.44
				c1.54-2.62,3.4-5.06,5.53-7.22c2.14-2.17,4.56-4.06,7.22-5.62c2.65-1.55,5.52-2.77,8.55-3.62c3.05-0.84,6.26-1.28,9.57-1.28
				c4.04,0,7.89,0.69,11.43,2.05c3.54,1.35,6.9,3.26,9.99,5.63c0.24,0.17,0.39,0.22,0.45,0.24c0.17,0.05,0.24,0.06,0.25,0.06h0.16
				c0.08,0,0.22-0.02,0.45-0.23c0.27-0.23,0.52-0.49,0.78-0.77c0.24-0.28,0.45-0.55,0.62-0.79c0.21-0.32,0.35-0.51,0.44-0.6
				c0.49-0.65,0.42-1.13-0.3-1.79c-0.34-0.3-0.75-0.6-1.16-0.88l-0.3-0.21c-1.04-0.72-2.12-1.4-3.23-2.04
				c-2.15-1.24-4.43-2.32-6.77-3.19c-4.1-1.54-8.55-2.32-13.21-2.32c-3.65,0-7.23,0.49-10.63,1.45s-6.61,2.33-9.56,4.06
				c-2.94,1.73-5.65,3.85-8.08,6.3c-2.41,2.45-4.53,5.19-6.25,8.16c-1.72,2.95-3.07,6.18-4.02,9.57c-0.93,3.39-1.42,6.97-1.42,10.66
				c0,5.52,1.06,10.79,3.13,15.63c2.06,4.85,4.94,9.16,8.53,12.78c3.58,3.62,7.85,6.51,12.68,8.6c4.82,2.09,10.06,3.13,15.57,3.13
				c4.77,0,9.26-0.74,13.35-2.23c4.1-1.49,7.92-3.61,11.38-6.32c0.22-0.19,0.42-0.4,0.58-0.61c0.1-0.12,0.13-0.27,0.13-0.46
				C75.72,80.5,75.63,80.19,75.46,79.8z"/>
		</g>
		<g>
			<path class="st1" d="M85,28.25c0,1.13-0.39,2.07-1.19,2.87c-0.79,0.8-1.72,1.18-2.84,1.18c-1.13,0-2.06-0.38-2.85-1.18
				c-0.8-0.79-1.19-1.73-1.19-2.87c0-1.12,0.39-2.06,1.19-2.87c0.79-0.79,1.72-1.18,2.85-1.18c1.12,0,2.05,0.39,2.84,1.18
				C84.61,26.19,85,27.13,85,28.25z"/>
		</g>
		<g>
			<g>
				<path class="st1" d="M89.85,44.75c-0.33-2.34-0.79-5.1-1.77-7.72c-0.4-1.07-0.66-1.55-1.36-1.61c-0.72-0.05-1.53,0.28-2.29,0.67
					l-0.24,0.12c-0.91,0.45-1.09,0.6-0.97,1.18l0.15,0.62c0.18,0.46,0.36,1.01,0.53,1.56c0.12,0.39,0.24,0.74,0.34,1.1
					c0.3,1.1,0.56,2.18,0.74,3.24l0.05,0.04l0.01,0.3c0.3,1.79,0.47,3.78,0.47,5.82c0,3.17-0.42,6.3-1.25,9.3
					c-0.73,2.58-1.71,5.05-2.92,7.3c-0.21,0.38-0.41,0.76-0.63,1.13c-0.74,1.28-1.54,2.46-2.35,3.54c-0.15,0.2-0.3,0.38-0.46,0.57
					c-0.39,0.46-0.75,0.9-0.95,1.4c-0.11,0.3-0.06,0.54,0.52,1.05c0.16,0.13,0.32,0.29,0.49,0.44c0.53,0.51,1.15,1.09,1.75,1.26
					c0.62,0.18,1.19-0.23,1.55-0.61c0.35-0.43,0.72-0.88,1.07-1.33l0.13-0.17c0.18-0.23,0.36-0.48,0.52-0.71
					c0.63-0.91,1.24-1.85,1.81-2.83c0.45-0.78,0.8-1.44,1.12-2.07c1.19-2.34,2.16-4.87,2.89-7.5c0.95-3.39,1.42-6.97,1.42-10.66
					C90.2,48.3,90.08,46.47,89.85,44.75z"/>
			</g>
		</g>
	</g>
</g>
</svg>
