<?xml version="1.0" encoding="UTF-8"?>
<svg width="25px" height="24px" viewBox="0 0 25 24" version="1.1" xmlns="http://www.w3.org/2000/svg" xmlns:xlink="http://www.w3.org/1999/xlink">
    <!-- Generator: sketchtool 62 (101010) - https://sketch.com -->
    <title>AB44ECB5-8960-4E5D-8F6C-753B10EE13AD</title>
    <desc>Created with sketchtool.</desc>
    <g id="Asset-Artboard-Page" stroke="none" stroke-width="1" fill="none" fill-rule="evenodd">
        <g id="Icons/General/Calender-Copy-Icons/General/Compare" transform="translate(0.666667, 0.000000)">
            <path d="M21,16.1418 L21,7.0011 C21,4.7922 19.2099,3 17.001,3 L13.4142,3 L14.9991,1.4139 L13.5849,0 L10.293,3.2931 C9.9024,3.6828 9.9024,4.3164 10.293,4.7073 L13.5861,8.0004 L15,6.5859 L13.4142,5.0001 L17.001,5.001 C18.1056,5.001 18.9999,5.8965 18.9999,7.0011 L18.9999,16.1418 C17.2785,16.5879 15.9999,18.1386 15.9999,20.0001 C15.9999,22.209 17.7912,24 20.0001,24 C22.209,24 24,22.209 24,20.0001 C24,18.1386 22.7217,16.5879 21,16.1418 Z M20.0001,21.9999 C18.8955,21.9999 18,21.1047 18,20.0001 C18,18.8955 18.8955,18 20.0001,18 C21.1047,18 21.9999,18.8955 21.9999,20.0001 C21.9999,21.1047 21.1047,21.9999 20.0001,21.9999 Z" id="Shape" fill="#858585"></path>
            <path d="M13.707,19.293 L10.4142,15.9999 L9,17.4141 L10.5858,18.9999 L6.999,18.999 C5.8944,18.999 5.0001,18.1035 5.0001,16.9989 L5.0001,7.8582 C6.7227,7.4121 8.0001,5.8614 8.0001,3.9999 C8.0001,1.7913 6.2088,0 3.9999,0 C1.791,0 0,1.7913 0,3.9999 C0,5.8614 1.2774,7.4121 3,7.8582 L3,16.9989 C3,19.2078 4.7901,21 6.999,21 L10.5858,21 L9.0009,22.5858 L10.4151,24 L13.707,20.7069 C14.0976,20.3175 14.0976,19.6836 13.707,19.293 Z M3.9999,6 C2.8953,6 2.0001,5.1045 2.0001,3.9999 C2.0001,2.8956 2.8953,1.9998 3.9999,1.9998 C5.1045,1.9998 6,2.8956 6,3.9999 C6,5.1045 5.1045,6 3.9999,6 Z" id="Shape" fill="#858585"></path>
        </g>
    </g>
</svg>