<?xml version="1.0" encoding="UTF-8"?>
<svg width="25px" height="24px" viewBox="0 0 25 24" version="1.1" xmlns="http://www.w3.org/2000/svg" xmlns:xlink="http://www.w3.org/1999/xlink">
    <!-- Generator: sketchtool 62 (101010) - https://sketch.com -->
    <title>00B699D0-69EA-4E8B-A735-51D11D37419F</title>
    <desc>Created with sketchtool.</desc>
    <g id="Asset-Artboard-Page" stroke="none" stroke-width="1" fill="none" fill-rule="evenodd">
        <g id="Icons/Notification/None-Copy-15-Icons/General/Cross" transform="translate(0.666667, 0.000000)" fill="#858585" stroke="#858585" stroke-width="0.8">
            <path d="M2.6,1.55 L12,10.949 L21.4,1.55 C21.7,1.25 22.15,1.25 22.45,1.55 C22.75,1.85 22.75,2.3 22.45,2.6 L13.05,11.999 L22.5,21.45 C22.8,21.75 22.8,22.2 22.5,22.5 C22.35,22.6 22.15,22.7 21.95,22.7 C21.75,22.7 21.55,22.65 21.4,22.5 L11.987,13.062 L2.6,22.45 C2.45,22.6 2.25,22.7 2.05,22.7 C1.85,22.7 1.65,22.65 1.5,22.5 C1.2,22.2 1.2,21.75 1.5,21.45 L10.938,12.011 L1.55,2.6 C1.25,2.3 1.25,1.85 1.55,1.55 C1.85,1.25 2.3,1.25 2.6,1.55 Z" id="Cross"></path>
        </g>
    </g>
</svg>