<?xml version="1.0" encoding="UTF-8"?>
<svg width="16px" height="16px" viewBox="0 0 16 16" version="1.1" xmlns="http://www.w3.org/2000/svg" xmlns:xlink="http://www.w3.org/1999/xlink">
    <title>655159E4-EC6F-423E-9207-0CDB3FD83884</title>
    <g id="Style-Guide" stroke="none" stroke-width="1" fill="none" fill-rule="evenodd">
        <g id="Style-Guide---Iconography" transform="translate(-1179.000000, -148.000000)" fill="#858585">
            <g id="Icons/Navigation/Overview-Selected-Copy-2" transform="translate(1179.000000, 148.000000)">
                <path d="M6.93259972,8.8 C7.07565337,8.8 7.20770289,8.92324622 7.20770289,9.07400275 L7.20770289,15.7248968 C7.20770289,15.8767538 7.07565337,15.9988996 6.93259972,15.9988996 L0.275103164,15.9988996 C0.132049519,15.9988996 -5.13811216e-13,15.8767538 -5.13811216e-13,15.7248968 L-5.13811216e-13,9.07400275 C-5.13811216e-13,8.92324622 0.132049519,8.8 0.275103164,8.8 L6.93259972,8.8 Z M15.6588721,8.8 C15.8129298,8.8 15.9339752,8.92324622 15.9339752,9.07400275 L15.9339752,15.7248968 C15.9339752,15.8767538 15.8129298,15.9988996 15.6588721,15.9988996 L9.00137552,15.9988996 C8.85832187,15.9988996 8.73727648,15.8767538 8.73727648,15.7248968 L8.73727648,9.07400275 C8.73727648,8.92324622 8.85832187,8.8 9.00137552,8.8 L15.6588721,8.8 Z M6.65749656,9.34910591 L0.550206327,9.34910591 L0.550206327,15.4497937 L6.65749656,15.4497937 L6.65749656,9.34910591 Z M15.3837689,9.34910591 L9.27647868,9.34910591 L9.27647868,15.4497937 L15.3837689,15.4497937 L15.3837689,9.34910591 Z M6.93259972,0 C7.07565337,0 7.20770289,0.122145805 7.20770289,0.275103164 L7.20770289,6.92489684 C7.20770289,7.07675378 7.07565337,7.19889959 6.93259972,7.19889959 L0.275103164,7.19889959 C0.132049519,7.19889959 -7.51398943e-13,7.07675378 -7.51398943e-13,6.92489684 L-7.51398943e-13,0.275103164 C-7.51398943e-13,0.122145805 0.132049519,0 0.275103164,0 L6.93259972,0 Z M15.7248968,0 C15.8789546,0 16,0.123246217 16,0.275103164 L16,6.92489684 C16,7.07675378 15.8789546,7.19889959 15.7248968,7.19889959 L9.06740028,7.19889959 C8.92434663,7.19889959 8.80330124,7.07675378 8.80330124,6.92489684 L8.80330124,0.275103164 C8.80330124,0.123246217 8.92434663,0 9.06740028,0 L15.7248968,0 Z M15.4497937,0.549105915 L9.34250344,0.549105915 L9.34250344,6.65089409 L15.4497937,6.65089409 L15.4497937,0.549105915 Z M6.65749656,0.549105915 L0.550206327,0.549105915 L0.550206327,6.64979367 L6.65749656,6.64979367 L6.65749656,0.549105915 Z" id="Combined-Shape"></path>
            </g>
        </g>
    </g>
</svg>