<?xml version="1.0" encoding="UTF-8"?>
<svg width="24px" height="24px" viewBox="0 0 24 24" version="1.1" xmlns="http://www.w3.org/2000/svg" xmlns:xlink="http://www.w3.org/1999/xlink">
    <!-- Generator: sketchtool 63.1 (101010) - https://sketch.com -->
    <title>7B05EE4B-E137-444B-9F0B-BD3059437985</title>
    <desc>Created with sketchtool.</desc>
    <defs>
        <path d="M9.5917523,13.6082477 C10.0335801,13.6082477 10.3917523,13.9664199 10.3917523,14.4082477 L10.3917523,23.2 C10.3917523,23.6418278 10.0335801,24 9.5917523,24 L0.800000012,24 C0.358172205,24 -5.69140016e-17,23.6418278 0,23.2 L0,14.4082477 C-1.65130603e-16,13.9664199 0.358172205,13.6082477 0.800000012,13.6082477 L9.5917523,13.6082477 Z M23.2,13.6082477 C23.6418278,13.6082477 24,13.9664199 24,14.4082477 L24,23.2 C24,23.6418278 23.6418278,24 23.2,24 L14.4082477,24 C13.9664199,24 13.6082477,23.6418278 13.6082477,23.2 L13.6082477,14.4082477 C13.6082477,13.9664199 13.9664199,13.6082477 14.4082477,13.6082477 L23.2,13.6082477 Z M22.2061869,15.4020584 L15.4020631,15.4020584 L15.4020631,22.2061822 L22.2061869,22.2061822 L22.2061869,15.4020584 Z M8.59793926,15.4020584 L1.79381541,15.4020584 L1.79381541,22.2061822 L8.59793926,22.2061822 L8.59793926,15.4020584 Z M9.5917523,0 C10.0335801,-8.11624513e-17 10.3917523,0.358172205 10.3917523,0.800000012 L10.3917523,9.5917523 C10.3917523,10.0335801 10.0335801,10.3917523 9.5917523,10.3917523 L0.800000012,10.3917523 C0.358172205,10.3917523 5.41083009e-17,10.0335801 0,9.5917523 L0,0.800000012 C-5.41083009e-17,0.358172205 0.358172205,8.11624513e-17 0.800000012,0 L9.5917523,0 Z M23.2,0 C23.6418278,-1.92184754e-16 24,0.358172205 24,0.800000012 L24,9.5917523 C24,10.0335801 23.6418278,10.3917523 23.2,10.3917523 L14.4082477,10.3917523 C13.9664199,10.3917523 13.6082477,10.0335801 13.6082477,9.5917523 L13.6082477,0.800000012 C13.6082477,0.358172205 13.9664199,-2.98598511e-17 14.4082477,0 L23.2,0 Z M22.2061869,1.79381069 L15.4020631,1.79381069 L15.4020631,8.59793454 L22.2061869,8.59793454 L22.2061869,1.79381069 Z M8.59793926,1.79381069 L1.79381541,1.79381069 L1.79381541,8.59793454 L8.59793926,8.59793454 L8.59793926,1.79381069 Z" id="path-1"></path>
    </defs>
    <g id="Style-Guide" stroke="none" stroke-width="1" fill="none" fill-rule="evenodd">
        <g transform="translate(-82.000000, -6787.000000)" id="DashboardHover">
            <g transform="translate(67.000000, 6787.000000)">
                <g id="Icon-Dashboard" transform="translate(15.000000, 0.000000)">
                    <mask id="mask-2" fill="white">
                        <use xlink:href="#path-1"></use>
                    </mask>
                    <use id="Combined-Shape" fill="#16ABE0" xlink:href="#path-1"></use>
                </g>
            </g>
        </g>
    </g>
</svg>