<?xml version="1.0" encoding="UTF-8"?>
<svg width="24px" height="20px" viewBox="0 0 24 20" version="1.1" xmlns="http://www.w3.org/2000/svg" xmlns:xlink="http://www.w3.org/1999/xlink">
    <!-- Generator: sketchtool 63.1 (101010) - https://sketch.com -->
    <title>273A86BE-D7FD-452F-A833-8497E43530E4</title>
    <desc>Created with sketchtool.</desc>
    <g id="Style-Guide" stroke="none" stroke-width="1" fill="none" fill-rule="evenodd">
        <g id="Data-Load-Error" transform="translate(-482.000000, -327.000000)">
            <g id="Discoverability" transform="translate(396.000000, 253.000000)">
                <g id="Group-2" transform="translate(20.000000, 72.000000)">
                    <g id="Chart">
                        <g id="Icons/General/Remove" transform="translate(66.000000, 0.000000)">
                            <path d="M12.9627867,2.52256485 L23.1539595,20.5069874 C23.4262429,20.9874874 23.2574499,21.5977389 22.7769499,21.8700222 C22.6266035,21.9552185 22.456745,22 22.2839374,22 L1.73031156,22 C1.17802681,22 0.730311555,21.5522847 0.730311555,21 C0.730311555,20.8247584 0.776362674,20.6525937 0.863851339,20.5007539 L11.2263043,2.5163313 C11.5020304,2.03779853 12.1134779,1.87339119 12.5920107,2.14911721 C12.7467279,2.23826381 12.8747532,2.36721157 12.9627867,2.52256485 Z" id="Rectangle" fill="#FF625E"></path>
                            <g id="Group" transform="translate(10.100000, 8.000000)" fill="#FFFFFF" stroke="#FFFFFF" stroke-width="0.4">
                                <path d="M1.94149758,10.1068704 C1.68062802,10.1068704 1.43908213,10.0188077 1.23618357,9.84170403 C1.04294686,9.66655726 0.936666667,9.41998192 0.936666667,9.10295648 C0.936666667,8.82702693 1.03328502,8.59219327 1.22652174,8.39747702 C1.41975845,8.20373925 1.65164251,8.10687037 1.93183575,8.10687037 C2.21202899,8.10687037 2.44391304,8.20373925 2.63714976,8.39747702 C2.84004831,8.59219327 2.93666667,8.82702693 2.93666667,9.10295648 C2.93666667,9.41606802 2.84004831,9.66068642 2.63714976,9.83876861 C2.44391304,10.0178293 2.21202899,10.1068704 1.94149758,10.1068704 Z M1.2168599,5.05185959 L1.00429952,2.28814651 C0.965652174,1.75059376 0.936666667,1.36409587 0.936666667,1.12865284 C0.936666667,0.809665495 1.03328502,0.560720347 1.22652174,0.381817393 C1.41975845,0.203758322 1.67096618,0.113462963 1.98014493,0.113462963 C2.36661836,0.113462963 2.61782609,0.228230895 2.74342995,0.456922879 C2.86903382,0.685614862 2.93666667,1.01557267 2.93666667,1.44595241 C2.93666667,1.69996085 2.917343,1.9581887 2.88835749,2.2189482 L2.60816425,5.06283005 C2.57917874,5.40207056 2.51154589,5.66114229 2.4052657,5.84173301 C2.30864734,6.02232372 2.1347343,6.11346296 1.90285024,6.11346296 C1.67096618,6.11346296 1.50671498,6.02569925 1.41009662,5.85017182 C1.31347826,5.67548828 1.25550725,5.40966549 1.2168599,5.05185959 L1.2168599,5.05185959 Z" id="Fill-1051"></path>
                            </g>
                        </g>
                    </g>
                </g>
            </g>
        </g>
    </g>
</svg>