<?xml version="1.0" encoding="UTF-8"?>
<svg width="25px" height="24px" viewBox="0 0 25 24" version="1.1" xmlns="http://www.w3.org/2000/svg" xmlns:xlink="http://www.w3.org/1999/xlink">
    <!-- Generator: sketchtool 62 (101010) - https://sketch.com -->
    <title>26056653-4844-4522-BF49-BAAADF0EA973</title>
    <desc>Created with sketchtool.</desc>
    <g id="Asset-Artboard-Page" stroke="none" stroke-width="1" fill="none" fill-rule="evenodd">
        <g id="Icons/Notification/None-Copy-16-Icons/General/Download" transform="translate(0.666667, 0.000000)" fill="#858585" stroke="#858585" stroke-width="0.5">
            <path d="M11.9883125,1 C11.56,1.006875 11.214875,1.3554375 11.214875,1.785125 C11.214875,1.78925 11.214875,1.7926875 11.214875,1.7968125 L11.214875,1.796125 L11.214875,15.601125 L6.2745,10.66075 C6.1321875,10.5184375 5.93625,10.431125 5.7196875,10.431125 C5.285875,10.431125 4.9345625,10.783125 4.9345625,11.21625 C4.9345625,11.4335 5.0225625,11.6294375 5.164875,11.77175 L11.4451875,18.0520625 C11.44725,18.054125 11.4506875,18.056875 11.454125,18.059625 L11.4555,18.061 C11.4630625,18.0685625 11.4713125,18.076125 11.4795625,18.0836875 L11.48025,18.084375 C11.4905625,18.094 11.5015625,18.1029375 11.5125625,18.1125625 L11.5139375,18.1139375 C11.5194375,18.1180625 11.527,18.1235625 11.5345625,18.1290625 L11.536625,18.1304375 C11.5469375,18.138 11.56,18.147625 11.57375,18.1565625 L11.5771875,18.158625 C11.5840625,18.1634375 11.594375,18.169625 11.605375,18.1758125 L11.6088125,18.177875 C11.6170625,18.1826875 11.62875,18.1895625 11.641125,18.19575 L11.64525,18.1978125 C11.6514375,18.20125 11.6624375,18.20675 11.6734375,18.210875 L11.67825,18.2129375 C11.685125,18.216375 11.6975,18.221875 11.709875,18.227375 L11.7146875,18.2294375 C11.72225,18.232875 11.736,18.237 11.74975,18.2418125 L11.75525,18.2431875 C11.76075,18.24525 11.77175,18.249375 11.78275,18.2528125 L11.78825,18.2541875 C11.7958125,18.25625 11.8095625,18.260375 11.8233125,18.263125 L11.828125,18.2638125 C11.835,18.265875 11.8480625,18.268625 11.8604375,18.2706875 L11.86525,18.271375 C11.8728125,18.27275 11.885875,18.2748125 11.8989375,18.2761875 L11.9030625,18.276875 C11.9126875,18.27825 11.9264375,18.279625 11.9401875,18.2803125 L11.94225,18.2803125 C11.954625,18.281 11.968375,18.2816875 11.9828125,18.2816875 L11.9835,18.2816875 C11.989,18.2816875 11.995875,18.282375 12.0020625,18.282375 C12.00825,18.282375 12.015125,18.282375 12.022,18.2816875 L12.0213125,18.2816875 C12.045375,18.281 12.06875,18.279625 12.0914375,18.276875 L12.088,18.2775625 C12.0941875,18.276875 12.0955625,18.2761875 12.097625,18.2761875 L12.0928125,18.276875 C12.1134375,18.274125 12.1299375,18.271375 12.1464375,18.2679375 L12.141625,18.268625 C12.1595,18.2651875 12.171875,18.2624375 12.18425,18.2596875 L12.17875,18.2610625 C12.193875,18.257625 12.2041875,18.254875 12.2138125,18.252125 L12.2083125,18.2535 C12.229625,18.2473125 12.2454375,18.2425 12.2605625,18.2376875 L12.2550625,18.2390625 C12.2701875,18.23425 12.279125,18.230125 12.28875,18.2266875 L12.2839375,18.22875 C12.3031875,18.2211875 12.3169375,18.2156875 12.33,18.2088125 L12.3251875,18.210875 C12.350625,18.1991875 12.369875,18.1895625 12.389125,18.17925 L12.385,18.1813125 C12.3884375,18.17925 12.389125,18.1785625 12.3898125,18.177875 L12.3870625,18.1799375 C12.405625,18.169625 12.4200625,18.16 12.4345,18.150375 L12.43175,18.1524375 C12.4448125,18.1435 12.455125,18.1373125 12.46475,18.12975 L12.4626875,18.131125 C12.4819375,18.1166875 12.4984375,18.103625 12.51425,18.089875 L12.5135625,18.0905625 C12.5149375,18.0891875 12.517,18.087125 12.518375,18.08575 L12.518375,18.08575 C12.5314375,18.07475 12.5438125,18.0644375 12.5548125,18.0534375 L18.8344375,11.7738125 C18.9815625,11.6308125 19.0723125,11.4314375 19.0723125,11.21075 C19.0723125,10.7769375 18.721,10.425625 18.2871875,10.425625 C18.2789375,10.425625 18.271375,10.425625 18.263125,10.4263125 L18.2645,10.4263125 C18.05275,10.4325 17.8623125,10.521875 17.7248125,10.6628125 L17.7248125,10.6628125 L12.785125,15.6031875 L12.785125,1.7981875 C12.785125,1.79475 12.785125,1.7913125 12.785125,1.787875 C12.785125,1.3540625 12.4338125,1.00275 12,1.00275 C11.995875,1.00275 11.99175,1.00275 11.987625,1.00275 L11.9883125,1.00275 L11.9883125,1 Z M1.79475,21.4208125 C1.7913125,21.4208125 1.787875,21.4208125 1.78375,21.4208125 C1.3499375,21.4208125 0.998625,21.772125 0.998625,22.2059375 C0.998625,22.63975 1.350625,22.9910625 1.78375,22.9910625 C1.787875,22.9910625 1.7913125,22.9910625 1.7954375,22.9910625 L22.2045625,22.9910625 C22.208,22.9910625 22.2114375,22.9910625 22.2155625,22.9910625 C22.649375,22.9910625 23.0006875,22.63975 23.0006875,22.2059375 C23.0006875,21.772125 22.649375,21.4208125 22.2155625,21.4208125 C22.2114375,21.4208125 22.208,21.4208125 22.203875,21.4208125 L1.79475,21.4208125 Z" id="Download"></path>
        </g>
    </g>
</svg>