<?xml version="1.0" encoding="UTF-8"?>
<svg width="12px" height="12px" viewBox="0 0 25 24" version="1.1" xmlns="http://www.w3.org/2000/svg" xmlns:xlink="http://www.w3.org/1999/xlink">
    <!-- Generator: sketchtool 62 (101010) - https://sketch.com -->
    <title>8E3E8A3F-678D-4970-AFE1-0032F25663CD</title>
    <desc>Created with sketchtool.</desc>
    <g id="Asset-Artboard-Page" stroke="none" stroke-width="1" fill="none" fill-rule="evenodd">
        <g id="Icons/Arrows/Down" transform="translate(0.666667, 0.000000)" fill="#858585">
            <path d="M19.758729,7.19125102 L12.0647059,15.0588235 L12.0647059,15.0588235 L4.2584687,7.36823431 C3.75051067,6.86780158 2.93304845,6.87390204 2.43261572,7.38186007 C2.42957132,7.38495026 2.42654251,7.38805576 2.42352941,7.39117647 C1.92201108,7.91060617 1.93307733,8.7372427 2.44832074,9.24306093 L11.4136364,18.0443769 C11.8077488,18.4312799 12.4408868,18.4254356 12.8277897,18.0313232 C12.8284994,18.0306004 12.8292079,18.0298765 12.8299153,18.0291515 L21.636242,9.00403403 C22.1366269,8.49121725 22.1265488,7.66985505 21.613732,7.16947019 C21.6121001,7.16787778 21.6104639,7.16628967 21.6088235,7.16470588 C21.0896835,6.66346722 20.2632748,6.67532453 19.758729,7.19125102 Z" id="Path"></path>
        </g>
    </g>
</svg>