<?xml version="1.0" encoding="UTF-8"?>
<svg width="25px" height="24px" viewBox="0 0 25 24" version="1.1" xmlns="http://www.w3.org/2000/svg" xmlns:xlink="http://www.w3.org/1999/xlink">
    <!-- Generator: sketchtool 62 (101010) - https://sketch.com -->
    <title>2ABD28DF-D3AC-4177-B652-21F4E6490BE1</title>
    <desc>Created with sketchtool.</desc>
    <g id="Asset-Artboard-Page" stroke="none" stroke-width="1" fill="none" fill-rule="evenodd">
        <g id="Icons/Notification/None-Copy-13-Icons/Information/Error" transform="translate(0.666667, 0.000000)">
            <circle id="Oval" fill="#858585" cx="12" cy="12" r="12"></circle>
            <g id="Group" transform="translate(8.000000, 8.000000)" fill="#FFFFFF">
                <path d="M1.05655391,8.00052854 C0.785940803,8.00052854 0.516384778,7.89693446 0.309196617,7.69080338 C-0.103065539,7.27748414 -0.103065539,6.60835095 0.309196617,6.19608879 L6.19608879,0.309196617 C6.60835095,-0.103065539 7.27748414,-0.103065539 7.69080338,0.309196617 C8.10306554,0.722515856 8.10306554,1.39164905 7.69080338,1.80391121 L1.80391121,7.69080338 C1.59778013,7.89693446 1.32716702,8.00052854 1.05655391,8.00052854" id="Fill-1167"></path>
                <path d="M6.94344609,8.00052854 C6.67283298,8.00052854 6.40221987,7.89693446 6.19608879,7.69080338 L0.309196617,1.80391121 C-0.103065539,1.39164905 -0.103065539,0.722515856 0.309196617,0.309196617 C0.722515856,-0.103065539 1.39164905,-0.103065539 1.80391121,0.309196617 L7.69080338,6.19608879 C8.10306554,6.60835095 8.10306554,7.27748414 7.69080338,7.69080338 C7.4846723,7.89693446 7.2140592,8.00052854 6.94344609,8.00052854" id="Fill-1168"></path>
            </g>
        </g>
    </g>
</svg>