<?xml version="1.0" encoding="UTF-8"?>
<svg width="17px" height="16px" viewBox="0 0 17 16" version="1.1" xmlns="http://www.w3.org/2000/svg" xmlns:xlink="http://www.w3.org/1999/xlink">
    <title>E6AB0D47-C958-4DE0-BA78-0940BFDAD659</title>
    <g id="Style-Guide" stroke="none" stroke-width="1" fill="none" fill-rule="evenodd">
        <g id="Style-Guide---Iconography" transform="translate(-710.000000, -208.000000)" fill="#08243F">
            <g id="Icons/General/ExternalPage" transform="translate(710.000000, 208.000000)">
                <path d="M6,2 L6,3 L1,3 L1,15 L11,15 L11,11 L12,11 L12,15 C12,15.5522847 11.5522847,16 11,16 L1,16 C0.44771525,16 0,15.5522847 0,15 L0,3 C0,2.44771525 0.44771525,2 1,2 L6,2 Z M15.3869962,-9.38231215e-14 C15.4306736,-9.38311449e-14 15.473043,0.00560040923 15.5134254,0.0161223048 C15.5516498,0.00550822299 15.5936797,-9.38257739e-14 15.6369962,-9.38231215e-14 C15.9131385,-9.38062127e-14 16.1369962,0.223857625 16.1369962,0.5 L16.1369962,5 C16.1369962,5.27614237 15.9131385,5.5 15.6369962,5.5 C15.3608538,5.5 15.1369962,5.27614237 15.1369962,5 L15.1360033,1.586 L9.50168204,7.62985853 C9.31335339,7.83181627 8.99696375,7.84286484 8.79500601,7.6545362 C8.59304826,7.46620755 8.58199969,7.14981791 8.77032833,6.94786017 L14.3160033,1 L10.8869962,1 C10.6108538,1 10.3869962,0.776142375 10.3869962,0.5 C10.3869962,0.223857625 10.6108538,-9.3772395e-14 10.8869962,-9.38231215e-14 L15.3869962,-9.38231215e-14 Z" id="Combined-Shape"></path>
            </g>
        </g>
    </g>
</svg>