<?xml version="1.0" encoding="UTF-8"?>
<svg width="25px" height="24px" viewBox="0 0 25 24" version="1.1" xmlns="http://www.w3.org/2000/svg" xmlns:xlink="http://www.w3.org/1999/xlink">
    <!-- Generator: sketchtool 62 (101010) - https://sketch.com -->
    <title>D2EDB472-B0D2-41EA-BC45-6B202CC17245</title>
    <desc>Created with sketchtool.</desc>
    <g id="Asset-Artboard-Page" stroke="none" stroke-width="1" fill="none" fill-rule="evenodd">
        <g id="Icons/Security/View-Password-Copy-5-Icons/Filters/Active" transform="translate(0.666667, 0.000000)">
            <g id="FilterActive" transform="translate(1.000000, 0.000000)">
                <path d="M8.3827391,14.2531959 L8.3827391,22.4775111 C8.3827391,22.6608557 8.47703061,22.8284851 8.62894472,22.9227766 C8.71275939,22.9751607 8.81228932,23.0013528 8.90658083,23.0013528 C8.98515709,23.0013528 9.06897177,22.9803992 9.14230961,22.9437302 L13.3330435,20.8483633 C13.5111497,20.7645486 13.6211564,20.581204 13.6211564,20.3821442 L13.6211564,14.2531959 L21.5,3 C21.6047683,2.83760906 20.5890531,1.67286777 20.5,1.5 C20.4109469,1.33237065 19.1938214,1 19,1 L0.525113089,1 C0.331291647,1 0.153185458,1.10476835 0.0641323629,1.27763612 C-0.0301591492,1.44526547 -0.0196823145,1.65480217 0.0903244496,1.81195469 L8.3827391,14.2531959 Z M20.4991984,2.04768347 L12.6625261,13.8079304 C12.6049035,13.8917451 12.573473,13.991275 12.573473,14.0960434 L12.573473,20.0573623 L9.43042257,21.6288875 L9.43042257,14.0960434 C9.43042257,13.991275 9.39899206,13.8917451 9.34136947,13.8079304 L1.50469713,2.04768347 L20.4991984,2.04768347 Z" id="Shape" stroke="#858585" stroke-width="0.4" fill="#858585"></path>
                <circle id="Oval" stroke="#FFFFFF" fill="#FF7A77" cx="17" cy="6" r="5.5"></circle>
            </g>
        </g>
    </g>
</svg>