<?xml version="1.0" encoding="UTF-8"?>
<svg width="25px" height="24px" viewBox="0 0 25 24" version="1.1" xmlns="http://www.w3.org/2000/svg" xmlns:xlink="http://www.w3.org/1999/xlink">
    <!-- Generator: sketchtool 62 (101010) - https://sketch.com -->
    <title>A1C9C456-C985-44B0-860A-0FBA916C397F</title>
    <desc>Created with sketchtool.</desc>
    <g id="Asset-Artboard-Page" stroke="none" stroke-width="1" fill="none" fill-rule="evenodd">
        <g id="Icons/Security/View-Password-Copy-Icons/Security/Hide-Password" transform="translate(0.666667, 0.000000)">
            <path d="M1.8,11.9693725 C3.30687467,16.28 7.38302485,19.15 12.0445796,19.15 C16.7061343,19.15 20.7822845,16.28 22.3,11.9693725 C20.7822845,7.6587451 16.7061343,4.8 12.0445796,4.8 C7.38302485,4.8 3.30687467,7.6587451 1.8,11.9693725 Z M0.054717186,12.3277612 C-0.018239062,12.1128358 -0.018239062,11.8764179 0.054717186,11.6614925 C1.6910216,6.48179104 6.49571165,3 11.9986972,3 C17.5016828,3 22.3063728,6.48179104 23.9530996,11.6614925 C24.0156335,11.8764179 24.0156335,12.1128358 23.9530996,12.3277612 C22.3063728,17.518209 17.5016828,21 11.9986972,21 C6.49571165,21 1.6910216,17.518209 0.054717186,12.3277612 Z" id="Fill-1706" fill="#858585"></path>
            <line x1="4.22900523" y1="3.01860045" x2="21.5" y2="21.5" id="Line" stroke="#858585" stroke-width="2" fill="#858585" stroke-linecap="round"></line>
            <path d="M12.5,16 C14.9852814,16 17,13.9852814 17,11.5 C17,9.01471863 14.9852814,7 12.5,7 C10.0147186,7 8,9.01471863 8,11.5 C8,13.9852814 10.0147186,16 12.5,16 Z" id="Oval" stroke="#858585" stroke-width="2" stroke-linecap="round" stroke-dasharray="6,162" transform="translate(12.500000, 11.500000) rotate(88.000000) translate(-12.500000, -11.500000) "></path>
            <path d="M12.5,16 C14.9852814,16 17,13.9852814 17,11.5 C17,9.01471863 14.9852814,7 12.5,7 C10.0147186,7 8,9.01471863 8,11.5 C8,13.9852814 10.0147186,16 12.5,16 Z" id="Oval" stroke="#858585" stroke-width="2" stroke-linecap="round" stroke-dasharray="6,162" transform="translate(12.500000, 11.500000) rotate(-91.000000) translate(-12.500000, -11.500000) "></path>
        </g>
    </g>
</svg>