<?xml version="1.0" encoding="UTF-8"?>
<svg width="48px" height="48px" viewBox="0 0 48 48" version="1.1" xmlns="http://www.w3.org/2000/svg" xmlns:xlink="http://www.w3.org/1999/xlink">
    <!-- Generator: sketchtool 64 (101010) - https://sketch.com -->
    <title>61F8FC96-4131-424B-87E3-768B7E6985FC</title>
    <desc>Created with sketchtool.</desc>
    <g id="ASIN" stroke="none" stroke-width="1" fill="none" fill-rule="evenodd">
        <g id="ASIN---Main-View" transform="translate(-293.000000, -478.000000)" fill="#858585">
            <g id="Image" transform="translate(192.000000, 377.000000)">
                <g id="Icons/General/Image" transform="translate(101.000000, 101.000000)">
                    <path d="M45.5855686,0.414203644 C46.1379007,-0.138067881 47.0334188,-0.138067881 47.5857509,0.414203644 C48.138083,0.966535738 48.138083,1.86193275 47.5857509,2.41426484 L47.5857509,2.41426484 L2.41432541,47.5855692 C2.13818965,47.8616444 1.77628766,47.9997426 1.4143251,47.9997426 C1.05230197,47.9997426 0.690399976,47.8616444 0.414203644,47.5855692 C-0.138067881,47.0331766 -0.138067881,46.1377795 0.414203644,45.5854475 L0.414203644,45.5854475 Z M46.0291787,6.34733695 L46.0291787,41.7147012 C46.0291787,42.4957433 45.3959259,43.1289355 44.6149444,43.1289355 L44.6149444,43.1289355 L9.247459,43.1289355 L11.9429276,40.4334851 L43.200589,40.4334851 L43.200589,9.17586601 L46.0291787,6.34733695 Z M38.7523744,4.87077682 L35.9238454,7.69936645 L4.79918383,7.69936645 L4.79918383,39.1690311 L1.97065477,42.1974997 L1.97065477,6.28507164 C1.97065477,5.50396903 2.60384698,4.87077682 3.38494958,4.87077682 L3.38494958,4.87077682 L38.7523744,4.87077682 Z M33.5615985,22.1281213 L41.8092895,29.2018315 C42.4793147,29.7766702 42.5590796,30.782638 41.9847723,31.4532832 C41.6657126,31.8205413 41.2190292,32.0121543 40.7723457,32.0121543 C40.4054272,32.0121543 40.0385086,31.8844123 39.735402,31.6289284 L33.3223038,26.1200571 L25.3458134,31.4532832 L22.9720526,28.8741622 L25.1705963,26.6892145 L25.8403558,27.2857023 L33.5615985,22.1281213 Z M15.2635296,15.9007016 L21.4673978,22.5786068 L19.1412746,24.7735645 L15.2156707,20.5473148 L8.40374796,27.5890894 C7.78158171,28.2277992 6.77654393,28.2437669 6.15437769,27.6369927 C5.51625846,27.0142507 5.50030548,26.0082829 6.10651874,25.3695732 L15.2635296,15.9007016 Z M23.3857208,8.50851268 C25.7155719,8.50851268 27.6196635,10.4126042 27.6196635,12.754282 C27.6196635,15.0959598 25.7155719,16.9882246 23.3857208,16.9882246 C21.044043,16.9882246 19.1399515,15.0959598 19.1399515,12.754282 C19.1399515,10.4126042 21.044043,8.50851268 23.3857208,8.50851268 Z M23.3857307,10.8707181 C22.3432496,10.8707181 21.502157,11.7118108 21.502157,12.7542918 C21.502157,13.7849265 22.3432496,14.6260192 23.3857307,14.6260192 C24.4163653,14.6260192 25.257458,13.7849265 25.257458,12.7542918 C25.257458,11.7118108 24.4163653,10.8707181 23.3857307,10.8707181 Z" id="Combined-Shape"></path>
                </g>
            </g>
        </g>
    </g>
</svg>