<?xml version="1.0" encoding="UTF-8"?>
<svg width="25px" height="24px" viewBox="0 0 25 24" version="1.1" xmlns="http://www.w3.org/2000/svg" xmlns:xlink="http://www.w3.org/1999/xlink">
    <!-- Generator: sketchtool 62 (101010) - https://sketch.com -->
    <title>928E9DEE-4239-4C3E-BAFB-609D8F9E6CDC</title>
    <desc>Created with sketchtool.</desc>
    <g id="Asset-Artboard-Page" stroke="none" stroke-width="1" fill="none" fill-rule="evenodd">
        <g id="Icons/Notification/None-Copy-26-Icons/General/Information" transform="translate(0.666667, 0.000000)" fill="#858585">
            <path d="M13,11.2562954 L13,17.6543584 C13,18.0978208 12.9014778,18.4323245 12.7142857,18.6600484 C12.5270936,18.8866828 12.2807882,19 11.9852217,19 C11.6896552,19 11.453202,18.883414 11.2758621,18.6513317 C11.08867,18.4192494 11,18.0869249 11,17.6543584 L11,11.3216707 C11,10.8836562 11.08867,10.5546005 11.2758621,10.3323245 C11.453202,10.111138 11.6896552,10 11.9852217,10 C12.2807882,10 12.5270936,10.111138 12.7142857,10.3323245 C12.9014778,10.5546005 13,10.8618644 13,11.2562954 Z M12.0147783,7 C11.729064,7 11.4926108,6.9124308 11.2955665,6.7372924 C11.0985222,6.56316054 11,6.31555108 11,5.9964771 C11,5.70659285 11.0985222,5.46804227 11.3054187,5.28082536 C11.5024631,5.09360845 11.7389163,5 12.0147783,5 C12.270936,5 12.4975369,5.08454957 12.6945813,5.25465526 C12.9014778,5.42476095 13,5.67136387 13,5.9964771 C13,6.31051837 12.9014778,6.55712129 12.7044335,6.73326623 C12.5073892,6.91142426 12.2807882,7 12.0147783,7 L12.0147783,7 Z" id="Fill-1177" stroke="#858585" stroke-width="0.8"></path>
            <path d="M12.0044748,2 C9.33456894,2 6.81810596,3.04030278 4.93587348,4.92757774 C3.04341148,6.81689853 2,9.32917349 2,12 C2,14.6728723 3.04341148,17.1841244 4.93587348,19.0724223 C6.81810596,20.9607201 9.33456894,22 12.0044748,22 C14.6743806,22 17.1908436,20.9596972 19.0730761,19.0703764 C22.9807544,15.1710311 22.9705249,8.82692308 19.0730761,4.92757774 C17.1908436,3.04030278 14.6743806,2 12.0044748,2 Z M12.0038213,24 C8.79397092,24 5.7879206,22.7527174 3.51555037,20.4874321 C1.25337013,18.2211277 0,15.2068614 0,12 C0,8.79415761 1.25337013,5.7798913 3.51555037,3.51358696 C5.7879206,1.24830163 8.79397092,0 12.0038213,0 C15.2136716,0 18.2197219,1.24830163 20.4920921,3.51358696 C25.1693026,8.19191576 25.1693026,15.8050272 20.4920921,20.485394 C18.2197219,22.7516984 15.2136716,24 12.0038213,24 L12.0038213,24 Z" id="Fill-1178"></path>
        </g>
    </g>
</svg>