<?xml version="1.0" encoding="UTF-8"?>
<svg width="25px" height="24px" viewBox="0 0 25 24" version="1.1" xmlns="http://www.w3.org/2000/svg" xmlns:xlink="http://www.w3.org/1999/xlink">
    <!-- Generator: sketchtool 62 (101010) - https://sketch.com -->
    <title>BF0BE20A-1940-4D2C-A5A5-E67717627FEA</title>
    <desc>Created with sketchtool.</desc>
    <g id="Asset-Artboard-Page" stroke="none" stroke-width="1" fill="none" fill-rule="evenodd">
        <g id="Icons/Arrows/Down-Copy-3-Icons/Arrows/Left" transform="translate(0.666667, 0.000000)" fill="#858585">
            <path d="M19.758729,6.69301573 L12.0647059,14.5605882 L12.0647059,14.5605882 L4.2584687,6.86999901 C3.75051067,6.36956629 2.93304845,6.37566675 2.43261572,6.88362478 C2.42957132,6.88671496 2.42654251,6.88982047 2.42352941,6.89294118 C1.92201108,7.41237088 1.93307733,8.23900741 2.44832074,8.74482564 L11.4136364,17.5461417 C11.8077488,17.9330446 12.4408868,17.9272003 12.8277897,17.5330879 C12.8284994,17.5323651 12.8292079,17.5316412 12.8299153,17.5309162 L21.636242,8.50579874 C22.1366269,7.99298196 22.1265488,7.17161975 21.613732,6.6712349 C21.6121001,6.66964249 21.6104639,6.66805438 21.6088235,6.66647059 C21.0896835,6.16523193 20.2632748,6.17708924 19.758729,6.69301573 Z" id="Path" transform="translate(12.032353, 12.004706) scale(-1, 1) rotate(-90.000000) translate(-12.032353, -12.004706) "></path>
        </g>
    </g>
</svg>