<?xml version="1.0" encoding="UTF-8"?>
<svg width="22px" height="23px" viewBox="0 0 22 23" version="1.1" xmlns="http://www.w3.org/2000/svg" xmlns:xlink="http://www.w3.org/1999/xlink">
    <!-- Generator: sketchtool 64 (101010) - https://sketch.com -->
    <title>8D3C13F1-30B7-4760-80D5-980A055F7B3B</title>
    <desc>Created with sketchtool.</desc>
    <g id="Style-Guide" stroke="none" stroke-width="1" fill="none" fill-rule="evenodd">
        <g transform="translate(-868.000000, -2754.000000)" fill="#16ABE0" id="Icon_Group" stroke="#16ABE0" stroke-width="0.2">
            <g transform="translate(35.000000, 2626.000000)">
                <g id="Icons/Notification/None-Copy-12" transform="translate(832.000000, 128.000000)">
                    <path d="M14.1897269,1 C14.6994798,1 15.1,1.336 15.1,1.75 C15.1,2.16475 14.6994798,2.5 14.1897269,2.5 L2.6,2.5 L2.6,21.399 L14.1821884,21.4 C14.6919413,21.4 15.0924615,21.736 15.0924615,22.15 C15.0924615,22.56475 14.6919413,22.9 14.1821884,22.9 L2.00273456,22.9 C1.50208436,22.9 1.10136414,22.56475 1.10136414,22.15 L1.104,22.106 L1.1,22.1060486 L1.1,1.75 L1.1,1.75 C1.1,1.336 1.50962289,1 2.01027308,1 L14.1897269,1 Z M17.6774737,6.19917358 L22.6997895,11.4924984 C22.7661053,11.5630494 22.8128421,11.6449153 22.8444211,11.7321057 C22.8791579,11.8146371 22.9,11.9051554 22.9,12.0009984 C22.9,12.0975069 22.8785263,12.1873596 22.8437895,12.2705566 C22.8122105,12.3564159 22.7654737,12.4382817 22.6997895,12.5075016 L17.6774737,17.8008264 C17.4248421,18.0663912 17.0162105,18.0663912 16.7642105,17.8008264 C16.5122105,17.5345961 16.5122105,17.1046341 16.7642105,16.8384037 L20.7229474,12.6665742 L11.5315789,12.6665742 C11.1829474,12.6665742 10.9,12.3683962 10.9,12.0009984 C10.9,11.6336005 11.1829474,11.3354225 11.5315789,11.3354225 L20.7242105,11.3354225 L16.7642105,7.16226185 C16.5122105,6.8960315 16.5122105,6.46540392 16.7642105,6.19917358 C17.0162105,5.93360881 17.4248421,5.93360881 17.6774737,6.19917358 Z" id="Logout"></path>
                </g>
            </g>
        </g>
    </g>
</svg>