<?xml version="1.0" encoding="UTF-8"?>
<svg width="25px" height="24px" viewBox="0 0 25 24" version="1.1" xmlns="http://www.w3.org/2000/svg" xmlns:xlink="http://www.w3.org/1999/xlink">
    <!-- Generator: sketchtool 62 (101010) - https://sketch.com -->
    <title>CC81799C-2A68-4069-BBCE-22BB63EDAA7D</title>
    <desc>Created with sketchtool.</desc>
    <g id="Asset-Artboard-Page" stroke="none" stroke-width="1" fill="none" fill-rule="evenodd">
        <g id="Icons/Notification/None-Copy-27-Icons/Navigation/Menu" transform="translate(0.666667, 0.000000)" fill="#858585">
            <path d="M20.125,18 C20.608,18 21,18.448 21,19 C21,19.552 20.608,20 20.125,20 L0.875,20 C0.392,20 0,19.552 0,19 C0,18.448 0.392,18 0.875,18 L20.125,18 Z M14.375,12 C14.72,12 15,12.448 15,13 C15,13.552 14.72,14 14.375,14 L0.625,14 C0.28,14 0,13.552 0,13 C0,12.448 0.28,12 0.625,12 L14.375,12 Z M19.1666667,6 C19.6266667,6 20,6.448 20,7 C20,7.552 19.6266667,8 19.1666667,8 L0.833333333,8 C0.373333333,8 0,7.552 0,7 C0,6.448 0.373333333,6 0.833333333,6 L19.1666667,6 Z M23,0 C23.552,0 24,0.448 24,1 C24,1.552 23.552,2 23,2 L1,2 C0.448,2 0,1.552 0,1 C0,0.448 0.448,0 1,0 L23,0 Z" id="Menu"></path>
        </g>
    </g>
</svg>