<?xml version="1.0" encoding="UTF-8"?>
<svg width="25px" height="24px" viewBox="0 0 25 24" version="1.1" xmlns="http://www.w3.org/2000/svg" xmlns:xlink="http://www.w3.org/1999/xlink">
    <!-- Generator: sketchtool 62 (101010) - https://sketch.com -->
    <title>9F5490A9-0535-4945-B40D-82CBC25BDC23</title>
    <desc>Created with sketchtool.</desc>
    <g id="Asset-Artboard-Page" stroke="none" stroke-width="1" fill="none" fill-rule="evenodd">
        <g id="Icons/Notification/None-Copy-Icons/Notification/New" transform="translate(0.666667, 0.000000)">
            <path d="M9.88461538,19.9285714 C9.88461538,21.1120387 10.8317054,22.0714286 12,22.0714286 C13.1682946,22.0714286 14.1153846,21.1120387 14.1153846,19.9285714 L15.8076923,19.9285714 C15.8076923,22.0588126 14.1029304,23.7857143 12,23.7857143 C9.89706963,23.7857143 8.19230769,22.0588126 8.19230769,19.9285714 L9.88461538,19.9285714 Z M12,0.214285714 C13.0699679,0.214285714 14.0934994,0.415382825 15.0357802,0.782301002 C14.434749,1.1244257 13.8990713,1.56702491 13.4511347,2.08731994 C12.9840827,1.98309488 12.4983386,1.92857143 12,1.92857143 C8.26079754,1.92857143 5.23076923,4.99732247 5.23076923,8.7853926 L5.23076923,14.3602344 C5.23076923,15.0681155 4.66162707,15.6428571 3.96544008,15.6428571 C3.26211307,15.6428571 2.69230769,16.2189078 2.69230769,16.9278576 L2.69230769,17.3572833 L21.3071045,17.3572833 L21.3071045,17.3572833 L21.3076923,16.9278576 L21.3076923,16.9278576 C21.3076923,16.2171025 20.7402422,15.6428571 20.0345599,15.6428571 C19.3354556,15.6428571 18.7692308,15.0649664 18.7692308,14.3602344 L18.7698147,11.9510754 C19.3655795,11.8747712 19.9340171,11.7110921 20.4618684,11.4732972 L20.4615385,13.95933 C21.8985596,14.168279 23,15.4165523 23,16.9278576 L23,17.3579565 C23,18.3073307 22.2423948,19.0714286 21.3071045,19.0714286 L2.69289547,19.0714286 C1.75786497,19.0714286 1,18.3046876 1,17.3579565 L1,16.9278576 C1,15.4180578 2.10340378,14.1688577 3.53846154,13.9594483 L3.53846154,8.7853926 C3.53846154,4.05047006 7.32623936,0.214285714 12,0.214285714 Z" id="Combined-Shape" stroke="#858585" stroke-width="0.4" fill="#858585"></path>
            <circle id="Oval" stroke="#FFFFFF" fill="#FF7A77" cx="17.5" cy="6.2" r="4.5"></circle>
        </g>
    </g>
</svg>