<?xml version="1.0" encoding="UTF-8"?>
<svg width="16px" height="16px" viewBox="0 0 16 16" version="1.1" xmlns="http://www.w3.org/2000/svg" xmlns:xlink="http://www.w3.org/1999/xlink">
    <title>C5E57D3A-591C-4B4E-88B4-45454359C6BC</title>
    <g id="Style-Guide" stroke="none" stroke-width="1" fill="none" fill-rule="evenodd">
        <g id="Style-Guide---Iconography" transform="translate(-644.000000, -148.000000)" fill="#0676ED">
            <g id="Icons/Navigation/Asin-Copy-9" transform="translate(644.000000, 148.000000)">
                <path d="M11.0510255,2.22044605e-16 C11.2561161,2.22044605e-16 11.4172587,0.162607581 11.4172587,0.364768357 L11.417,1.315 L13.5560612,1.31550998 C14.5375664,1.31550998 15.3432796,2.11682842 15.3432796,3.10419337 L15.3432796,14.2113166 C15.3432796,15.1972166 14.5375664,16 13.5560612,16 L2.45186779,16 C1.45571324,16 0.65,15.1972166 0.65,14.2113166 L0.65,3.10419337 C0.65,2.11682842 1.45571324,1.31550998 2.45186779,1.31550998 L4.532,1.315 L4.53207288,0.364768357 C4.53207288,0.162607581 4.69321553,2.22044605e-16 4.89830617,2.22044605e-16 C5.08874748,2.22044605e-16 5.26453946,0.162607581 5.26453946,0.364768357 L5.264,1.315 L10.684,1.315 L10.6847922,0.364768357 C10.6847922,0.162607581 10.8459348,2.22044605e-16 11.0510255,2.22044605e-16 Z M14.61,5.443 L1.382,5.443 L1.38246658,14.2113166 C1.38246658,14.79436 1.86589452,15.2689984 2.45186779,15.2689984 L13.5560612,15.2689984 C14.1420344,15.2689984 14.610813,14.79436 14.610813,14.2113166 L14.61,5.443 Z M4.532,2.046 L2.45186779,2.04651163 C1.86589452,2.04651163 1.38246658,2.51968504 1.38246658,3.10419337 L1.382,4.714 L14.61,4.714 L14.610813,3.10419337 C14.610813,2.51968504 14.1420344,2.04651163 13.5560612,2.04651163 L11.417,2.046 L11.4172587,2.849295 C11.4172587,3.05145578 11.2561161,3.21406336 11.0510255,3.21406336 C10.8459348,3.21406336 10.6847922,3.05145578 10.6847922,2.849295 L10.684,2.046 L5.264,2.046 L5.26453946,2.849295 C5.26453946,3.05145578 5.08874748,3.21406336 4.89830617,3.21406336 C4.69321553,3.21406336 4.53207288,3.05145578 4.53207288,2.849295 L4.532,2.046 Z" id="Combined-Shape"></path>
            </g>
        </g>
    </g>
</svg>