<?xml version="1.0" encoding="UTF-8"?>
<svg width="16px" height="17px" viewBox="0 0 16 17" version="1.1" xmlns="http://www.w3.org/2000/svg" xmlns:xlink="http://www.w3.org/1999/xlink">
    <title>7F850FBB-88AD-475C-AD64-B24BD5869278</title>
    <g id="Style-Guide" stroke="none" stroke-width="1" fill="none" fill-rule="evenodd">
        <g id="Style-Guide---Iconography" transform="translate(-776.000000, -148.000000)">
            <g id="Icons/Navigation/Asin-Copy-11" transform="translate(776.000000, 148.000000)">
                <path d="M12.9327019,4.6 C13.0792622,4.6 13.1944167,4.7162014 13.1944167,4.860668 L13.194,5.54 L14.7228315,5.54007976 C15.4242273,5.54007976 16,6.11271186 16,6.81829511 L16,14.7555833 C16,15.4601196 15.4242273,16.0337986 14.7228315,16.0337986 L6.78763709,16.0337986 C6.07577268,16.0337986 5.5,15.4601196 5.5,14.7555833 L5.5,6.81829511 C5.5,6.11271186 6.07577268,5.54007976 6.78763709,5.54007976 L8.274,5.54 L8.27417747,4.860668 C8.27417747,4.7162014 8.389332,4.6 8.53589232,4.6 C8.67198405,4.6 8.79760718,4.7162014 8.79760718,4.860668 L8.797,5.54 L12.67,5.54 L12.670987,4.860668 C12.670987,4.7162014 12.7861416,4.6 12.9327019,4.6 Z M15.299,8.49 L6.299,8.49 L6.3,14.5800798 C6.3,14.9769333 6.62890365,15.3 7.02757475,15.3 L14.582392,15.3 C14.9810631,15.3 15.3,14.9769333 15.3,14.5800798 L15.299,8.49 Z M8.274,6.3 L7.02757475,6.3 C6.62890365,6.3 6.3,6.62206958 6.3,7.01992023 L6.299,7.968 L15.299,7.968 L15.3,7.01992023 C15.3,6.62206958 14.9810631,6.3 14.582392,6.3 L13.194,6.3 L13.1944167,6.63614158 C13.1944167,6.78060818 13.0792622,6.89680957 12.9327019,6.89680957 C12.7861416,6.89680957 12.670987,6.78060818 12.670987,6.63614158 L12.67,6.3 L8.797,6.3 L8.79760718,6.63614158 C8.79760718,6.78060818 8.67198405,6.89680957 8.53589232,6.89680957 C8.389332,6.89680957 8.27417747,6.78060818 8.27417747,6.63614158 L8.274,6.3 Z" id="Combined-Shape-Copy" fill="#F79764" fill-rule="nonzero"></path>
                <path d="M7.43270189,2.07389661e-13 C7.57926221,2.07389661e-13 7.69441675,0.116201396 7.69441675,0.260667996 L7.694,0.94 L9.22283151,0.940079761 C9.92422732,0.940079761 10.5,1.51271186 10.5,2.21829511 L10.5,4.999 L9.799,4.999 L9.799,3.89 L0.799,3.89 L0.8,9.98007977 C0.8,10.3769333 1.12890365,10.7 1.52757475,10.7 L4.5,10.7 L4.5,11.433 L1.28763709,11.4337986 C0.575772682,11.4337986 0,10.8601196 0,10.1555833 L0,2.21829511 C0,1.51271186 0.575772682,0.940079761 1.28763709,0.940079761 L2.774,0.94 L2.77417747,0.260667996 C2.77417747,0.116201396 2.889332,2.07389661e-13 3.03589232,2.07389661e-13 C3.17198405,2.07389661e-13 3.29760718,0.116201396 3.29760718,0.260667996 L3.297,0.94 L7.17,0.94 L7.17098704,0.260667996 C7.17098704,0.116201396 7.28614158,2.07389661e-13 7.43270189,2.07389661e-13 Z M2.774,1.7 L1.52757475,1.7 C1.12890365,1.7 0.8,2.02206958 0.8,2.41992023 L0.799,3.368 L9.799,3.368 L9.8,2.41992023 C9.8,2.02206958 9.48106312,1.7 9.08239203,1.7 L7.694,1.7 L7.69441675,2.03614158 C7.69441675,2.18060818 7.57926221,2.29680957 7.43270189,2.29680957 C7.28614158,2.29680957 7.17098704,2.18060818 7.17098704,2.03614158 L7.17,1.7 L3.297,1.7 L3.29760718,2.03614158 C3.29760718,2.18060818 3.17198405,2.29680957 3.03589232,2.29680957 C2.889332,2.29680957 2.77417747,2.18060818 2.77417747,2.03614158 L2.774,1.7 Z" id="Combined-Shape" fill="#0676ED"></path>
            </g>
        </g>
    </g>
</svg>