<?xml version="1.0" encoding="UTF-8"?>
<svg width="12px" height="12px" viewBox="0 0 12 12" version="1.1" xmlns="http://www.w3.org/2000/svg" xmlns:xlink="http://www.w3.org/1999/xlink">
    <title>201333F0-E894-48D1-8168-E457FF8894A1</title>
    <g id="Consideration---Content" stroke="none" stroke-width="1" fill="none" fill-rule="evenodd">
        <g id="Consideration---Content---Catalogue-Health-All" transform="translate(-932.000000, -437.000000)">
            <g id="TableData" transform="translate(290.000000, 178.000000)">
                <g id="Data" transform="translate(35.000000, 173.000000)">
                    <g id="Table01-2" transform="translate(0.000000, 50.000000)">
                        <g id="Icons/Circle/Amber" transform="translate(607.000000, 36.000000)">
                            <path d="M6.00178381,1.01923809 C4.67065886,1.01923809 3.41954411,1.53752066 2.47878735,2.4777678 C1.53803059,3.41903418 1.0192384,4.67014893 1.0192384,6.00127388 C1.0192384,7.33290845 1.53752097,8.5840232 2.47776811,9.52477996 C3.41852487,10.4655367 4.66963963,10.9833097 6.00076457,10.9833097 C7.33188952,10.9833097 8.5835139,10.4650271 9.52528989,9.52376072 C11.4669385,7.58160254 11.4669385,4.4204356 9.52478027,2.4777678 C8.5835139,1.53752066 7.33239914,1.01923809 6.00178381,1.01923809 Z M6.00076457,12.0025478 C4.39750306,12.0025478 2.89055954,11.3787741 1.75716678,10.2458909 C0.623774024,9.11198854 -0.000509307281,7.60504502 5.32907052e-15,6.00127388 C5.32907052e-15,4.39801236 0.624793262,2.89055923 1.75818602,1.75716647 C2.89157878,0.624283331 4.39852229,8.8817842e-16 6.00178381,8.8817842e-16 C7.60453571,8.8817842e-16 9.11198885,0.624283331 10.2453816,1.75716647 C12.584533,4.09733713 12.5850426,7.90470102 10.2458912,10.2448717 C9.11147923,11.3782644 7.60402609,12.0025478 6.00076457,12.0025478 L6.00076457,12.0025478 Z" id="Circle" fill="#858585"></path>
                            <circle id="Oval" fill="#FFFFFF" cx="6" cy="6" r="5"></circle>
                        </g>
                    </g>
                </g>
            </g>
        </g>
    </g>
</svg>