<?xml version="1.0" encoding="UTF-8"?>
<svg width="25px" height="24px" viewBox="0 0 25 24" version="1.1" xmlns="http://www.w3.org/2000/svg" xmlns:xlink="http://www.w3.org/1999/xlink">
    <!-- Generator: sketchtool 62 (101010) - https://sketch.com -->
    <title>9ECF5EA8-7E70-42E3-A245-78BDF5A0B289</title>
    <desc>Created with sketchtool.</desc>
    <g id="Asset-Artboard-Page" stroke="none" stroke-width="1" fill="none" fill-rule="evenodd">
        <g id="Icons/Security/View-Password-Copy-4-Icons/Filters/Normal" transform="translate(0.666667, 0.000000)" fill="#858585" stroke="#858585" stroke-width="0.4">
            <path d="M9.3827391,14.2531959 L9.3827391,22.4775111 C9.3827391,22.6608557 9.47703061,22.8284851 9.62894472,22.9227766 C9.71275939,22.9751607 9.81228932,23.0013528 9.90658083,23.0013528 C9.98515709,23.0013528 10.0689718,22.9803992 10.1423096,22.9437302 L14.3330435,20.8483633 C14.5111497,20.7645486 14.6211564,20.581204 14.6211564,20.3821442 L14.6211564,14.2531959 L22.9135711,1.81195469 C23.0183394,1.64956375 23.0288163,1.44526547 22.9397632,1.2723977 C22.8507101,1.10476835 22.6726039,1 22.4787825,1 L1.52511309,1 C1.33129165,1 1.15318546,1.10476835 1.06413236,1.27763612 C0.969840851,1.44526547 0.980317685,1.65480217 1.09032445,1.81195469 L9.3827391,14.2531959 Z M21.4991984,2.04768347 L13.6625261,13.8079304 C13.6049035,13.8917451 13.573473,13.991275 13.573473,14.0960434 L13.573473,20.0573623 L10.4304226,21.6288875 L10.4304226,14.0960434 C10.4304226,13.991275 10.3989921,13.8917451 10.3413695,13.8079304 L2.50469713,2.04768347 L21.4991984,2.04768347 Z" id="Shape"></path>
        </g>
    </g>
</svg>