<?xml version="1.0" encoding="UTF-8"?>
<svg width="16px" height="16px" viewBox="0 0 16 16" version="1.1" xmlns="http://www.w3.org/2000/svg" xmlns:xlink="http://www.w3.org/1999/xlink">
    <!-- Generator: sketchtool 64 (101010) - https://sketch.com -->
    <title>3C2EDF92-9895-4BDE-99EA-CCB755C565FE</title>
    <desc>Created with sketchtool.</desc>
    <g id="Style-Guide" stroke="none" stroke-width="1" fill="none" fill-rule="evenodd">
        <g transform="translate(-488.000000, -8741.000000)" fill="#FF7A77" id="Failure-Copy-2">
            <g transform="translate(3.000000, 8709.000000)">
                <g id="Group-2" transform="translate(485.000000, 20.000000)">
                    <g id="Group">
                        <g id="Icons/General/Check" transform="translate(0.000000, 12.000000)">
                            <path d="M15.3268826,0 C15.6970972,0 16,0.301543898 16,0.673089058 L16,15.3269109 C16,15.6984561 15.6970972,16 15.3268826,16 L0.673117375,16 C0.296171645,16 0,15.6984561 0,15.3269109 L0,0.673089058 C0,0.301543898 0.296171645,0 0.673117375,0 L15.3268826,0 Z M14.666,5.552 L1.333,5.552 L1.33333333,14.6666667 L14.6666667,14.6666667 L14.666,5.552 Z M9.89333333,7.66066667 C10.1533333,7.92133333 10.1533333,8.34333333 9.89333333,8.60333333 L8.863,9.634 L9.89333333,10.666 C10.1533333,10.9266667 10.1533333,11.3486667 9.89333333,11.6086667 C9.76666667,11.7393333 9.59333333,11.804 9.42666667,11.804 C9.25333333,11.804 9.08666667,11.7393333 8.95333333,11.6086667 L7.922,10.577 L6.89333333,11.6086667 C6.76,11.7393333 6.58666667,11.804 6.42,11.804 C6.24666667,11.804 6.08,11.7393333 5.94666667,11.6086667 C5.68666667,11.3486667 5.68666667,10.9266667 5.94666667,10.666 L6.978,9.634 L5.94666667,8.60333333 C5.68666667,8.34333333 5.68666667,7.92133333 5.94666667,7.66066667 C6.20666667,7.40066667 6.63333333,7.40066667 6.89333333,7.66066667 L7.922,8.691 L8.95333333,7.66066667 C9.21333333,7.40066667 9.63333333,7.40066667 9.89333333,7.66066667 Z M14.6666667,1.33333333 L1.33333333,1.33333333 L1.333,4.219 L14.666,4.219 L14.6666667,1.33333333 Z M3.02666667,1.95733333 C3.49333333,1.95733333 3.86666667,2.33333333 3.86666667,2.79733333 C3.86666667,3.26066667 3.49333333,3.63666667 3.02666667,3.63666667 C2.56666667,3.63666667 2.18666667,3.26066667 2.18666667,2.79733333 C2.18666667,2.33333333 2.56666667,1.95733333 3.02666667,1.95733333 Z M5.3,1.95733333 C5.76666667,1.95733333 6.14,2.33333333 6.14,2.79733333 C6.14,3.26066667 5.76666667,3.63666667 5.3,3.63666667 C4.84,3.63666667 4.46,3.26066667 4.46,2.79733333 C4.46,2.33333333 4.84,1.95733333 5.3,1.95733333 Z M7.58,1.95733333 C8.04,1.95733333 8.42,2.33333333 8.42,2.79733333 C8.42,3.26066667 8.04,3.63666667 7.58,3.63666667 C7.11333333,3.63666667 6.74,3.26066667 6.74,2.79733333 C6.74,2.33333333 7.11333333,1.95733333 7.58,1.95733333 Z" id="Combined-Shape"></path>
                        </g>
                    </g>
                </g>
            </g>
        </g>
    </g>
</svg>