<?xml version="1.0" encoding="UTF-8"?>
<svg width="8px" height="14px" viewBox="0 0 8 14" version="1.1" xmlns="http://www.w3.org/2000/svg" xmlns:xlink="http://www.w3.org/1999/xlink">
    <title>1BD5218D-E7AD-4826-84A3-E54978FF23E0</title>
    <g id="Consideration---Content" stroke="none" stroke-width="1" fill="none" fill-rule="evenodd">
        <g id="Consideration---Content---Presets-Dropdown" transform="translate(-883.000000, -111.000000)" fill="#0676ED">
            <g id="CatDropdown-Copy" transform="translate(598.000000, 72.000000)">
                <g id="Icons/Arrows/Right" transform="translate(285.000000, 39.000000)">
                    <path d="M4.35038545,3.39592881 L10.8537781,9.89932147 C11.0487406,10.0922946 11.0487406,10.4086113 10.8537781,10.6015844 C10.7562968,10.6990657 10.6289744,10.748801 10.5016519,10.748801 C10.3743295,10.748801 10.247007,10.6990657 10.1515152,10.6015844 L3.999,4.45019898 L-2.1510178,10.6015844 C-2.24849906,10.6990657 -2.37582152,10.748801 -2.50314398,10.748801 C-2.63046645,10.748801 -2.75778891,10.6990657 -2.85527017,10.6015844 C-3.04824328,10.4086113 -3.04824328,10.0922946 -2.85527017,9.89932147 L3.64812249,3.39592881 C3.7347725,3.31016298 3.84500074,3.2625153 3.95767414,3.25298576 L4.04230744,3.25298576 C4.15488259,3.2625153 4.26461962,3.31016298 4.35038545,3.39592881 Z" id="Right" transform="translate(4.000000, 7.000000) rotate(-270.000000) translate(-4.000000, -7.000000) "></path>
                </g>
            </g>
        </g>
    </g>
</svg>