<?xml version="1.0" encoding="UTF-8"?>
<svg width="12px" height="12px" viewBox="0 0 12 12" version="1.1" xmlns="http://www.w3.org/2000/svg" xmlns:xlink="http://www.w3.org/1999/xlink">
    <title>FFFCD140-7DA2-4241-A4D3-6F1DFB002444</title>
    <g id="Style-Guide" stroke="none" stroke-width="1" fill="none" fill-rule="evenodd">
        <g id="Data-Load-Error" transform="translate(-461.000000, -407.000000)" fill="#858585" stroke="#858585" stroke-width="0.4">
            <g id="Discoverability" transform="translate(396.000000, 253.000000)">
                <g id="Group-2" transform="translate(20.000000, 72.000000)">
                    <g id="Group-20" transform="translate(45.000000, 77.000000)">
                        <g id="Icons/General/Information" transform="translate(0.000000, 5.000000)">
                            <path d="M11.4971568,6.21224951 C11.5447868,5.99334451 11.3026058,5.82711951 11.1154403,5.95022951 L10.4892368,6.35163951 C10.6480158,4.33328451 9.43183933,2.43397471 7.49607483,1.75428456 C5.45532533,1.03773456 3.18988033,1.87701471 2.10843248,3.75013451 C1.94142298,4.03899451 2.37468648,4.28953951 2.54174433,4.00070451 C3.50453733,2.33310471 5.51328783,1.58851456 7.33012983,2.22644971 C9.05661283,2.83264971 10.1360673,4.52205951 9.98967183,6.32191451 L9.42027683,5.82459451 C9.16891483,5.60558951 8.84040383,5.98260951 9.09177433,6.20163951 L10.0333098,7.02312451 C10.1172208,7.09617951 10.2393083,7.10497951 10.3328418,7.04472451 L11.3848038,6.37119451 C11.4421803,6.33559451 11.4827203,6.27822451 11.4971578,6.21223951 L11.4971568,6.21224951 Z M9.93020383,8.18140451 C9.99598633,7.90035451 9.61235133,7.74960951 9.46919183,8.00024951 C8.50640183,9.66785951 6.49764783,10.4124395 4.68080433,9.77450451 C2.95432333,9.16830451 1.87486798,7.47889451 2.02126348,5.67903951 L2.59065783,6.17635951 C2.73448633,6.30613451 2.96489133,6.23009951 3.00323133,6.04022451 C3.02139633,5.95059951 2.98913633,5.85820451 2.91916533,5.79931951 L1.97762798,4.97783451 C1.89371798,4.90477951 1.77162998,4.89597951 1.67809798,4.95623451 L0.626133983,5.62976451 C0.329884483,5.80577451 0.611543983,6.24596451 0.895494483,6.05074451 L1.52169848,5.64933451 C1.36292098,7.66767951 2.57909483,9.56699951 4.51486083,10.2466845 C6.55560983,10.9632345 8.82105383,10.1239595 9.90250283,8.25083951 C9.91517783,8.22923951 9.92451783,8.20578951 9.93021283,8.18142451 L9.93020383,8.18140451 Z" id="Shape"></path>
                        </g>
                    </g>
                </g>
            </g>
        </g>
    </g>
</svg>