<?xml version="1.0" encoding="UTF-8"?>
<svg width="25px" height="24px" viewBox="0 0 25 24" version="1.1" xmlns="http://www.w3.org/2000/svg" xmlns:xlink="http://www.w3.org/1999/xlink">
    <!-- Generator: sketchtool 62 (101010) - https://sketch.com -->
    <title>A128EA0B-3DFA-4008-A90F-FB7BD201B109</title>
    <desc>Created with sketchtool.</desc>
    <g id="Asset-Artboard-Page" stroke="none" stroke-width="1" fill="none" fill-rule="evenodd">
        <g id="Icons/Notification/None-Copy-10-Icons/General/Remove" transform="translate(0.666667, 0.000000)" fill="#858585">
            <g id="Group" transform="translate(8.000000, 8.000000)">
                <path d="M1.05655391,8.00052854 C0.785940803,8.00052854 0.516384778,7.89693446 0.309196617,7.69080338 C-0.103065539,7.27748414 -0.103065539,6.60835095 0.309196617,6.19608879 L6.19608879,0.309196617 C6.60835095,-0.103065539 7.27748414,-0.103065539 7.69080338,0.309196617 C8.10306554,0.722515856 8.10306554,1.39164905 7.69080338,1.80391121 L1.80391121,7.69080338 C1.59778013,7.89693446 1.32716702,8.00052854 1.05655391,8.00052854" id="Fill-1167"></path>
                <path d="M6.94344609,8.00052854 C6.67283298,8.00052854 6.40221987,7.89693446 6.19608879,7.69080338 L0.309196617,1.80391121 C-0.103065539,1.39164905 -0.103065539,0.722515856 0.309196617,0.309196617 C0.722515856,-0.103065539 1.39164905,-0.103065539 1.80391121,0.309196617 L7.69080338,6.19608879 C8.10306554,6.60835095 8.10306554,7.27748414 7.69080338,7.69080338 C7.4846723,7.89693446 7.2140592,8.00052854 6.94344609,8.00052854" id="Fill-1168"></path>
            </g>
            <path d="M12.0035676,2.03847618 C9.34131773,2.03847618 6.83908822,3.07504132 4.9575747,4.9555356 C3.07606118,6.83806835 2.03847681,9.34029787 2.03847681,12.0025478 C2.03847681,14.6658169 3.07504194,17.1680464 4.95553622,19.0495599 C6.83704974,20.9310734 9.33927925,21.9666193 12.0015291,21.9666193 C14.663779,21.9666193 17.1670278,20.9300542 19.0505798,19.0475214 C22.9338769,15.1632051 22.9338769,8.8408712 19.0495605,4.9555356 C17.1670278,3.07504132 14.6647983,2.03847618 12.0035676,2.03847618 Z M12.0015291,24.0050955 C8.79500611,24.0050955 5.78111908,22.7575481 3.51433356,20.4917818 C1.24754805,18.2239771 -0.00101861456,15.21009 1.0658141e-14,12.0025478 C1.0658141e-14,8.79602473 1.24958652,5.78111845 3.51637204,3.51433294 C5.78315755,1.24856666 8.79704459,1.77635684e-15 12.0035676,1.77635684e-15 C15.2090714,1.77635684e-15 18.2239777,1.24856666 20.4907632,3.51433294 C25.169066,8.19467425 25.1700853,15.809402 20.4917824,20.4897433 C18.2229585,22.7565289 15.2080522,24.0050955 12.0015291,24.0050955 L12.0015291,24.0050955 Z" id="Fill-1169"></path>
        </g>
    </g>
</svg>