<?xml version="1.0" encoding="UTF-8"?>
<svg width="25px" height="24px" viewBox="0 0 25 24" version="1.1" xmlns="http://www.w3.org/2000/svg" xmlns:xlink="http://www.w3.org/1999/xlink">
    <!-- Generator: sketchtool 62 (101010) - https://sketch.com -->
    <title>59D4F5E7-0A72-4813-924C-F3F1F09D5ECD</title>
    <desc>Created with sketchtool.</desc>
    <g id="Asset-Artboard-Page" stroke="none" stroke-width="1" fill="none" fill-rule="evenodd">
        <g id="Icons/Arrows/Down-Copy-2-Icons/Arrows/Right" transform="translate(0.666667, 0.000000)" fill="#858585">
            <path d="M19.758729,6.69125102 L12.0647059,14.5588235 L12.0647059,14.5588235 L4.2584687,6.86823431 C3.75051067,6.36780158 2.93304845,6.37390204 2.43261572,6.88186007 C2.42957132,6.88495026 2.42654251,6.88805576 2.42352941,6.89117647 C1.92201108,7.41060617 1.93307733,8.2372427 2.44832074,8.74306093 L11.4136364,17.5443769 C11.8077488,17.9312799 12.4408868,17.9254356 12.8277897,17.5313232 C12.8284994,17.5306004 12.8292079,17.5298765 12.8299153,17.5291515 L21.636242,8.50403403 C22.1366269,7.99121725 22.1265488,7.16985505 21.613732,6.66947019 C21.6121001,6.66787778 21.6104639,6.66628967 21.6088235,6.66470588 C21.0896835,6.16346722 20.2632748,6.17532453 19.758729,6.69125102 Z" id="Path" transform="translate(12.032353, 12.002941) rotate(-90.000000) translate(-12.032353, -12.002941) "></path>
        </g>
    </g>
</svg>