<?xml version="1.0" encoding="UTF-8"?>
<svg width="12px" height="12px" viewBox="0 0 12 12" version="1.1" xmlns="http://www.w3.org/2000/svg" xmlns:xlink="http://www.w3.org/1999/xlink">
    <!-- Generator: sketchtool 62 (101010) - https://sketch.com -->
    <title>CF9ECD54-F22E-4AB0-B266-6993A60622D9</title>
    <desc>Created with sketchtool.</desc>
    <g id="Asset-Artboard-Page" stroke="none" stroke-width="1" fill="none" fill-rule="evenodd">
        <g id="Icons/Arrows/Right-Large" fill="#858585">
            <path d="M10.9531579,6.22546382 C10.9268421,6.29701323 10.8878947,6.36523475 10.8331579,6.422918 L6.64789474,10.834022 C6.43736842,11.055326 6.09684211,11.055326 5.88684211,10.834022 C5.67684211,10.6121634 5.67684211,10.2538617 5.88684211,10.0320031 L9.18578947,6.55547852 L1.52631579,6.55547852 C1.23578947,6.55547852 1,6.30699687 1,6.00083197 C1,5.69466707 1.23578947,5.44618542 1.52631579,5.44618542 L9.18684211,5.44618542 L5.88684211,1.96855154 C5.67684211,1.74669292 5.67684211,1.3878366 5.88684211,1.16597798 C6.09684211,0.944674006 6.43736842,0.944674006 6.64789474,1.16597798 L10.8331579,5.577082 C10.8884211,5.63587454 10.9273684,5.70409606 10.9536842,5.77675476 C10.9826316,5.84553094 11,5.92096287 11,6.00083197 C11,6.08125572 10.9821053,6.156133 10.9531579,6.22546382 L10.9531579,6.22546382 Z" id="Shape"></path>
        </g>
    </g>
</svg>