<?xml version="1.0" encoding="UTF-8"?>
<svg width="48px" height="48px" viewBox="0 0 48 48" version="1.1" xmlns="http://www.w3.org/2000/svg" xmlns:xlink="http://www.w3.org/1999/xlink">
    <!-- Generator: sketchtool 64 (101010) - https://sketch.com -->
    <title>69E6703E-1EB3-489F-AC3F-77191720ED2F</title>
    <desc>Created with sketchtool.</desc>
    <g id="Filters" stroke="none" stroke-width="1" fill="none" fill-rule="evenodd">
        <g id="Session-Expired" transform="translate(-693.000000, -339.000000)">
            <g transform="translate(487.000000, 253.000000)" id="Icons/General/SessionE">
                <g transform="translate(206.000000, 86.000000)">
                    <g>
                        <g id="Group" transform="translate(8.000000, 0.000000)" fill="#858585">
                            <path d="M20,0 C31.0399385,0 40,8.96116025 40,20 C40,31.0399385 31.0388398,40 20,40 C8.96006153,40 0,31.0388398 0,20 C0,8.96006153 8.96116025,0 20,0 Z M20,2.79074878 C10.4894798,2.79074878 2.79074878,10.4894798 2.79074878,20 C2.79074878,29.5105202 10.4894798,37.2092512 20,37.2092512 C29.5105202,37.2092512 37.2092512,29.5105202 37.2092512,20 C37.2092512,10.4894798 29.5105202,2.79074878 20,2.79074878 Z" id="Shape"></path>
                            <path d="M18,9.09105675 C18,8.4895193 18.4638296,8 19.0337988,8 C19.603768,8 20.0675976,8.4895193 20.0675976,9.09105675 L20.0675976,20.197656 L25.6982985,26.1402187 C26.1005672,26.5647675 26.1005672,27.2570396 25.6982985,27.6815884 C25.2960297,28.1061372 24.6400876,28.1061372 24.2378188,27.6815884 L18,21.0982819 L18,9.09105675 Z" id="Path" stroke="#858585" stroke-width="0.4"></path>
                        </g>
                        <g id="Group-2" transform="translate(0.000000, 18.000000)">
                            <path d="M3.49981182,27.4181611 L30.5001882,27.4181611 L17,3.826608 L3.49981182,27.4181611 Z M32.7267595,30 L1.28603688,30 C0.825366955,30 0.403086187,29.7534344 0.172751223,29.3545403 C-0.0575837411,28.9543552 -0.0575837411,28.4625149 0.172751223,28.0636208 L15.8995107,0.599309358 C16.3473843,-0.199769786 17.6526157,-0.199769786 18.1132857,0.599309358 L33.8272488,28.0636208 C34.0575837,28.4625149 34.0575837,28.9543552 33.8272488,29.3545403 C33.5969138,29.7534344 33.174633,30 32.7267595,30 L32.7267595,30 Z" id="Fill-1052" fill="#FCA400" fill-rule="nonzero"></path>
                            <polygon id="Path" fill="#FFFFFF" points="3.49981182 27.4181611 30.5001882 27.4181611 17 3.826608"></polygon>
                            <path d="M17.0086957,25.6 C16.5391304,25.6 16.1043478,25.4414873 15.7391304,25.1227006 C15.3913043,24.8074364 15.2,24.3636008 15.2,23.792955 C15.2,23.2962818 15.373913,22.8735812 15.7217391,22.523092 C16.0695652,22.174364 16.4869565,22 16.9913043,22 C17.4956522,22 17.9130435,22.174364 18.2608696,22.523092 C18.626087,22.8735812 18.8,23.2962818 18.8,23.792955 C18.8,24.3565558 18.626087,24.7968689 18.2608696,25.1174168 C17.9130435,25.439726 17.4956522,25.6 17.0086957,25.6 Z M15.3217391,13.6244726 C15.2521739,12.7285513 15.2,12.0843882 15.2,11.6919831 C15.2,10.0914326 16.5217391,10 17.0782609,10 C17.773913,10 18.8,10.2862011 18.8,11.6919831 C18.8,12.1153305 18.7652174,13.0745429 18.7130435,13.5091421 L18.2086957,18.2489451 C18.1565217,18.814346 18.0347826,19.2461322 17.8434783,19.5471167 C17.6695652,19.8481013 17.3565217,20 16.9391304,20 C16.5217391,20 16.226087,19.8537271 16.0521739,19.5611814 C15.8782609,19.2700422 15.773913,18.8270042 15.7043478,18.230661 L15.3217391,13.6244726 Z" id="Fill-1051" fill="#FCA400" fill-rule="nonzero"></path>
                        </g>
                    </g>
                </g>
            </g>
        </g>
    </g>
</svg>