<?xml version="1.0" encoding="UTF-8"?>
<svg width="16px" height="16px" viewBox="0 0 16 16" version="1.1" xmlns="http://www.w3.org/2000/svg" xmlns:xlink="http://www.w3.org/1999/xlink">
    <title>148A77C8-CC5C-43B0-8561-18C40E9AEFE0</title>
    <g id="Style-Guide" stroke="none" stroke-width="1" fill="none" fill-rule="evenodd">
        <g id="Style-Guide---Iconography" transform="translate(-644.000000, -268.000000)" fill="#858585">
            <g id="Icons/Navigation/Overview-Selected-Copy-8" transform="translate(644.000000, 268.000000)">
                <path d="M11.8146646,2.01509215 C11.9029064,1.98782848 11.9978424,1.9979915 12.0799985,2.04162555 C12.1615461,2.08519874 12.2224025,2.1602347 12.2485708,2.24878079 L12.2485708,2.24878079 L15.5506399,13.2368935 C15.6060193,13.4208624 15.5013462,13.6157247 15.3169513,13.6708606 L15.3169513,13.6708606 L15.1672445,13.7158335 L15.6535917,13.7158335 C15.8465065,13.7158335 16.0022989,13.8718693 16.0022989,14.0646625 C16.0022989,14.2574556 15.8465065,14.4134914 15.6535917,14.4134914 L15.6535917,14.4134914 L0.349315826,14.4134914 C0.156400988,14.4134914 9.9475983e-13,14.2574556 9.9475983e-13,14.0646625 C9.9475983e-13,13.8718693 0.156400988,13.7158335 0.349315826,13.7158335 L0.349315826,13.7158335 L0.579353078,13.7158335 L0.579353078,6.37137696 C0.579353078,6.17852298 0.735145502,6.02254798 0.92806034,6.02254798 L0.92806034,6.02254798 L3.35379707,6.02254798 L3.35379707,2.90962061 C3.35379707,2.71682748 3.5095895,2.56079163 3.70250433,2.56079163 L3.70250433,2.56079163 L6.5079851,2.56079163 C6.70089994,2.56079163 6.85669236,2.71682748 6.85669236,2.90962061 L6.85669236,2.90962061 L6.85669236,4.65650402 L9.60435953,4.65650402 L9.15949913,3.17738884 C9.10351123,2.99341989 9.20879283,2.79855765 9.39318777,2.74342173 L9.39318777,2.74342173 Z M9.58549404,5.35416197 L6.85669236,5.35416197 L6.85669236,13.7158335 L9.58549404,13.7158335 L9.58549404,5.35416197 Z M6.15927784,3.25844958 L4.0512116,3.25844958 L4.0512116,13.7158335 L6.15927784,13.7158335 L6.15927784,3.25844958 Z M3.35379707,6.72020593 L1.2767676,6.72020593 L1.2767676,13.7158335 L3.35379707,13.7158335 L3.35379707,6.72020593 Z M10.2829086,6.91537246 L10.2829086,13.7158335 L12.3270756,13.7158335 L10.2829086,6.91537246 Z M11.681389,2.78358697 L9.92811566,3.31090781 L13.0293586,13.6300259 L14.7820234,13.1033137 L11.681389,2.78358697 Z M8.29159536,6.125 C8.76931822,6.125 9.15758216,6.51332479 9.15758216,6.99092594 C9.15758216,7.46852709 8.76931822,7.8575213 8.29159536,7.8575213 C7.8138725,7.8575213 7.425,7.46852709 7.425,6.99092594 C7.425,6.51332479 7.8138725,6.125 8.29159536,6.125 Z M8.3,6.5 C8.02385763,6.5 7.8,6.72385763 7.8,7 C7.8,7.27614237 8.02385763,7.5 8.3,7.5 C8.57614237,7.5 8.8,7.27614237 8.8,7 C8.8,6.72385763 8.57614237,6.5 8.3,6.5 Z" id="Combined-Shape"></path>
            </g>
        </g>
    </g>
</svg>