<?xml version="1.0" encoding="UTF-8"?>
<svg width="14px" height="14px" viewBox="0 0 14 14" version="1.1" xmlns="http://www.w3.org/2000/svg" xmlns:xlink="http://www.w3.org/1999/xlink">
    <!-- Generator: sketchtool 63.1 (101010) - https://sketch.com -->
    <title>0A095CBC-4EB6-411A-B301-2CD57819A15F</title>
    <desc>Created with sketchtool.</desc>
    <g id="Brand" stroke="none" stroke-width="1" fill="none" fill-rule="evenodd">
        <g id="Content-Brand-Page-Details" transform="translate(-596.000000, -1009.000000)" fill="#16ABE0">
            <g id="Show-Details" transform="translate(396.000000, 1006.000000)">
                <g id="Icons/Arrows/Right-Large" transform="translate(207.000000, 10.000000) rotate(-90.000000) translate(-207.000000, -10.000000) translate(199.000000, 2.000000)">
                    <path d="M14.6042105,8.30061843 C14.5691228,8.39601764 14.517193,8.48697967 14.4442105,8.56389066 L8.86385965,14.4453627 C8.58315789,14.7404347 8.12912281,14.7404347 7.84912281,14.4453627 C7.56912281,14.1495512 7.56912281,13.6718156 7.84912281,13.3760041 L12.2477193,8.74063803 L2.03508772,8.74063803 C1.6477193,8.74063803 1.33333333,8.40932915 1.33333333,8.00110929 C1.33333333,7.59288943 1.6477193,7.26158056 2.03508772,7.26158056 L12.2491228,7.26158056 L7.84912281,2.62473539 C7.56912281,2.32892389 7.56912281,1.8504488 7.84912281,1.55463731 C8.12912281,1.25956534 8.58315789,1.25956534 8.86385965,1.55463731 L14.4442105,7.43610934 C14.5178947,7.51449939 14.5698246,7.60546142 14.6049123,7.70233968 C14.6435088,7.79404125 14.6666667,7.89461716 14.6666667,8.00110929 C14.6666667,8.10834096 14.642807,8.20817734 14.6042105,8.30061843 L14.6042105,8.30061843 Z" id="Right"></path>
                </g>
            </g>
        </g>
    </g>
</svg>