<?xml version="1.0" encoding="UTF-8"?>
<svg width="16px" height="16px" viewBox="0 0 16 16" version="1.1" xmlns="http://www.w3.org/2000/svg" xmlns:xlink="http://www.w3.org/1999/xlink">
    <title>13A0EED1-3AE3-4D5C-A5CF-402456517377</title>
    <g id="Style-Guide" stroke="none" stroke-width="1" fill="none" fill-rule="evenodd">
        <g id="Style-Guide---Iconography" transform="translate(-248.000000, -208.000000)" fill="#08243F">
            <g id="Icons/Navigation/Asin-Copy-24" transform="translate(248.000000, 208.000000)">
                <path d="M8.40044051,0.167110732 C8.51184767,0.278517887 8.56868805,0.424029273 8.56868805,0.569540659 C8.56868805,0.715052044 8.51184767,0.86056343 8.40044051,0.96969697 L1.87204204,7.499 L15.496646,7.5 C15.7727884,7.5 15.996646,7.72385763 15.996646,8 C15.996646,8.27614237 15.7727884,8.5 15.496646,8.5 L1.86804204,8.499 L8.40044051,15.0297346 C8.51184767,15.1411418 8.56868805,15.2866532 8.56868805,15.4321646 C8.56868805,15.5776759 8.51184767,15.7231873 8.40044051,15.8345945 C8.17989982,16.0551352 7.81839497,16.0551352 7.59785428,15.8345945 L0.165405521,8.40214572 C0.0673874343,8.30311714 0.0129329419,8.17714201 0.00204204346,8.04837242 L0.00204204346,7.95164864 C0.0129329419,7.82299132 0.0673874343,7.69757757 0.165405521,7.59955949 L7.59785428,0.167110732 C7.81839497,-0.0557035774 8.17989982,-0.0557035774 8.40044051,0.167110732 Z" id="Right" transform="translate(7.999344, 8.000000) scale(-1, 1) translate(-7.999344, -8.000000) "></path>
            </g>
        </g>
    </g>
</svg>