<?xml version="1.0" encoding="UTF-8"?>
<svg width="25px" height="24px" viewBox="0 0 25 24" version="1.1" xmlns="http://www.w3.org/2000/svg" xmlns:xlink="http://www.w3.org/1999/xlink">
    <!-- Generator: sketchtool 62 (101010) - https://sketch.com -->
    <title>F46EFA14-D0D2-430C-85C5-FA192B12BB46</title>
    <desc>Created with sketchtool.</desc>
    <g id="Asset-Artboard-Page" stroke="none" stroke-width="1" fill="none" fill-rule="evenodd">
        <g id="Icons/Notification/None-Copy-21-Icons/Arrows/Sort" transform="translate(0.666667, 0.000000)" fill="#858585">
            <path d="M12.7997895,5.50750159 L7.77747368,10.8008264 C7.52484211,11.0663912 7.11621053,11.0663912 6.86421053,10.8008264 C6.61221053,10.5345961 6.61221053,10.1046341 6.86421053,9.83840373 L10.8229474,5.66657423 L3.63157895,5.66657423 C3.28294737,5.66657423 3,5.36839624 3,5.00099836 C3,4.63360049 3.28294737,4.3354225 3.63157895,4.3354225 L10.8242105,4.3354225 L6.86421053,0.162261849 C6.61221053,-0.103968496 6.61221053,-0.534596079 6.86421053,-0.800826423 C7.11621053,-1.06639119 7.52484211,-1.06639119 7.77747368,-0.800826423 L12.7997895,4.49249841 C12.8661053,4.56304945 12.9128421,4.64491528 12.9444211,4.73210572 C12.9791579,4.81463712 13,4.90515544 13,5.00099836 C13,5.09750686 12.9785263,5.18735961 12.9437895,5.27055659 C12.9122105,5.35641587 12.8654737,5.4382817 12.7997895,5.50750159 Z" id="Shape" transform="translate(8.000000, 5.000000) scale(-1, 1) rotate(-90.000000) translate(-8.000000, -5.000000) "></path>
            <path d="M20.7997895,19.5075016 L15.7774737,24.8008264 C15.5248421,25.0663912 15.1162105,25.0663912 14.8642105,24.8008264 C14.6122105,24.5345961 14.6122105,24.1046341 14.8642105,23.8384037 L18.8229474,19.6665742 L11.6315789,19.6665742 C11.2829474,19.6665742 11,19.3683962 11,19.0009984 C11,18.6336005 11.2829474,18.3354225 11.6315789,18.3354225 L18.8242105,18.3354225 L14.8642105,14.1622618 C14.6122105,13.8960315 14.6122105,13.4654039 14.8642105,13.1991736 C15.1162105,12.9336088 15.5248421,12.9336088 15.7774737,13.1991736 L20.7997895,18.4924984 C20.8661053,18.5630494 20.9128421,18.6449153 20.9444211,18.7321057 C20.9791579,18.8146371 21,18.9051554 21,19.0009984 C21,19.0975069 20.9785263,19.1873596 20.9437895,19.2705566 C20.9122105,19.3564159 20.8654737,19.4382817 20.7997895,19.5075016 Z" id="Shape" transform="translate(16.000000, 19.000000) scale(-1, 1) rotate(-270.000000) translate(-16.000000, -19.000000) "></path>
        </g>
    </g>
</svg>