<?xml version="1.0" encoding="UTF-8"?>
<svg width="25px" height="24px" viewBox="0 0 25 24" version="1.1" xmlns="http://www.w3.org/2000/svg" xmlns:xlink="http://www.w3.org/1999/xlink">
    <!-- Generator: sketchtool 62 (101010) - https://sketch.com -->
    <title>D8C97B12-6117-4A8A-AF3D-B995FF76840E</title>
    <desc>Created with sketchtool.</desc>
    <g id="Asset-Artboard-Page" stroke="none" stroke-width="1" fill="none" fill-rule="evenodd">
        <g id="Icons/Notification/None-Copy-9-Icons/Navigation/Switch-Dashboard" transform="translate(0.666667, 0.000000)" fill="#858585">
            <path d="M21,13.5 L16.5,13.5 C14.8431457,13.5 13.5,14.8431458 13.5,16.5 L13.5,21 C13.5,22.6568542 14.8431457,24 16.5,24 L21,24 C22.656854,24 24,22.6568542 24,21 L24,16.5 C24,14.8431458 22.656854,13.5 21,13.5 Z M22.4999999,21 C22.4990492,21.8280331 21.8280328,22.4990494 20.9999999,22.5 L16.4999999,22.5 C15.6719669,22.4990494 15.0009505,21.8280331 14.9999999,21 L14.9999999,16.5 C15.0009505,15.6719669 15.6719669,15.0009506 16.4999999,15 L20.9999999,15 C21.8280328,15.0009506 22.4990492,15.6719669 22.4999999,16.5 L22.4999999,21 Z M10.54248,22.426755 C10.4687865,22.7725901 10.163659,23.0200516 9.81006005,23.0207558 C9.75739783,23.0207558 9.70487028,23.015434 9.65332505,23.004645 C5.91494131,22.2047963 2.84171928,19.555308 1.50000013,15.975495 L1.50000013,18.75 C1.50000013,19.1642136 1.16421379,19.4999999 0.750000237,19.4999999 C0.335786683,19.4999999 1.26202798e-07,19.1642136 1.26202798e-07,18.75 L1.26202798e-07,14.25 C-0.000115237516,14.0510523 0.0788653035,13.8602197 0.219542627,13.7195424 C0.360219951,13.5788651 0.551052491,13.4998845 0.750000237,13.4999999 L5.25000014,13.4999999 C5.6642137,13.4999999 6.00000013,13.8357864 6.00000013,14.25 C6.00000013,14.6642136 5.6642137,14.9999999 5.25000014,14.9999999 L2.7340352,14.9999999 C3.79882546,18.3168603 6.55685066,20.8105325 9.96387004,21.536865 C10.1586651,21.5780354 10.3291016,21.6949584 10.4376318,21.8618755 C10.5461619,22.0287926 10.5838812,22.2320089 10.54248,22.426755 L10.54248,22.426755 Z M3.00000025,10.5 L7.50000025,10.5 C9.15685431,10.5 10.5000003,9.15685425 10.5000003,7.5 L10.5000003,3 C10.5000003,1.34314575 9.15685431,0 7.50000025,0 L3.00000025,0 C1.34314597,0 2.5268228e-07,1.34314575 2.5268228e-07,3 L2.5268228e-07,7.5 C2.5268228e-07,9.15685425 1.34314597,10.5 3.00000025,10.5 Z M1.50000022,3 C1.50095082,2.17196695 2.17196715,1.5009506 3.00000022,1.5 L7.50000022,1.5 C8.32803313,1.5009506 8.99904946,2.17196695 9.00000022,3 L9.00000022,7.5 C8.99904946,8.32803305 8.32803313,8.9990494 7.50000022,9 L3.00000022,9 C2.17196715,8.9990494 1.50095082,8.32803305 1.50000022,7.5 L1.50000022,3 Z M13.45752,1.573245 C13.5312135,1.22740986 13.836341,0.97994837 14.18994,0.979244165 C14.2426022,0.979244165 14.2951297,0.984565955 14.346675,0.995355 C18.0850587,1.79520368 21.1582807,4.44469197 22.4999998,8.024505 L22.4999998,5.25 C22.4999998,4.83578644 22.8357862,4.5 23.2499998,4.5 C23.6642133,4.5 23.9999999,4.83578644 23.9999999,5.25 L23.9999999,9.75 C24.0001152,9.94894775 23.9211347,10.1397803 23.7804574,10.2804576 C23.63978,10.4211349 23.4489475,10.5001155 23.2499998,10.5000001 L18.7499999,10.5000001 C18.3357863,10.5000001 17.9999999,10.1642136 17.9999999,9.75 C17.9999999,9.33578644 18.3357863,9 18.7499999,9 L21.2659648,9 C20.2011745,5.68313972 17.4431493,3.1894675 14.03613,2.463135 C13.8413349,2.42196463 13.6708984,2.30504157 13.5623682,2.13812449 C13.4538381,1.97120741 13.4161188,1.7679911 13.45752,1.573245 Z" id="Switch"></path>
        </g>
    </g>
</svg>