<?xml version="1.0" encoding="UTF-8"?>
<svg width="25px" height="24px" viewBox="0 0 25 24" version="1.1" xmlns="http://www.w3.org/2000/svg" xmlns:xlink="http://www.w3.org/1999/xlink">
    <!-- Generator: sketchtool 62 (101010) - https://sketch.com -->
    <title>4837FAFF-F19D-47BA-8088-16A14F4511CF</title>
    <desc>Created with sketchtool.</desc>
    <g id="Asset-Artboard-Page" stroke="none" stroke-width="1" fill="none" fill-rule="evenodd">
        <g id="Icons/Arrows/Down-Copy-Icons/Arrows/Up" transform="translate(0.666667, 0.000000)" fill="#858585">
            <path d="M19.6940231,7.18536867 L12.7017617,14.3353503 C12.3156167,14.7302053 11.6824911,14.7372662 11.287636,14.3511212 C11.2867568,14.3502614 11.2858791,14.3493999 11.2850031,14.3485368 L4.19376282,7.36235195 C3.68580479,6.86191923 2.86834256,6.86801969 2.36790984,7.37597772 C2.36486544,7.3790679 2.36183663,7.38217341 2.35882353,7.38529412 C1.8573052,7.90472382 1.86837145,8.73136035 2.38361486,9.23717858 L11.3489306,18.0384946 C11.7430429,18.4253976 12.3761809,18.4195532 12.7630839,18.0254409 C12.7637935,18.024718 12.764502,18.0239941 12.7652094,18.0232691 L21.5715361,8.99815168 C22.071921,8.4853349 22.0618429,7.6639727 21.5490261,7.16358784 C21.5473942,7.16199543 21.545758,7.16040732 21.5441176,7.15882353 C21.0249776,6.65758487 20.1985689,6.66944218 19.6940231,7.18536867 Z" id="Path" transform="translate(11.967647, 12.497059) rotate(-180.000000) translate(-11.967647, -12.497059) "></path>
        </g>
    </g>
</svg>