<?xml version="1.0" encoding="UTF-8"?>
<svg width="24px" height="14px" viewBox="0 0 24 14" version="1.1" xmlns="http://www.w3.org/2000/svg" xmlns:xlink="http://www.w3.org/1999/xlink">
    <!-- Generator: sketchtool 61.2 (101010) - https://sketch.com -->
    <title>F2477C56-4834-4B4E-94E7-5927B71FAC7A</title>
    <desc>Created with sketchtool.</desc>
    <defs>
        <rect id="path-1" x="0" y="0" width="24" height="14" rx="1"></rect>
    </defs>
    <g id="Asset-Artboard-Page" stroke="none" stroke-width="1" fill="none" fill-rule="evenodd">
        <g id="Flags/USA">
            <g id="Flag_USA">
                <mask id="mask-2" fill="white">
                    <use xlink:href="#path-1"></use>
                </mask>
                <rect stroke="#979797" stroke-width="0.5" x="0.25" y="0.25" width="23.5" height="13.5" rx="1"></rect>
                <g mask="url(#mask-2)" fill-rule="nonzero">
                    <rect id="Rectangle" fill="#CB001C" x="0" y="12.88" width="24" height="1.12"></rect>
                    <rect id="Rectangle" fill="#FFFFFF" x="0" y="11.9" width="24" height="1.07333333"></rect>
                    <rect id="Rectangle" fill="#CB001C" x="0" y="10.78" width="24" height="1.12"></rect>
                    <rect id="Rectangle" fill="#FFFFFF" x="0" y="9.73" width="24" height="1.05"></rect>
                    <rect id="Rectangle" fill="#CB001C" x="0" y="8.61" width="24" height="1.19"></rect>
                    <rect id="Rectangle" fill="#FFFFFF" x="0" y="7.49" width="24" height="1.12"></rect>
                    <rect id="Rectangle" fill="#CB001C" x="0" y="6.44" width="24" height="1.05"></rect>
                    <rect id="Rectangle" fill="#FFFFFF" x="0" y="5.39" width="24" height="1.12"></rect>
                    <rect id="Rectangle" fill="#CB001C" x="0" y="4.34" width="24" height="1.05"></rect>
                    <rect id="Rectangle" fill="#FFFFFF" x="0" y="3.22" width="24" height="1.12"></rect>
                    <rect id="Rectangle" fill="#CB001C" x="0" y="2.1" width="24" height="1.12"></rect>
                    <rect id="Rectangle" fill="#FFFFFF" x="0" y="1.05" width="24" height="1.12"></rect>
                    <rect id="Rectangle" fill="#CB001C" x="0" y="0" width="24" height="1.05"></rect>
                    <rect id="Rectangle" fill="#2A3560" x="0" y="0" width="11.0823529" height="7.49"></rect>
                    <path d="M0.988235294,5.88 L1.05882353,6.16 L1.41176471,6.16 L1.12941176,6.3 L1.2,6.65 L0.988235294,6.44 L0.776470588,6.65 L0.847058824,6.3 L0.564705882,6.16 L0.917647059,6.16 L0.988235294,5.88 Z M2.75294118,5.88 L2.89411765,6.16 L3.17647059,6.16 L2.89411765,6.3 L3.03529412,6.65 L2.75294118,6.44 L2.54117647,6.65 L2.61176471,6.3 L2.4,6.16 L2.68235294,6.16 L2.75294118,5.88 Z M4.58823529,5.88 L4.65882353,6.16 L4.94117647,6.16 L4.72941176,6.3 L4.8,6.65 L4.58823529,6.44 L4.30588235,6.65 L4.37647059,6.3 L4.16470588,6.16 L4.44705882,6.16 L4.58823529,5.88 Z M6.35294118,5.88 L6.42352941,6.16 L6.70588235,6.16 L6.49411765,6.3 L6.56470588,6.65 L6.35294118,6.44 L6.14117647,6.65 L6.21176471,6.3 L5.92941176,6.16 L6.21176471,6.16 L6.35294118,5.88 Z M8.11764706,5.88 L8.18823529,6.16 L8.54117647,6.16 L8.25882353,6.3 L8.32941176,6.65 L8.11764706,6.44 L7.90588235,6.65 L7.97647059,6.3 L7.76470588,6.16 L8.04705882,6.16 L8.11764706,5.88 Z M9.88235294,5.88 L10.0235294,6.16 L10.3058824,6.16 L10.0235294,6.3 L10.0941176,6.65 L9.88235294,6.44 L9.67058824,6.65 L9.74117647,6.3 L9.52941176,6.16 L9.81176471,6.16 L9.88235294,5.88 Z M3.67058824,5.25 L3.74117647,5.53 L4.02352941,5.53 L3.81176471,5.74 L3.88235294,6.02 L3.67058824,5.81 L3.38823529,6.02 L3.52941176,5.74 L3.31764706,5.53 L3.6,5.53 L3.67058824,5.25 Z M7.2,5.25 L7.34117647,5.53 L7.62352941,5.53 L7.41176471,5.74 L7.48235294,6.02 L7.2,5.81 L6.98823529,6.02 L7.05882353,5.74 L6.84705882,5.53 L7.12941176,5.53 L7.2,5.25 Z M1.90588235,5.25 L1.97647059,5.53 L2.25882353,5.53 L2.04705882,5.74 L2.11764706,6.02 L1.90588235,5.81 L1.62352941,6.02 L1.76470588,5.74 L1.48235294,5.53 L1.76470588,5.53 L1.90588235,5.25 Z M9.03529412,5.25 L9.10588235,5.53 L9.38823529,5.53 L9.17647059,5.74 L9.24705882,6.02 L9.03529412,5.81 L8.75294118,6.02 L8.82352941,5.74 L8.61176471,5.53 L8.89411765,5.53 L9.03529412,5.25 Z M5.43529412,5.25 L5.50588235,5.53 L5.85882353,5.53 L5.57647059,5.74 L5.71764706,6.02 L5.43529412,5.81 L5.22352941,6.02 L5.29411765,5.74 L5.08235294,5.53 L5.36470588,5.53 L5.43529412,5.25 Z M2.75294118,4.55 L2.89411765,4.9 L3.17647059,4.9 L2.89411765,5.04 L3.03529412,5.39 L2.75294118,5.18 L2.54117647,5.39 L2.61176471,5.04 L2.4,4.9 L2.68235294,4.9 L2.75294118,4.55 Z M4.58823529,4.55 L4.65882353,4.9 L4.94117647,4.9 L4.72941176,5.04 L4.8,5.39 L4.58823529,5.18 L4.30588235,5.39 L4.37647059,5.04 L4.16470588,4.9 L4.44705882,4.9 L4.58823529,4.55 Z M6.35294118,4.55 L6.42352941,4.9 L6.70588235,4.9 L6.49411765,5.04 L6.56470588,5.39 L6.35294118,5.18 L6.14117647,5.39 L6.21176471,5.04 L5.92941176,4.9 L6.21176471,4.9 L6.35294118,4.55 Z M0.988235294,4.55 L1.05882353,4.9 L1.41176471,4.9 L1.12941176,5.04 L1.2,5.39 L0.988235294,5.18 L0.776470588,5.39 L0.847058824,5.04 L0.564705882,4.9 L0.917647059,4.9 L0.988235294,4.55 Z M8.11764706,4.55 L8.18823529,4.9 L8.54117647,4.9 L8.25882353,5.04 L8.32941176,5.39 L8.11764706,5.18 L7.90588235,5.39 L7.97647059,5.04 L7.76470588,4.9 L8.04705882,4.9 L8.11764706,4.55 Z M9.88235294,4.55 L10.0235294,4.9 L10.3058824,4.9 L10.0235294,5.04 L10.0941176,5.39 L9.88235294,5.18 L9.67058824,5.39 L9.74117647,5.04 L9.52941176,4.9 L9.81176471,4.9 L9.88235294,4.55 Z M1.90588235,3.99 L1.97647059,4.34 L2.25882353,4.34 L2.04705882,4.41 L2.11764706,4.76 L1.90588235,4.55 L1.62352941,4.76 L1.76470588,4.41 L1.48235294,4.34 L1.76470588,4.34 L1.90588235,3.99 Z M3.67058824,3.99 L3.74117647,4.34 L4.02352941,4.34 L3.81176471,4.41 L3.88235294,4.76 L3.67058824,4.55 L3.38823529,4.76 L3.52941176,4.41 L3.31764706,4.34 L3.6,4.34 L3.67058824,3.99 Z M5.43529412,3.99 L5.50588235,4.34 L5.85882353,4.34 L5.57647059,4.41 L5.71764706,4.76 L5.43529412,4.55 L5.22352941,4.76 L5.29411765,4.41 L5.08235294,4.34 L5.36470588,4.34 L5.43529412,3.99 Z M7.2,3.99 L7.34117647,4.34 L7.62352941,4.34 L7.41176471,4.41 L7.48235294,4.76 L7.2,4.55 L6.98823529,4.76 L7.05882353,4.41 L6.84705882,4.34 L7.12941176,4.34 L7.2,3.99 Z M9.03529412,3.99 L9.10588235,4.34 L9.38823529,4.34 L9.17647059,4.41 L9.24705882,4.76 L9.03529412,4.55 L8.75294118,4.76 L8.82352941,4.41 L8.61176471,4.34 L8.89411765,4.34 L9.03529412,3.99 Z M6.35294118,3.36 L6.42352941,3.57 L6.70588235,3.57 L6.49411765,3.78 L6.56470588,4.06 L6.35294118,3.92 L6.14117647,4.06 L6.21176471,3.78 L5.92941176,3.57 L6.21176471,3.57 L6.35294118,3.36 Z M2.75294118,3.36 L2.89411765,3.57 L3.17647059,3.57 L2.89411765,3.78 L3.03529412,4.06 L2.75294118,3.92 L2.54117647,4.06 L2.61176471,3.78 L2.4,3.57 L2.68235294,3.57 L2.75294118,3.36 Z M8.11764706,3.36 L8.18823529,3.57 L8.54117647,3.57 L8.25882353,3.78 L8.32941176,4.06 L8.11764706,3.92 L7.90588235,4.06 L7.97647059,3.78 L7.76470588,3.57 L8.04705882,3.57 L8.11764706,3.36 Z M4.58823529,3.36 L4.65882353,3.57 L4.94117647,3.57 L4.72941176,3.78 L4.8,4.06 L4.58823529,3.92 L4.30588235,4.06 L4.37647059,3.78 L4.16470588,3.57 L4.44705882,3.57 L4.58823529,3.36 Z M0.988235294,3.36 L1.05882353,3.57 L1.41176471,3.57 L1.12941176,3.78 L1.2,4.06 L0.988235294,3.92 L0.776470588,4.06 L0.847058824,3.78 L0.564705882,3.57 L0.917647059,3.57 L0.988235294,3.36 Z M9.88235294,3.36 L10.0235294,3.57 L10.3058824,3.57 L10.0235294,3.78 L10.0941176,4.06 L9.88235294,3.92 L9.67058824,4.06 L9.74117647,3.78 L9.52941176,3.57 L9.81176471,3.57 L9.88235294,3.36 Z M5.43529412,2.73 L5.50588235,3.01 L5.85882353,3.01 L5.57647059,3.22 L5.71764706,3.5 L5.43529412,3.36 L5.22352941,3.5 L5.29411765,3.22 L5.08235294,3.01 L5.36470588,3.01 L5.43529412,2.73 Z M1.90588235,2.73 L1.97647059,3.01 L2.25882353,3.01 L2.04705882,3.22 L2.11764706,3.5 L1.90588235,3.36 L1.62352941,3.5 L1.76470588,3.22 L1.48235294,3.01 L1.76470588,3.01 L1.90588235,2.73 Z M7.2,2.73 L7.34117647,3.01 L7.62352941,3.01 L7.41176471,3.22 L7.48235294,3.5 L7.2,3.36 L6.98823529,3.5 L7.05882353,3.22 L6.84705882,3.01 L7.12941176,3.01 L7.2,2.73 Z M3.67058824,2.73 L3.74117647,3.01 L4.02352941,3.01 L3.81176471,3.22 L3.88235294,3.5 L3.67058824,3.36 L3.38823529,3.5 L3.52941176,3.22 L3.31764706,3.01 L3.6,3.01 L3.67058824,2.73 Z M9.03529412,2.73 L9.10588235,3.01 L9.38823529,3.01 L9.17647059,3.22 L9.24705882,3.5 L9.03529412,3.36 L8.75294118,3.5 L8.82352941,3.22 L8.61176471,3.01 L8.89411765,3.01 L9.03529412,2.73 Z M4.58823529,2.1 L4.65882353,2.38 L4.94117647,2.38 L4.72941176,2.59 L4.8,2.87 L4.58823529,2.66 L4.30588235,2.87 L4.37647059,2.59 L4.16470588,2.38 L4.44705882,2.38 L4.58823529,2.1 Z M0.988235294,2.1 L1.05882353,2.38 L1.41176471,2.38 L1.12941176,2.59 L1.2,2.87 L0.988235294,2.66 L0.776470588,2.87 L0.847058824,2.59 L0.564705882,2.38 L0.917647059,2.38 L0.988235294,2.1 Z M6.35294118,2.1 L6.42352941,2.38 L6.70588235,2.38 L6.49411765,2.59 L6.56470588,2.87 L6.35294118,2.66 L6.14117647,2.87 L6.21176471,2.59 L5.92941176,2.38 L6.21176471,2.38 L6.35294118,2.1 Z M2.75294118,2.1 L2.89411765,2.38 L3.17647059,2.38 L2.89411765,2.59 L3.03529412,2.87 L2.75294118,2.66 L2.54117647,2.87 L2.61176471,2.59 L2.4,2.38 L2.68235294,2.38 L2.75294118,2.1 Z M8.11764706,2.1 L8.18823529,2.38 L8.54117647,2.38 L8.25882353,2.59 L8.32941176,2.87 L8.11764706,2.66 L7.90588235,2.87 L7.97647059,2.59 L7.76470588,2.38 L8.04705882,2.38 L8.11764706,2.1 Z M9.88235294,2.1 L10.0235294,2.38 L10.3058824,2.38 L10.0235294,2.59 L10.0941176,2.87 L9.88235294,2.66 L9.67058824,2.87 L9.74117647,2.59 L9.52941176,2.38 L9.81176471,2.38 L9.88235294,2.1 Z M1.90588235,1.47 L1.97647059,1.75 L2.25882353,1.75 L2.04705882,1.89 L2.11764706,2.24 L1.90588235,2.1 L1.62352941,2.24 L1.76470588,1.89 L1.48235294,1.75 L1.76470588,1.75 L1.90588235,1.47 Z M3.67058824,1.47 L3.74117647,1.75 L4.02352941,1.75 L3.81176471,1.89 L3.88235294,2.24 L3.67058824,2.1 L3.38823529,2.24 L3.52941176,1.89 L3.31764706,1.75 L3.6,1.75 L3.67058824,1.47 Z M5.43529412,1.47 L5.50588235,1.75 L5.85882353,1.75 L5.57647059,1.89 L5.71764706,2.24 L5.43529412,2.1 L5.22352941,2.24 L5.29411765,1.89 L5.08235294,1.75 L5.36470588,1.75 L5.43529412,1.47 Z M7.2,1.47 L7.34117647,1.75 L7.62352941,1.75 L7.41176471,1.89 L7.48235294,2.24 L7.2,2.1 L6.98823529,2.24 L7.05882353,1.89 L6.84705882,1.75 L7.12941176,1.75 L7.2,1.47 Z M9.03529412,1.47 L9.10588235,1.75 L9.38823529,1.75 L9.17647059,1.89 L9.24705882,2.24 L9.03529412,2.1 L8.75294118,2.24 L8.82352941,1.89 L8.61176471,1.75 L8.89411765,1.75 L9.03529412,1.47 Z M0.988235294,0.77 L1.05882353,1.12 L1.41176471,1.12 L1.12941176,1.26 L1.2,1.54 L0.988235294,1.4 L0.776470588,1.54 L0.847058824,1.26 L0.564705882,1.12 L0.917647059,1.12 L0.988235294,0.77 Z M2.75294118,0.77 L2.89411765,1.12 L3.17647059,1.12 L2.89411765,1.26 L3.03529412,1.54 L2.75294118,1.4 L2.54117647,1.54 L2.61176471,1.26 L2.4,1.12 L2.68235294,1.12 L2.75294118,0.77 Z M4.58823529,0.77 L4.65882353,1.12 L4.94117647,1.12 L4.72941176,1.26 L4.8,1.54 L4.58823529,1.4 L4.30588235,1.54 L4.37647059,1.26 L4.16470588,1.12 L4.44705882,1.12 L4.58823529,0.77 Z M6.35294118,0.77 L6.42352941,1.12 L6.70588235,1.12 L6.49411765,1.26 L6.56470588,1.54 L6.35294118,1.4 L6.14117647,1.54 L6.21176471,1.26 L5.92941176,1.12 L6.21176471,1.12 L6.35294118,0.77 Z M8.11764706,0.77 L8.18823529,1.12 L8.54117647,1.12 L8.25882353,1.26 L8.32941176,1.54 L8.11764706,1.4 L7.90588235,1.54 L7.97647059,1.26 L7.76470588,1.12 L8.04705882,1.12 L8.11764706,0.77 Z M9.88235294,0.77 L10.0235294,1.12 L10.3058824,1.12 L10.0235294,1.26 L10.0941176,1.54 L9.88235294,1.4 L9.67058824,1.54 L9.74117647,1.26 L9.52941176,1.12 L9.81176471,1.12 L9.88235294,0.77 Z" id="Combined-Shape" fill="#FFFFFF"></path>
                </g>
            </g>
        </g>
    </g>
</svg>